<?xml version="1.0" encoding="UTF-8"?>
<svg width="52px" height="50px" viewBox="0 0 52 50" version="1.1" xmlns="http://www.w3.org/2000/svg" xmlns:xlink="http://www.w3.org/1999/xlink">
    <!-- Generator: Sketch 58 (84663) - https://sketch.com -->
    <title>Fill 51</title>
    <desc>Created with Sketch.</desc>
    <g id="Home" stroke="none" stroke-width="1" fill="none" fill-rule="evenodd">
        <g id="Desktop-HD" transform="translate(-526.000000, -1864.000000)" fill="#FFFFFE">
            <path d="M526,1889.63347 C526,1900.95846 533.343855,1910.5651 543.529578,1913.95458 C544.812038,1914.19061 545.279388,1913.39911 545.279388,1912.71932 C545.279388,1912.11035 545.257358,1910.49901 545.24477,1908.36053 C538.114921,1909.90893 536.610587,1904.92385 536.610587,1904.92385 C535.444571,1901.96239 533.763998,1901.17403 533.763998,1901.17403 C531.436687,1899.58473 533.940238,1899.6162 533.940238,1899.6162 C536.513026,1899.79716 537.866297,1902.25822 537.866297,1902.25822 C540.152695,1906.17484 543.866322,1905.04345 545.326596,1904.38727 C545.559484,1902.73187 546.221957,1901.60205 546.953668,1900.9616 C541.262062,1900.31487 535.277773,1898.11501 535.277773,1888.29278 C535.277773,1885.49498 536.27699,1883.20543 537.916651,1881.41471 C537.652291,1880.7664 536.772665,1878.15899 538.168422,1874.63104 C538.168422,1874.63104 540.319494,1873.94182 545.216446,1877.25891 C547.260514,1876.68927 549.454072,1876.40603 551.633467,1876.39502 C553.811289,1876.40603 556.003273,1876.68927 558.050488,1877.25891 C562.944293,1873.94182 565.092217,1874.63104 565.092217,1874.63104 C566.491122,1878.15899 565.611496,1880.7664 565.348709,1881.41471 C566.991517,1883.20543 567.982867,1885.49498 567.982867,1888.29278 C567.982867,1898.14019 561.989136,1900.307 556.280221,1900.94115 C557.199187,1901.73265 558.019017,1903.29678 558.019017,1905.68704 C558.019017,1909.11427 557.987546,1911.87904 557.987546,1912.71932 C557.987546,1913.4054 558.450175,1914.2032 559.749945,1913.953 C569.9278,1910.55566 577.26536,1900.95531 577.26536,1889.63347 C577.26536,1875.47605 565.787736,1864 551.63032,1864 C537.477625,1864 526,1875.47605 526,1889.63347 Z" id="Fill-51"></path>
        </g>
    </g>
</svg>