<?xml version="1.0" encoding="UTF-8"?>
<svg width="90px" height="40px" viewBox="0 0 90 40" version="1.1" xmlns="http://www.w3.org/2000/svg" xmlns:xlink="http://www.w3.org/1999/xlink">
    <!-- Generator: Sketch 58 (84663) - https://sketch.com -->
    <title>sqlite logo</title>
    <desc>Created with Sketch.</desc>
    <defs>
        <linearGradient x1="57.6615627%" y1="2.04644676%" x2="57.6615584%" y2="94.4387516%" id="linearGradient-1">
            <stop stop-color="#97D9F6" offset="0%"></stop>
            <stop stop-color="#0F80CC" offset="92.024499%"></stop>
            <stop stop-color="#0F80CC" offset="100%"></stop>
        </linearGradient>
    </defs>
    <g id="Home" stroke="none" stroke-width="1" fill="none" fill-rule="evenodd">
        <g id="Desktop-HD-Copy-2" transform="translate(-531.000000, -3062.000000)" fill-rule="nonzero">
            <g id="background" transform="translate(1.000000, 873.000000)">
                <g id="logos" transform="translate(81.000000, 1882.000000)">
                    <g id="sqlite-logo" transform="translate(449.000000, 307.000000)">
                        <path d="M34.1261995,19.6568782 C32.9295726,19.6568782 31.9565765,20.0110896 31.2106232,20.7192026 C30.46467,21.4279358 30.0862654,22.3569214 30.0862654,23.4952046 C30.0862654,24.0851137 30.1802461,24.6229742 30.3654163,25.1158307 C30.5505865,25.6096796 30.8387321,26.067177 31.2261316,26.4805686 C31.6135311,26.8943323 32.3889504,27.4563882 33.5446351,28.1709825 C34.9627218,29.0366902 35.8907435,29.7392821 36.3361442,30.2878744 C36.7818553,30.8360026 37.0030047,31.4104333 37.0030047,32.0093051 C37.0030047,32.8111505 36.7390521,33.4512126 36.1965688,33.9323447 C35.6531549,34.4136951 34.9264321,34.6534846 34.0253949,34.6534846 C33.0750412,34.6534846 32.2472037,34.3184737 31.5362993,33.6531937 C30.8253949,32.9869535 30.4665311,32.1057374 30.4584667,31.00126 L30.0164777,31.00126 L30.0164777,35.0101774 L30.4584667,35.0101774 C30.5933895,34.6305619 30.7801105,34.4363672 31.0245226,34.4363672 C31.1420761,34.4363672 31.4175051,34.5174449 31.846467,34.668993 C32.8901812,35.0403554 33.7471746,35.2195405 34.4208588,35.2195405 C35.5818165,35.2195405 36.5728021,34.812943 37.3984686,33.986624 C38.2228942,33.1606796 38.6391393,32.1643889 38.6391393,31.00126 C38.6391393,30.0993544 38.3643307,29.2969184 37.8249491,28.597463 C37.2855675,27.8971663 36.2365804,27.0826016 34.668993,26.1471382 C33.3200737,25.3366974 32.4444704,24.6766333 32.0403218,24.1620651 C31.635553,23.6482388 31.4277407,23.0798604 31.4277407,22.4561428 C31.4277407,21.7815268 31.6755646,21.2396639 32.1643889,20.8355154 C32.6532132,20.4310568 33.2937095,20.2306884 34.0951826,20.2306884 C34.9971504,20.2306884 35.7489968,20.4983632 36.3438984,21.0371244 C36.9381796,21.5768161 37.2818454,22.3246925 37.3829602,23.2858414 L37.8249491,23.2858414 L37.8249491,19.8119621 L37.413977,19.8119621 C37.3637298,19.9890679 37.3172046,20.1022789 37.2744014,20.1531465 C37.2328389,20.2037039 37.1528158,20.2306884 37.0340216,20.2306884 C36.8910342,20.2306884 36.6360763,20.170516 36.2741107,20.0523421 C35.4986914,19.7911809 34.7837549,19.6568782 34.1261995,19.6568782 L34.1261995,19.6568782 Z M48.5722593,19.6568782 C47.1141611,19.6568782 45.7903654,20.000544 44.5943588,20.6881858 C43.3964912,21.3745868 42.4483086,22.3277321 41.7485704,23.5417296 C41.0491421,24.7556318 40.7017544,26.0448723 40.7017544,27.4188258 C40.7017544,29.2646932 41.3059611,30.90917 42.5239895,32.3504895 C43.7426384,33.7909405 45.2029079,34.6885037 46.8973539,35.03344 C47.2847533,35.235297 47.839023,35.7563788 48.5645053,36.5997868 C49.3821072,37.551597 50.0737811,38.2380925 50.6426286,38.6468935 C51.2108558,39.0559104 51.8243675,39.3556886 52.4726181,39.554134 C53.1214888,39.751743 53.8230881,39.8487933 54.5817582,39.8487933 C55.5004749,39.8487933 56.3230396,39.6891189 57.0475914,39.3602791 L56.8847533,38.9570612 C56.464166,39.1087654 56.0156635,39.1819328 55.5432781,39.1819328 C54.9021614,39.1819328 54.2542212,38.9705225 53.60473,38.5460889 C52.9561695,38.1206009 52.1450809,37.3088004 51.1776679,36.1112726 C50.7229621,35.5374625 50.4090725,35.1754347 50.2316565,35.03344 C52.0855288,34.6714123 53.610003,33.7729184 54.7988756,32.3349811 C55.9874382,30.897664 56.5823398,29.2572839 56.5823398,27.4188258 C56.5823398,25.235893 55.80568,23.4013156 54.2638363,21.905594 C52.7207521,20.4097172 50.8231463,19.6568782 48.5722593,19.6568782 L48.5722593,19.6568782 Z M57.5903847,19.6568782 L57.6136349,20.129884 C58.5844598,20.129884 59.1281839,20.4158586 59.2497695,20.9905993 C59.295054,21.1962405 59.3158353,21.5759477 59.3195572,22.1227114 L59.3118154,32.5831153 C59.3037511,33.3643656 59.1924009,33.8631772 58.9783853,34.0796744 C58.7640593,34.2946205 58.4017835,34.4292333 57.8772898,34.4828923 L57.8540398,34.9558981 L67.5312716,34.9558981 L67.7794056,32.5831153 L67.3374167,32.5831153 C67.2111784,33.2295047 66.9217919,33.6925553 66.461193,33.9556072 C65.9993533,34.2205823 65.1826818,34.3510711 64.003114,34.3510711 L63.0881195,34.3510711 C62.0267256,34.3510711 61.4125935,33.9673614 61.250376,33.1956965 C61.2168777,33.0430319 61.2054016,32.8793551 61.2038507,32.6994281 L61.2426218,22.1227114 C61.2423735,21.3427016 61.3409449,20.820007 61.5450353,20.5641188 C61.7512967,20.3091609 62.1231877,20.1664837 62.6616388,20.129884 L62.6383886,19.6568782 L57.5903847,19.6568782 L57.5903847,19.6568782 Z M48.7273432,20.2306884 C50.3718523,20.2306884 51.7145682,20.8783807 52.7517689,22.1847449 C53.7886595,23.4915768 54.3026074,25.2826686 54.3026074,27.550647 C54.3026074,29.6997642 53.7812154,31.420577 52.7362605,32.7149365 C51.6913056,34.008894 50.3005137,34.6534846 48.5722593,34.6534846 C46.9119318,34.6534846 45.5654939,33.9887953 44.5323253,32.652903 C43.5000872,31.3170107 42.9892411,29.5826151 42.9892411,27.4498426 C42.9892411,25.2581977 43.5062905,23.5037949 44.5478337,22.1924991 C45.5887565,20.8825989 46.98265,20.2306884 48.7273432,20.2306884 L48.7273432,20.2306884 Z M70.9818746,22.4794054 C70.745837,22.4794054 70.5659396,22.5591184 70.431327,22.7197854 C70.2936125,22.8798295 70.2514296,23.0736842 70.2995056,23.309104 C70.3460309,23.5374791 70.4747504,23.7376316 70.6794611,23.9061768 C70.8829311,24.0745632 71.1025298,24.1620651 71.3385674,24.1620651 C71.5668509,24.1620651 71.7408549,24.0745681 71.8658525,23.9061768 C71.99085,23.7376316 72.0290007,23.5374791 71.9821654,23.309104 C71.9340893,23.0736842 71.8097121,22.8798295 71.6177182,22.7197854 C71.4235533,22.5591184 71.2101581,22.4794054 70.9818746,22.4794054 L70.9818746,22.4794054 Z M77.3635747,24.0845232 C76.9625279,25.6273568 76.0931279,26.4622661 74.7581661,26.5968814 L74.7736746,27.0388704 L76.3322672,27.0388704 L76.3012504,32.2651933 C76.3037318,33.1587244 76.3310265,33.7536261 76.3943007,34.0564118 C76.5478337,34.781306 77.0211495,35.1497528 77.8133179,35.1497528 C78.9593874,35.1497528 80.1615974,34.4516274 81.4190172,33.0561211 L81.0390618,32.7304449 C80.1312009,33.6494419 79.328487,34.1106911 78.6275081,34.1106911 C78.1966851,34.1106911 77.9296307,33.8629291 77.8288261,33.3740428 C77.8012212,33.2553107 77.7900553,33.1165739 77.7900553,32.9553165 L77.8055637,27.0388704 L80.1861005,27.0388704 L80.1628505,26.3332389 L77.8133302,26.3332389 L77.8133302,24.0845232 L77.363587,24.0845232 L77.3635747,24.0845232 Z M86.5678007,26.0540879 C85.2362509,26.0540879 84.1531453,26.7004774 83.31104,27.9848818 C82.4732772,29.2714574 82.213977,30.6968912 82.5433751,32.2651933 C82.7372298,33.1838158 83.1233886,33.8957772 83.7142581,34.3975961 C84.304197,34.8991993 85.0526316,35.1497528 85.9474653,35.1497528 C86.7805758,35.1497528 87.9406028,34.9388089 88.4288068,34.5139091 C88.9182514,34.0892572 89.3692353,33.4013053 89.7857905,32.4590482 L89.4523602,32.1101095 C88.7879811,33.3324804 87.4471261,33.947853 86.4359795,33.947853 C85.0458079,33.947853 84.1943975,33.1851507 83.8770961,31.6681205 C83.8358437,31.4744816 83.8051372,31.2664535 83.7840458,31.0477853 C85.4378598,30.7859416 86.6912474,30.3222707 87.5370747,29.6520307 C88.3822818,28.9814209 89.2309005,28.270576 89.0724047,27.5196304 C88.9781139,27.0733909 88.7464186,26.7225291 88.3900358,26.457306 C88.0290007,26.1922068 87.0916739,26.0540879 86.5678007,26.0540879 L86.5678007,26.0540879 Z M72.0131821,26.1083674 L69.1441311,26.7674737 L69.1441311,27.2792504 L70.1366677,27.1551833 C70.6174275,27.1551833 70.9003005,27.3728912 70.9896288,27.8065354 C71.0197151,27.951664 71.0386353,28.155474 71.0439081,28.4113625 L71.0128914,33.1026461 C71.004827,33.751827 70.9328681,34.1292068 70.7880198,34.2425123 C70.6419309,34.3560337 70.2567025,34.4131046 69.6326451,34.4131046 L69.6171368,34.8550935 L74.1688475,34.8550935 L74.1611058,34.4131046 C73.5286739,34.4131046 73.1186321,34.3631998 72.9359433,34.2657749 C72.7563563,34.1689728 72.6325995,33.9927975 72.5792505,33.7229814 C72.5379982,33.5285361 72.5200086,33.1934954 72.517217,32.7304449 L72.5327254,26.1083674 L72.0131946,26.1083674 L72.0131821,26.1083674 Z M85.8389067,26.9768368 C86.1158863,26.9768368 86.3835611,27.0838125 86.6530968,27.2947588 C86.9189105,27.5049605 87.0808181,27.7387005 87.1338567,27.992636 C87.393467,29.2398525 86.2877193,30.1021137 83.7995542,30.5825337 C83.7285258,29.6730923 83.8860909,28.8475202 84.2880682,28.1011947 C84.6869439,27.3555814 85.2064747,26.9768368 85.8389067,26.9768368 L85.8389067,26.9768368 Z" id="Shape" fill="#003B57"></path>
                        <path d="M27.699587,1.74592893 L3.00875061,1.74592893 C1.35394398,1.74592893 1.42108547e-14,3.10012104 1.42108547e-14,4.75486563 L1.42108547e-14,31.9842386 C1.42108547e-14,33.6388888 1.35394398,34.9928651 3.00875061,34.9928651 L19.2707804,34.9928651 C19.0862018,26.9014065 21.8493281,11.1983938 27.699587,1.74592893 L27.699587,1.74592893 Z" id="Path" fill="#0F80CC"></path>
                        <path d="M26.8025821,2.62370347 L3.00875061,2.62370347 C1.83374237,2.62370347 0.87755743,3.57964028 0.87755743,4.75486563 L0.87755743,29.9975847 C6.26634874,27.9293867 14.3542714,26.1448307 19.9465637,26.2258788 C21.0703458,20.3498384 24.3731305,8.83405107 26.8025821,2.62370347 L26.8025821,2.62370347 Z" id="Path" fill="url(#linearGradient-1)"></path>
                        <path d="M33.4587807,0.854817175 C31.7677465,-0.653218105 29.7203295,-0.0474606184 27.699587,1.74592893 C27.3996549,2.01236298 27.1003432,2.30795277 26.8025821,2.62370347 C23.3457633,6.29081602 20.1370786,13.0834883 19.1401996,18.2710428 C19.5285296,19.0585586 19.8318737,20.0635019 20.0316216,20.8311668 C20.0827993,21.0281233 20.1290142,21.2129833 20.1659242,21.3702382 C20.2537016,21.7424086 20.3008472,21.98375 20.3008472,21.98375 C20.3008472,21.98375 20.2698304,21.8664756 20.1426616,21.4977172 C20.1184686,21.4269989 20.091484,21.3497672 20.0595367,21.2588881 C20.0458893,21.2213579 20.0269691,21.1757632 20.0061879,21.1270668 C19.780696,20.6028835 19.1569488,19.4965153 18.8824504,19.0148249 C18.6476533,19.7074293 18.4401512,20.3553696 18.2664574,20.9415867 C19.0589358,22.3915584 19.5418668,24.8764358 19.5418668,24.8764358 C19.5418668,24.8764358 19.4999942,24.7153968 19.3008665,24.1533432 C19.1240709,23.6562361 18.2435049,22.1134002 18.0349172,21.7527061 C17.6781002,23.0699275 17.5363226,23.9592402 17.6641737,24.175767 C17.9124009,24.5953321 18.1488107,25.3192635 18.356406,26.1198684 C18.8253795,27.9234612 19.1513658,30.1191084 19.1513658,30.1191084 C19.1513658,30.1191084 19.1619114,30.2646068 19.1795911,30.4885181 C19.1144558,32.0031289 19.1535368,33.5734756 19.2707804,34.9928651 C19.4261742,36.8717988 19.7186625,38.4858818 20.091484,39.3497284 L20.3445807,39.2117361 C19.7971349,37.5098139 19.5747446,35.2793979 19.6721372,32.7071774 C19.8194668,28.7754619 20.724226,24.0339907 22.3960298,19.0920567 C25.2204168,11.6319035 29.1390753,5.64628756 32.7255442,2.78778219 C29.456687,5.73995821 25.0324551,15.2959144 23.7080391,18.8346175 C22.2251275,22.7973198 21.1742793,26.5159525 20.540917,30.0787544 C21.6336377,26.7386528 25.1667577,25.3029165 25.1667577,25.3029165 C25.1667577,25.3029165 26.8996646,23.1657693 28.9247495,20.1125084 C27.7116837,20.3891779 25.7197868,20.862804 25.0526161,21.1431956 C24.068454,21.5560288 23.8032607,21.6968449 23.8032607,21.6968449 C23.8032607,21.6968449 26.991164,19.7555054 29.7262228,18.8764902 C33.4876263,12.9522874 37.5855618,4.53619742 33.4587807,0.854817175" id="Path" fill="#003B57"></path>
                    </g>
                </g>
            </g>
        </g>
    </g>
</svg>