<?xml version="1.0" encoding="UTF-8"?>
<svg width="1436px" height="880px" viewBox="0 0 1436 880" version="1.1" xmlns="http://www.w3.org/2000/svg" xmlns:xlink="http://www.w3.org/1999/xlink">
    <!-- Generator: Sketch 58 (84663) - https://sketch.com -->
    <title>66341</title>
    <desc>Created with Sketch.</desc>
    <g id="Home" stroke="none" stroke-width="1" fill="none" fill-rule="evenodd" opacity="0.46">
        <g id="Desktop-HD" transform="translate(-2.000000, -1618.000000)" fill="#00FFFF" fill-rule="nonzero">
            <g id="66341" transform="translate(1.000000, 1618.000000)">
                <g id="g10" transform="translate(719.000000, 440.000000) scale(-1, 1) rotate(-180.000000) translate(-719.000000, -440.000000) ">
                    <g id="g12" transform="translate(0.077307, 0.000000)">
                        <polyline id="path396" points="1.17736935 557.794583 121.381344 562.544714 121.268825 562.49187 403.287371 879.58691 403.52797 879.858179 403.841586 879.674984 845.617535 623.062208 845.068109 623.045768 1028.05583 744.537567 1028.31918 744.711367 1028.55977 744.508209 1226.95658 577.072248 1226.64536 577.119221 1436.52864 665.474011 1226.87279 576.568464 1226.70521 576.49683 1226.56157 576.616611 1028.01873 743.871727 1028.52147 743.843543 845.643869 622.18499 845.374542 622.005319 845.093246 622.16855 403.395102 878.91285 403.950514 879.000924 121.505832 562.281666 121.460346 562.231171 121.393314 562.228822 1.17736935 557.794583"></polyline>
                        <path d="M1.33307129,547.289101 L118.564067,555.151185 L118.457413,555.099515 L397.906823,866.492049 L398.135451,866.745703 L398.440688,866.590692 L511.64288,808.845772 L568.243377,779.972724 L582.394399,772.754169 L596.101332,764.733552 L623.490059,748.653565 L842.535241,619.86453 L842.012149,619.865705 L1026.04367,726.818227 L1026.29743,726.965017 L1026.52247,726.7783 L1050.68287,706.624591 L1053.70411,704.104497 L1056.86421,701.761725 L1063.19758,697.089099 L1075.86312,687.743847 L1126.52646,650.361665 L1177.1898,612.978308 C1181.48705,609.961476 1185.43718,606.498401 1189.51538,603.196208 L1201.67578,593.205079 L1225.99897,573.221647 L1225.69972,573.270969 L1436.43288,650.099791 L1225.91518,572.710817 L1225.7476,572.650927 L1225.61593,572.760139 L1201.28077,592.715387 L1189.11558,602.693599 C1185.03618,605.98992 1181.08486,609.447123 1176.78401,612.461607 L1126.08356,649.799165 L1075.38312,687.136723 L1062.708,696.470232 L1056.37105,701.13816 L1053.20855,703.477409 L1050.18252,705.996329 L1025.98621,726.140644 L1026.46501,726.099542 L842.532847,618.977918 L842.270702,618.825256 L842.009755,618.979092 L622.944224,747.676529 L595.571057,763.781177 L581.874898,771.813537 L567.732255,779.043836 L511.167668,807.963856 L398.0361,865.803897 L398.568768,865.90254 L118.692147,554.890486 L118.649174,554.842338 L118.585134,554.838815 L1.33307129,547.289101" id="path398"></path>
                        <polyline id="path400" points="1.48737752 536.784794 115.74691 547.757656 115.646361 547.70716 392.528668 853.397188 392.74413 853.635575 393.037397 853.505226 578.71001 771.658527 578.741133 771.645609 578.768664 771.629169 839.45175 616.668027 838.957386 616.686816 1024.03389 709.098887 1024.27688 709.219842 1024.48516 709.047217 1052.08696 686.290037 1052.04626 686.319395 1179.59578 605.723349 1179.61254 605.713954 1179.6269 605.702211 1225.04137 569.372221 1224.76605 569.423891 1436.33712 634.724397 1224.94561 568.851996 1224.78999 568.805023 1224.67029 568.904841 1179.21633 605.192555 1179.24625 605.171417 1051.61893 685.647683 1051.59858 685.660601 1051.57823 685.677041 1023.95489 708.40956 1024.40616 708.35789 839.41943 615.772019 839.166862 615.645193 838.925066 615.789634 578.215646 770.707326 578.2743 770.677968 392.678294 852.698467 393.187023 852.80533 115.877862 547.498131 115.836685 547.453506 115.775877 547.447635 1.48737752 536.784794"></polyline>
                        <polyline id="path402" points="1.64167178 526.279312 112.929753 540.364126 112.83483 540.314805 387.149317 840.302327 387.351611 840.523099 387.632908 840.418585 574.701233 770.726115 574.747916 770.7085 574.791008 770.68384 836.368258 613.472698 835.906214 613.505579 1022.02411 691.378373 1022.25514 691.474667 1022.44785 691.317308 1050.35489 668.571871 1050.28905 668.615321 1177.90082 601.494616 1177.92596 601.480524 1177.9499 601.46291 1224.09573 565.52162 1223.83239 565.575639 1436.24136 619.350178 1223.97603 564.995524 1223.83239 564.957945 1223.72466 565.048368 1177.54411 600.946208 1177.59319 600.914501 1049.91798 667.914251 1049.88207 667.93304 1049.85095 667.957701 1021.92237 690.677303 1022.34611 690.616238 836.30362 612.566121 836.063021 612.46513 835.840378 612.600177 574.2344 769.766694 574.322978 769.723245 387.322883 839.591862 387.805277 839.70812 113.06298 540.10695 113.024197 540.064674 112.968057 540.057628 1.64167178 526.279312"></polyline>
                        <polyline id="path404" points="1.79597801 515.77383 110.112117 532.969423 110.023179 532.92245 381.77236 827.207466 381.96029 827.411798 382.227222 827.330769 570.690061 769.792529 570.754699 769.772566 570.812155 769.737336 833.287161 610.277368 832.857436 610.324341 1020.01793 673.657859 1020.23459 673.730666 1020.41175 673.587399 1048.62282 650.853706 1048.52706 650.910073 1176.19987 597.263535 1176.23937 597.247095 1176.27169 597.222434 1223.13812 561.671019 1222.89872 561.726212 1436.15757 603.975958 1223.01842 561.137877 1222.87478 561.110868 1222.76705 561.19307 1175.87189 596.699861 1175.94371 596.65876 1048.21943 650.181994 1048.16795 650.203131 1048.12366 650.238361 1019.89105 672.945045 1020.28486 672.87576 833.185416 609.361397 832.960378 609.285066 832.75569 609.409544 570.253153 768.824888 570.374051 768.769695 381.967472 826.488781 382.422335 826.612085 110.249055 532.715769 110.212546 532.677017 110.160237 532.667622 1.79597801 515.77383"></polyline>
                        <polyline id="path406" points="1.95121791 505.268348 107.294002 525.574719 107.212127 525.530095 376.394205 814.112604 376.568968 814.300496 376.819143 814.240606 566.677692 768.856595 566.760285 768.836632 566.833303 768.790833 830.204867 607.080865 829.808658 607.140755 1018.01175 655.934996 1018.21284 655.986666 1018.37564 655.85749 1046.89075 633.13554 1046.76267 633.203651 1174.49653 593.032454 1174.55039 593.014839 1174.59468 592.981958 1222.18052 557.820418 1221.96506 557.875611 1436.06181 588.600564 1222.04885 557.281405 1221.92915 557.26379 1221.82142 557.337772 1174.20087 592.452339 1174.29783 592.403018 1046.52446 632.45091 1046.45384 632.472048 1046.39519 632.519021 1017.85733 655.213962 1018.22122 655.136457 830.066014 606.159022 829.855341 606.103829 829.669805 606.218912 566.271906 767.884257 566.427517 767.819669 376.613257 813.388048 377.039392 813.514875 107.434172 525.324588 107.400057 525.288184 107.35098 525.27879 1.95121791 505.268348"></polyline>
                        <polyline id="path408" points="2.10599097 494.762866 104.476726 518.180015 104.401913 518.136565 371.017248 801.016569 371.177647 801.18802 371.41226 801.148093 562.664126 767.917138 562.765871 767.899523 562.85445 767.845504 827.122573 603.88671 826.762274 603.955995 1016.00795 638.210958 1016.19349 638.243839 1016.33953 638.128756 1045.15868 615.417374 1044.99469 615.493705 1172.79079 588.79785 1172.86022 588.782584 1172.91648 588.742657 1221.22291 553.969817 1221.01942 554.026185 1435.96605 573.226345 1221.07927 553.426106 1220.97154 553.415538 1220.87578 553.482474 1172.52865 588.207166 1172.65433 588.150799 1044.83309 614.722176 1044.74092 614.740965 1044.6679 614.798507 1015.82601 637.481705 1016.15638 637.399502 826.944219 602.957821 826.751501 602.922591 826.583919 603.027106 562.289462 766.943625 562.480983 766.870817 371.261437 800.288489 371.655253 800.418839 104.619409 517.933408 104.587568 517.900527 104.543159 517.889958 2.10599097 494.762866"></polyline>
                        <polyline id="path410" points="2.26028523 484.258559 101.659569 510.784137 101.590382 510.74421 365.639093 787.920533 365.787522 788.076718 366.00418 788.053232 558.65056 766.976506 558.771457 766.963589 558.875597 766.899001 824.040279 600.692555 823.717087 600.768885 1014.00536 620.484572 1014.17175 620.502187 1014.30461 620.398847 1043.4278 597.700383 1043.22431 597.781411 1171.08147 584.560897 1171.16765 584.551503 1171.23947 584.502181 1220.27728 550.120391 1220.08576 550.17441 1435.87029 557.852125 1220.1097 549.571983 1220.01393 549.567285 1219.93014 549.626001 1170.85643 583.959645 1171.01443 583.902103 1043.14172 596.996964 1043.0292 597.008707 1042.93823 597.077992 1013.79229 619.748273 1014.09155 619.662547 823.82362 599.758969 823.64766 599.74018 823.498034 599.834125 558.309412 766.002993 558.53445 765.925488 365.90842 787.190105 366.27231 787.322804 101.804526 510.542227 101.77508 510.511695 101.735818 510.501126 2.26028523 484.258559"></polyline>
                        <polyline id="path412" points="2.41412463 473.753077 98.8424115 503.389434 98.7806459 503.350681 360.263333 774.824498 360.398594 774.965417 360.594904 774.956022 554.636994 766.032351 554.777043 766.02648 554.896744 765.951323 820.960378 597.500748 820.6719 597.579428 1012.00277 602.757012 1012.1512 602.760535 1012.26731 602.671287 1041.69573 579.983392 1041.45274 580.065594 1169.37214 580.320422 1169.47628 580.320422 1169.56246 580.261706 1219.31967 546.26979 1219.15209 546.322635 1435.77453 542.476731 1219.14012 545.717859 1219.05633 545.719033 1218.97254 545.770703 1169.18421 579.713298 1169.37334 579.655756 1041.45394 579.275276 1041.31868 579.275276 1041.20975 579.357478 1011.75978 602.014841 1012.02431 601.929115 820.699431 596.562465 820.54382 596.557768 820.412149 596.641145 554.329363 765.063536 554.587916 764.981334 360.555402 774.096418 360.888171 774.227943 98.9888055 503.151046 98.9630698 503.124037 98.9265611 503.113468 2.41412463 473.753077"></polyline>
                        <polyline id="path414" points="2.56983136 463.247595 96.0252545 495.992381 95.9705512 495.957152 354.887572 761.727288 355.009667 761.854115 355.188021 761.857638 550.623428 765.087022 550.78263 765.089371 550.916694 765.003646 817.879281 594.307768 817.626713 594.387621 1009.99898 585.027103 1010.12945 585.021232 1010.23239 584.941378 1039.96606 562.267574 1039.68117 562.346254 1167.66281 576.075249 1167.78251 576.088166 1167.88426 576.02123 1218.36206 542.419189 1218.21842 542.469685 1435.67877 527.101337 1218.17054 541.864909 1218.09872 541.870781 1218.0269 541.915405 1167.51319 575.46695 1167.73344 575.412932 1039.76616 561.55711 1039.60815 561.540669 1039.48127 561.636964 1009.72486 584.281409 1009.95948 584.196858 817.577635 593.367136 817.441177 593.374182 817.325067 593.448164 550.349313 764.124079 550.640186 764.040702 355.202385 761.003906 355.502834 761.131907 96.173444 495.759866 96.1505811 495.736379 96.1187407 495.72581 2.56983136 463.247595"></polyline>
                        <polyline id="path416" points="2.72412562 452.742113 93.2080974 488.596503 93.159858 488.564796 349.511812 748.630078 349.621936 748.742813 349.781138 748.755731 546.612256 764.138171 546.788216 764.152262 546.936645 764.055968 814.799381 591.115961 814.581526 591.194641 1007.99638 567.294846 1008.1089 567.281928 1008.19748 567.213817 1038.23519 544.550583 1037.9096 544.623391 1165.95349 571.827727 1166.08995 571.857085 1166.20725 571.780755 1217.41643 538.568588 1217.28476 538.615561 1435.59498 511.727118 1217.21294 538.01196 1217.14112 538.021355 1217.08127 538.058933 1165.84097 571.220603 1166.09354 571.174805 1038.07718 543.843641 1037.89883 543.804889 1037.7516 543.915275 1007.69234 566.547977 1007.89344 566.466949 814.45584 590.174155 814.337336 590.189421 814.237985 590.254009 546.369263 763.184621 546.692455 763.102419 349.848171 747.912568 350.117497 748.03822 93.3591598 488.369859 93.3380924 488.348721 93.309484 488.338152 2.72412562 452.742113"></polyline>
                        <polyline id="path418" points="2.87843185 442.236631 90.3909404 481.199451 90.3502421 481.171267 344.136051 735.532868 344.235403 735.632686 344.37665 735.652649 542.601084 763.188144 542.792605 763.213979 542.956595 763.10829 811.718284 587.924155 811.535142 587.999311 1005.9914 549.561414 1006.08596 549.543799 1006.16377 549.486257 1036.50431 526.834766 1036.14162 526.897005 1164.24655 567.576683 1164.39618 567.623656 1164.53025 567.540279 1216.45882 534.717988 1216.35109 534.761438 1435.49922 496.352898 1216.24336 534.161359 1216.18351 534.170754 1216.13563 534.203635 1164.16875 566.97543 1164.45124 566.939026 1036.38701 526.132522 1036.1895 526.069108 1036.02192 526.193586 1005.65743 548.814545 1005.8286 548.738214 811.334045 586.984697 811.234693 587.003487 811.150902 587.05868 542.389213 762.245164 542.743528 762.166484 344.491562 734.824752 344.732161 734.943359 90.5428406 480.979853 90.5256037 480.961064 90.5016636 480.951669 2.87843185 442.236631"></polyline>
                        <polyline id="path420" points="3.03272611 431.732324 87.5736636 473.802399 87.538711 473.777738 338.761488 722.435659 338.850066 722.523733 338.973358 722.547219 538.592306 762.235769 538.799388 762.276871 538.976545 762.160613 808.639581 584.733523 808.487561 584.801633 1003.98641 531.826808 1004.06421 531.80567 1004.12885 531.758697 1034.77464 509.120123 1034.37484 509.167096 1162.54202 563.32329 1162.70361 563.3914 1162.85084 563.299803 1215.50122 530.867387 1215.41743 530.906139 1435.40346 480.977504 1215.27379 530.309584 1215.2259 530.321327 1215.17802 530.348337 1162.49653 562.729083 1162.80536 562.705596 1034.69324 508.423751 1034.47898 508.333328 1034.29224 508.471898 1003.62372 531.079939 1003.76496 531.011828 808.214643 583.79524 808.13205 583.817552 808.062623 583.86335 538.409164 761.305707 538.793403 761.231724 339.134954 721.738112 339.346824 721.848498 87.7280776 473.588672 87.7116786 473.573406 87.6930053 473.564011 3.03272611 431.732324"></polyline>
                        <polyline id="path422" points="3.18843284 421.226842 84.7565066 466.405346 84.7284966 466.384208 333.386924 709.338449 333.46473 709.413605 333.571263 709.440615 534.584725 761.281046 534.806171 761.338588 534.996495 761.211761 805.560878 581.542891 805.438783 581.602781 1001.98142 514.091027 1002.04127 514.069889 1002.09394 514.031137 1033.04616 491.404306 1032.61404 491.436013 1160.84227 559.068722 1161.00985 559.156796 1161.17384 559.059328 1214.55558 527.01796 1214.47179 527.049667 1435.30769 465.603284 1214.31618 526.460157 1214.2683 526.470726 1214.23239 526.493038 1160.82551 558.482736 1161.15708 558.473341 1032.99588 490.717328 1032.76845 490.597547 1032.56257 490.749035 1001.59 513.345333 1001.70252 513.286617 805.095242 580.608131 805.0318 580.630443 804.974344 580.668021 534.430311 760.367424 534.839687 760.299313 333.775952 708.651471 333.960291 708.754811 84.9117585 466.198666 84.8991899 466.185748 84.8842273 466.177528 3.18843284 421.226842"></polyline>
                        <polyline id="path424" points="3.34227224 410.72136 81.940786 459.008294 81.9182822 458.990679 328.012361 696.240065 328.079393 696.304652 328.171563 696.33401 530.579538 760.326322 530.812954 760.39913 531.015249 760.264083 802.482174 578.353433 802.388808 578.402755 999.972843 496.352898 1000.01953 496.334109 1000.06022 496.303576 1031.31648 473.689664 1030.85444 473.703755 1159.14371 554.811806 1159.31847 554.922192 1159.49683 554.817678 1213.59797 523.166185 1213.53812 523.193195 1435.21193 450.229065 1213.3466 522.610731 1213.31069 522.6213 1213.28675 522.63774 1159.15329 554.236388 1159.5064 554.243434 1031.29494 473.01208 1031.05913 472.861767 1030.83169 473.026172 999.55389 495.610727 999.642469 495.562579 801.979431 577.422196 801.930354 577.442159 801.886065 577.472692 530.450261 759.429141 530.884775 759.366902 328.415752 695.567178 328.573757 695.661124 82.0973546 458.807485 82.0867012 458.79809 82.0749705 458.791044 3.34227224 410.72136"></polyline>
                        <polyline id="path426" points="3.49703333 400.215878 79.1245866 451.611242 79.1081875 451.598324 322.638994 683.141681 322.696451 683.196874 322.773059 683.226232 526.576745 759.370424 526.819737 759.460847 527.034002 759.316406 799.402274 575.162801 799.336439 575.201554 997.963067 478.614769 997.996584 478.598328 998.026509 478.577191 1029.58681 455.975021 1029.09723 455.971498 1157.44875 550.556064 1157.6271 550.686414 1157.81862 550.577202 1212.64037 519.316759 1212.60446 519.336722 1435.11617 434.853671 1212.37703 518.761304 1212.35309 518.769525 1212.34112 518.781268 1157.48227 549.991216 1157.85094 550.012353 1029.5916 455.306832 1029.3486 455.127161 1029.10202 455.303309 997.520175 477.87612 997.582419 477.838542 798.863621 574.237435 798.828908 574.253876 798.797786 574.276188 526.471408 758.489683 526.927468 758.435664 323.051962 682.482886 323.187224 682.567437 79.2811551 451.417478 79.2742125 451.409258 79.2647561 451.404561 3.49703333 400.215878"></polyline>
                        <polyline id="path428" points="3.65133956 389.710397 76.3082674 444.213015 76.2979732 444.204795 317.263234 670.043296 317.313508 670.090269 317.37695 670.117279 522.576346 758.413352 522.827718 758.52139 523.053952 758.367554 796.323571 571.973343 796.281676 571.999178 995.952095 460.875465 995.972444 460.863722 995.992793 460.84963 1027.85713 438.260378 1027.34362 438.23924 1155.75618 546.299148 1155.93573 546.450636 1156.14162 546.336726 1211.69473 515.466158 1211.65882 515.479075 1435.03238 419.478277 1211.41942 514.913052 1211.40745 514.918924 1211.38351 514.92597 1155.81005 545.744868 1156.19548 545.782447 1027.88466 437.602758 1027.63688 437.392554 1027.37234 437.580446 995.485262 460.141514 995.524763 460.115679 795.751402 571.052675 795.728658 571.064418 795.708309 571.079684 522.491359 757.5514 522.970161 757.505602 317.688172 669.399768 317.80069 669.47375 76.4663921 444.026298 76.4616041 444.0216 76.4560978 444.016903 3.65133956 389.710397"></polyline>
                        <path d="M3.80657946,379.206089 L43.7847371,412.257373 L63.7738039,428.781254 L73.7543323,437.059047 L83.2752099,445.859414 L159.444984,516.263522 L311.888671,656.944912 L311.930566,656.983665 L311.982037,657.008326 L518.577144,757.457454 L518.835698,757.583107 L519.072705,757.418702 L769.878085,584.882662 L785.545716,574.088297 L793.384918,568.696986 L801.449157,563.648577 L833.709705,543.451418 L898.228406,503.0571 L962.748305,462.663957 C973.485462,455.90691 984.290848,449.253204 994.971746,442.411605 L1026.12865,420.545735 L1025.59359,420.505809 L1154.06601,542.043406 L1154.24675,542.213683 L1154.46341,542.096251 L1188.81992,523.486775 L1205.99698,514.18145 L1210.29423,511.856293 C1211.74261,511.10825 1213.2269,510.437712 1214.68725,509.724899 L1223.49723,505.506736 L1293.97703,471.71328 L1434.93662,404.104057 L1293.7855,471.339846 L1223.22191,504.966548 L1214.39997,509.176491 C1212.93962,509.88813 1211.45533,510.558667 1210.00695,511.304362 L1205.7097,513.62717 L1188.52067,522.917229 L1154.13902,541.499695 L1154.53523,541.55254 L1026.17653,419.896336 L1025.92516,419.659123 L1025.64147,419.857583 L994.483367,441.683526 C983.797681,448.514555 972.985113,455.157693 962.240774,461.904171 L897.684965,502.239773 L833.126762,542.573025 L800.848259,562.740826 L792.779232,567.783363 L784.935242,573.166454 L769.256839,583.946727 L518.512506,756.613117 L519.008067,756.575539 L312.32079,656.31665 L312.414157,656.380063 L159.813662,515.85251 L83.4589505,445.652733 L73.9142525,436.877027 L63.9094248,428.626243 L43.8745126,412.151684 L3.80657946,379.206089" id="path430"></path>
                        <polyline id="path432" points="3.96087372 368.700607 306.515304 643.846528 306.54882 643.878235 306.589519 643.900547 514.579139 756.499208 514.844875 756.64365 515.092655 756.471024 1024.39778 402.831093 1023.84476 402.774725 1152.37823 537.787665 1152.55778 537.975556 1152.78641 537.854601 1434.84086 388.729838 1152.46561 537.253348 1152.87379 537.320284 1024.46481 402.191087 1024.21224 401.925691 1023.9106 402.13472 514.533653 755.674834 515.045972 755.645476 306.953409 643.233532 307.027623 643.286377 3.96087372 368.700607"></polyline>
                        <polyline id="path434" points="3.74672908 364.724354 301.568072 630.083478 301.600391 630.112836 301.64109 630.133974 512.120486 743.638037 512.387419 743.781304 512.634002 743.607504 1002.97853 397.837877 1002.44227 397.810868 1153.19818 528.881609 1153.37414 529.034271 1153.58122 528.926233 1434.84086 381.982185 1153.26401 528.322632 1153.64825 528.36843 1003.01324 397.160293 1002.75589 396.937172 1002.47818 397.133284 512.070212 742.814837 512.584925 742.784305 302.000192 629.471656 302.072012 629.522152 3.74672908 364.724354"></polyline>
                        <polyline id="path436" points="3.53443981 360.746926 296.622037 616.320428 296.65316 616.347437 296.691464 616.368575 509.661833 730.775691 509.928765 730.920133 510.176546 730.74281 981.559277 392.844661 981.039776 392.841138 1154.01693 519.969681 1154.1893 520.095334 1154.37723 519.997865 1434.84086 375.235707 1154.06242 519.39309 1154.42391 519.421273 981.564065 392.134196 981.304315 391.943956 981.043367 392.130674 509.609164 729.957189 510.122681 729.923134 297.046975 615.710955 297.115205 615.757928 3.53443981 360.746926"></polyline>
                        <polyline id="path438" points="3.32029518 356.770673 291.676003 602.556203 291.705928 602.582038 291.741838 602.600827 507.203179 717.91452 507.472506 718.057787 507.71909 717.878116 960.141223 387.85262 959.634889 387.86906 1154.83448 511.053057 1154.99967 511.157572 1155.17324 511.069497 1434.84086 368.489229 1154.86202 510.462373 1155.20077 510.477639 960.116086 387.112797 959.856335 386.948392 959.608555 387.129237 507.145723 717.098367 507.661633 717.063137 292.093758 601.949079 292.159594 601.993703 3.32029518 356.770673"></polyline>
                        <polyline id="path440" points="3.10753907 352.793246 286.729968 588.793153 286.758696 588.816639 286.792212 588.834254 504.744526 705.052175 505.01505 705.196616 505.261633 705.012248 938.723169 382.859404 938.22641 382.893459 1155.64965 502.135258 1155.80765 502.222158 1155.96925 502.14113 1434.84086 361.742751 1155.66042 501.531657 1155.98002 501.537528 938.6705 382.093746 938.41075 381.950479 938.173742 382.126627 504.683479 704.241893 505.200586 704.201966 287.139344 588.188377 287.201589 588.229478 3.10753907 352.793246"></polyline>
                        <polyline id="path442" points="2.89339444 348.816992 281.78513 575.028928 281.811464 575.05124 281.842586 575.067681 502.285873 692.188655 502.55879 692.334271 502.804177 692.147554 917.305114 377.867362 916.817932 377.915509 1156.46241 493.213936 1156.61443 493.286744 1156.76406 493.212762 1434.84086 354.996273 1156.45882 492.602114 1156.76047 492.599766 917.226112 377.077044 916.966361 376.951391 916.737733 377.125191 502.221234 691.38307 502.738342 691.341969 282.186128 574.427676 282.243584 574.465254 2.89339444 348.816992"></polyline>
                        <polyline id="path444" points="2.67970467 344.839565 276.839095 561.265878 276.864232 561.285842 276.894158 561.301108 499.827219 679.326309 500.101334 679.471925 500.346721 679.281685 895.888257 372.874146 895.40706 372.936385 1157.27399 484.29144 1157.41882 484.352505 1157.56007 484.284394 1434.84086 348.248621 1157.25723 483.671398 1157.54451 483.663178 895.78292 372.061516 895.524367 371.95113 895.301723 372.123755 499.756596 678.526596 500.277294 678.481972 277.232911 560.6658 277.286776 560.702204 2.67970467 344.839565"></polyline>
                        <polyline id="path446" points="2.46696054 340.863311 271.894258 547.501654 271.917001 547.520443 271.944532 547.534535 497.368566 666.463964 497.645075 666.60958 497.890461 666.415817 874.472597 367.882105 873.994991 367.956087 1158.08436 475.366595 1158.22321 475.419439 1158.35488 475.354852 1434.84086 341.502142 1158.05563 474.740682 1158.32735 474.728938 874.342123 367.047162 874.082372 366.949693 873.864517 367.122319 497.294352 665.670122 497.816247 665.621975 272.278497 546.905098 272.328771 546.937979 2.46696054 340.863311"></polyline>
                        <polyline id="path448" points="2.25327077 336.887058 266.948223 533.738603 266.970966 533.75387 266.994906 533.767961 494.908716 653.601618 495.188816 653.748409 495.434202 653.548774 853.056936 362.888889 852.581724 362.97344 1158.89354 466.44175 1159.02521 466.486374 1159.15089 466.426484 1434.84086 334.755664 1158.85523 465.811139 1159.11379 465.794699 852.902522 362.033983 852.641575 361.945909 852.426113 362.119708 494.83091 652.813649 495.3552 652.761978 267.32528 533.144397 267.371963 533.173755 2.25327077 336.887058"></polyline>
                        <polyline id="path450" points="2.0400598 332.910805 262.003385 519.974379 262.023734 519.988471 262.04528 520.000214 492.45126 640.739273 492.732556 640.886063 492.976746 640.682905 831.642473 357.895673 831.167261 357.991968 1159.70032 457.515731 1159.8272 457.553309 1159.94571 457.496942 1434.84086 328.009186 1159.65364 456.880423 1159.90022 456.861634 831.464119 357.021978 831.19958 356.943298 830.988907 357.119447 492.366272 639.958349 492.892955 639.901982 262.372063 519.383695 262.412762 519.40953 2.0400598 332.910805"></polyline>
                        <polyline id="path452" points="1.82637003 328.933377 257.059744 506.210154 257.077699 506.223072 257.096851 506.233641 489.992606 627.875753 490.277494 628.024892 490.520486 627.814688 810.22801 352.901283 809.751601 353.008146 1160.5071 448.588537 1160.6292 448.621418 1160.74291 448.568574 1434.84086 321.262708 1160.45324 447.949706 1160.68905 447.929743 810.025715 352.011147 809.75998 351.938339 809.549306 352.119185 489.902831 627.103049 490.430711 627.041985 257.417649 505.622993 257.454757 505.645306 1.82637003 328.933377"></polyline>
                        <polyline id="path454" points="1.61362589 324.957124 252.114906 492.447104 252.130468 492.457673 252.147226 492.465893 487.533953 615.012233 487.822432 615.162546 488.065424 614.947646 788.814743 347.905719 788.334743 348.024325 1161.31269 439.661344 1161.4288 439.689528 1161.53773 439.640206 1434.84086 314.51623 1161.25164 439.020164 1161.47668 438.999027 788.589706 347.000317 788.319182 346.93338 788.109706 347.118923 487.438192 614.24775 487.969664 614.181988 252.464433 491.862292 252.496752 491.881081 1.61362589 324.957124"></polyline>
                        <polyline id="path456" points="1.39993612 320.980871 247.172463 478.682879 247.184433 478.692274 247.198797 478.69932 485.0753 602.149888 485.367369 602.301375 485.610362 602.078254 767.402674 342.910154 766.917886 343.040504 1162.11708 430.732976 1162.2296 430.757637 1162.33374 430.710664 1434.84086 307.768578 1162.05005 430.089448 1162.2667 430.06831 767.153697 341.989486 766.877188 341.928421 766.668909 342.119836 484.974751 601.393625 485.508616 601.321991 247.511216 478.10159 247.536353 478.118031 1.39993612 320.980871"></polyline>
                        <polyline id="path458" points="1.18578551 317.003443 242.227625 464.919829 242.238398 464.926875 242.249171 464.932747 482.616646 589.287542 482.913504 589.440204 483.154103 589.210037 745.990605 337.913415 745.499832 338.055508 1162.92147 421.804608 1163.0292 421.825746 1163.12855 421.782296 1434.84086 301.022099 1162.84965 421.159906 1163.05673 421.137594 745.718884 336.97983 745.435193 336.922288 745.226914 337.121923 482.508916 588.539499 483.046372 588.461994 242.556802 464.342063 242.578348 464.352632 1.18578551 317.003443"></polyline>
                        <polyline id="path460" points="0.973036584 313.02719 237.06972 451.031127 480.157993 576.424022 480.459639 576.579033 480.700237 576.339471 724.58093 332.915502 724.081777 333.070513 1163.72466 412.876241 1163.8276 412.89503 1163.92336 412.852754 1434.84086 294.275621 1163.64925 412.230364 1163.84675 412.206877 724.284072 331.970173 723.992002 331.917329 723.78492 332.125184 480.04308 575.686548 480.585325 575.603172 237.388124 450.455709 0.973036584 313.02719"></polyline>
                        <path d="M0.759351602,309.049762 L118.963867,374.588656 L178.066828,407.359277 L207.629321,423.722276 L222.413561,431.900252 C227.351216,434.608238 232.231416,437.423087 237.276802,439.930264 L477.700537,563.560503 L478.006971,563.719036 L478.247569,563.468906 L703.171254,327.916415 L702.662526,328.086691 L1164.52785,403.947873 L1164.6272,403.964313 L1164.71937,403.924386 L1434.84086,287.529143 L1164.44765,403.299647 L1164.63798,403.276161 L702.849259,326.960517 L702.54881,326.910021 L702.339334,327.129619 L477.577245,562.834772 L478.12308,562.743175 L237.586827,439.353672 C232.540244,436.850018 227.65765,434.039866 222.716403,431.337752 L207.924982,423.173867 L178.34214,406.85197 L119.148566,374.251626 L0.759351602,309.049762" id="path462"></path>
                        <path d="M0.54613465,305.073509 L118.956326,366.982575 C158.440694,387.594269 197.859347,408.328093 237.431216,428.773033 L475.240686,550.698157 L475.556696,550.859039 L475.793704,550.597166 L681.762776,322.914979 L681.242078,323.101696 L1165.32985,395.018331 L1165.42561,395.032422 L1165.51419,394.994844 L1434.84086,280.782665 L1165.24725,394.370105 L1165.43159,394.346619 L681.415644,321.950861 L681.104422,321.903888 L680.893749,322.136403 L475.109016,549.98417 L475.660836,549.883178 L237.732862,428.192918 L0.54613465,305.073509" id="path464"></path>
                        <polyline id="path466" points="0.332449667 301.096082 118.982062 359.219134 178.30623 388.278898 207.977651 402.789992 222.812164 410.0473 237.516204 417.565307 472.782033 537.834637 473.106422 538.000217 473.341036 537.723077 660.356692 317.911194 659.822826 318.115526 1166.13064 386.088788 1166.22401 386.101706 1166.309 386.066476 1434.84086 274.035013 1166.04566 385.439389 1166.22401 385.417076 659.983225 316.941204 659.658836 316.897754 659.448163 317.145536 472.641983 537.134742 473.199789 537.024355 237.80947 416.982843 223.098249 409.480102 208.256553 402.236886 178.559996 387.771591 119.150361 358.879755 0.332449667 301.096082"></polyline>
                        <polyline id="path468" points="0.118297996 297.119828 119.03497 351.280719 178.491766 378.360577 208.226628 391.882892 215.662438 395.260241 217.521391 396.105752 219.340842 397.032292 222.978548 398.886546 237.528174 406.303562 470.32338 524.971118 470.657345 525.141394 470.888367 524.847814 638.939834 312.894492 638.403575 313.11409 1166.93264 377.160421 1167.02241 377.170989 1167.10381 377.136934 1434.84086 267.288535 1166.84526 376.509846 1167.01643 376.487534 638.548413 311.947988 638.218039 311.908061 638.012154 312.167587 470.173754 524.286488 470.738741 524.164359 237.811864 405.721098 223.25386 398.317 219.614957 396.467444 217.795506 395.542078 215.935356 394.698915 208.495955 391.327437 178.734759 377.85327 119.19477 350.942515 0.118297996 297.119828"></polyline>
                        <path d="M0.178148345,286.864477 L115.713633,339.943818 L173.479896,366.483488 L202.370868,379.738057 L209.594808,383.04847 L211.399895,383.877541 L213.167875,384.782943 L216.703835,386.593747 L230.847675,393.838137 L457.143131,509.747211 L457.454353,509.908093 L457.687769,509.643871 L545.670211,409.861757 L589.661432,359.9707 C597.044574,351.699952 604.203875,343.234267 611.424224,334.823775 L633.063725,309.567638 L632.562179,309.769622 L1042.66172,350.300161 L1144.98192,362.298205 L1157.78032,363.739098 C1159.93374,363.939907 1162.00815,364.26402 1164.25015,364.326259 C1165.40286,364.14189 1166.39518,363.820126 1167.43658,363.507757 C1168.4696,363.197736 1169.48705,362.858357 1170.51049,362.524849 C1178.65493,359.789854 1186.7096,356.825866 1194.76546,353.866576 C1210.8688,347.922159 1226.92067,341.842696 1242.96057,335.733874 C1275.01643,323.478653 1307.02441,311.073119 1339.00845,298.61474 C1370.98051,286.122306 1402.97652,273.689762 1434.84086,260.938977 C1402.94061,273.595816 1370.90869,285.936763 1338.90071,298.334077 C1306.88077,310.700859 1274.83688,323.010099 1242.74511,335.177246 C1226.70521,341.268452 1210.64137,347.331475 1194.54042,353.258277 C1186.48336,356.208173 1178.42511,359.163941 1170.29623,361.884844 C1168.27568,362.523675 1166.18451,363.271718 1164.19748,363.647501 C1162.16496,363.582913 1159.97204,363.259975 1157.85573,363.055643 L1145.06212,361.601833 L1042.7491,349.500447 L632.677091,308.611741 L632.373052,308.581208 L632.174348,308.81255 L610.564773,334.086301 C603.351606,342.503839 596.203077,350.974221 588.827117,359.252015 L544.888565,409.185347 L457.009066,509.052013 L457.553704,508.948672 L231.131366,393.259197 L216.980344,386.028898 L213.44199,384.221617 L211.672813,383.318564 L209.867725,382.490667 L202.638997,379.1873 L173.720494,365.985575 L115.872715,339.611485 L0.178148345,286.864477" id="path470"></path>
                        <path d="M0.236596064,276.607951 L112.392895,328.606916 L168.469223,354.605224 L196.511516,367.593222 L203.524783,370.836698 L205.278399,371.648155 L206.994908,372.532419 L210.429122,374.300947 L224.165979,381.372713 L443.960488,494.523305 L444.253754,494.674792 L444.48358,494.439928 L536.429313,400.905205 L582.401581,354.13667 C590.168963,346.442514 597.461132,338.296244 604.913701,330.301462 L627.188812,306.239611 L626.718388,306.423979 L1038.94022,338.039068 C1073.15309,341.960128 1107.38272,345.957519 1141.63508,349.668375 L1154.48975,351.004754 C1156.63359,351.214957 1158.77623,351.420463 1160.9476,351.55551 C1162.1087,351.549639 1163.15249,351.310077 1164.22261,351.098699 C1165.28197,350.872055 1166.33294,350.618402 1167.37793,350.348308 C1175.72226,348.13706 1183.9086,345.457258 1192.09852,342.792722 C1208.46281,337.406108 1224.71817,331.745878 1240.97354,326.030454 C1273.43638,314.55146 1305.79149,302.76127 1338.11069,290.871263 L1386.55358,272.917058 L1410.73313,263.851295 C1418.77702,260.78749 1426.86879,257.827025 1434.84086,254.588245 C1426.85682,257.803538 1418.76505,260.740517 1410.70919,263.779661 L1386.49373,272.774965 L1338.01493,290.585903 C1305.65982,302.384313 1273.25683,314.067639 1240.77004,325.465605 C1224.51468,331.163414 1208.24735,336.80603 1191.89384,342.173854 C1183.7087,344.827821 1175.51518,347.498229 1167.20795,349.690688 C1166.16895,349.959607 1165.12635,350.209738 1164.08137,350.431685 C1163.04236,350.63954 1161.96745,350.869707 1160.96915,350.872055 C1158.84326,350.735834 1156.69942,350.529153 1154.55798,350.316601 L1141.71169,348.96848 C1107.46291,345.222394 1073.25723,341.192122 1039.01803,337.233483 L626.808164,305.274318 L626.528064,305.252006 L626.336543,305.458687 L604.092553,329.53463 C596.650758,337.535284 589.370559,345.686251 581.61036,353.387452 L535.689563,400.198264 L443.846772,493.818712 L444.369864,493.734161 L224.44967,380.798469 L210.704434,373.740796 L207.269022,371.97579 L205.55012,371.093875 L203.796504,370.282418 L196.780843,367.047162 L168.707427,354.116706 L112.549583,328.280455 L0.236596064,276.607951" id="path472"></path>
                        <path d="M0.295043185,266.351426 L109.07072,317.26884 L163.456156,342.72696 L190.653362,355.448387 L197.453561,358.623753 C198.596703,359.136931 199.715905,359.692385 200.820743,360.281895 L204.153212,362.006973 L217.484284,368.906113 L430.779042,479.299398 L431.053156,479.441491 L431.280588,479.233636 L527.182431,392.002672 L575.134549,348.384842 C583.287367,341.283719 590.696843,333.405194 598.391207,325.823774 L621.312703,302.911583 L620.874598,303.078337 L1035.21155,325.772103 C1069.55369,329.601566 1103.92935,333.521452 1138.33015,337.024454 C1142.63099,337.458953 1146.93304,337.880534 1151.24346,338.256317 C1153.39448,338.458301 1155.55628,338.619183 1157.72526,338.742486 C1159.95887,338.796505 1162.09673,338.373749 1164.23099,337.985049 C1172.73334,336.274062 1181.05134,333.894887 1189.36576,331.52628 C1205.97304,326.709212 1222.45583,321.483481 1238.90271,316.173198 C1271.78451,305.498614 1304.51069,294.353127 1337.17702,283.056152 C1353.50421,277.400619 1369.81942,271.694589 1386.11069,265.932193 L1410.52964,257.233992 L1422.72715,252.829112 C1426.77303,251.320108 1430.8668,249.925014 1434.84086,248.238688 C1430.8668,249.912096 1426.76106,251.296622 1422.71518,252.792708 L1410.5057,257.162359 L1386.06281,265.787751 C1369.7476,271.500826 1353.42042,277.158708 1337.06929,282.76492 C1304.37902,293.970298 1271.61693,304.999527 1238.71119,315.600129 C1222.26431,320.892797 1205.78152,326.099739 1189.18261,330.896843 C1180.87658,333.253707 1172.55259,335.624662 1164.10052,337.315686 C1161.99139,337.699689 1159.84755,338.110701 1157.75159,338.055508 C1155.60655,337.929856 1153.45673,337.767799 1151.30451,337.564642 C1147.00127,337.184162 1142.70042,336.759057 1138.40077,336.319861 C1104.00237,332.78163 1069.66501,328.830037 1035.28097,324.960647 L620.938039,301.93807 L620.68188,301.923978 L620.498738,302.105998 L597.611955,325.029932 C589.928364,332.61605 582.532055,340.496923 574.387617,347.607441 L526.486969,391.266373 L430.684478,478.585411 L431.186024,478.519649 L217.766778,368.337742 L204.429721,361.451519 L201.093661,359.729964 C199.99002,359.141629 198.868424,358.587349 197.726479,358.075344 L190.920294,354.90585 L163.690769,342.249011 L109.225015,316.949425 L0.295043185,266.351426" id="path474"></path>
                        <path d="M0.354426724,256.096074 L105.748546,305.930764 L158.444285,330.847522 C175.97805,339.214564 193.715307,347.174116 210.801391,356.439514 L417.598793,464.075492 L417.851361,464.207016 L418.075202,464.027345 L517.924775,383.152984 L567.849562,342.716391 L574.090759,337.662111 C574.605472,337.234657 575.141731,336.831865 575.639686,336.384449 L577.113203,335.022235 L580.061432,332.29546 L591.853152,321.391883 L615.436593,299.582381 L615.030808,299.732694 L1031.79888,313.511011 L1031.76656,313.508662 C1066.25713,317.298198 1100.74531,321.084211 1135.29094,324.386404 C1139.61094,324.78215 1143.92975,325.190814 1148.25813,325.516101 C1150.41872,325.705167 1152.59249,325.819076 1154.76266,325.944729 C1156.97713,326.017537 1159.1473,325.74392 1161.30311,325.455037 C1169.91678,324.170329 1178.35329,322.105871 1186.77663,320.026147 C1203.60296,315.7798 1220.27728,311.001485 1236.92765,306.11161 C1270.19249,296.26962 1303.25383,285.805239 1336.2673,275.137701 C1352.76206,269.794537 1369.23288,264.383263 1385.69174,258.896832 L1410.33812,250.594377 L1422.64336,246.365645 L1428.77203,244.210765 C1430.79498,243.455676 1432.88974,242.80745 1434.84086,241.889131 C1432.87777,242.801579 1430.79498,243.442758 1428.77203,244.191975 L1422.61942,246.329241 L1410.31418,250.520395 L1385.63189,258.748867 C1369.17303,264.185977 1352.67827,269.547929 1336.15957,274.840597 C1303.13413,285.416538 1270.02491,295.757615 1236.7481,305.531495 C1220.1097,310.403755 1203.42341,315.162107 1186.61503,319.387316 C1178.20246,321.455297 1169.76236,323.509185 1161.20735,324.775104 C1159.07189,325.061639 1156.91608,325.327035 1154.7902,325.253053 C1152.63079,325.125052 1150.47259,325.011143 1148.31319,324.819728 C1143.99199,324.489744 1139.67439,324.077557 1135.35678,323.678288 C1100.8279,320.34204 1066.33972,316.518448 1031.85873,312.694857 L1031.84197,312.692508 L1031.82641,312.692508 L615.069112,298.601822 L614.834498,298.593602 L614.662129,298.75331 L591.116993,320.572207 L579.344424,331.481655 L576.400983,334.209605 L574.928664,335.572992 C574.431906,336.020409 573.896844,336.423201 573.38213,336.850654 L567.148115,341.910806 L517.273603,382.390849 L417.524578,463.353284 L418.000987,463.305137 L211.083885,355.87584 L198.151416,349.162243 C195.982439,348.070124 193.872115,346.861747 191.655257,345.867096 L185.060943,342.764538 L158.675308,330.380142 L105.900566,305.618395 L0.354426724,256.096074" id="path476"></path>
                        <path d="M0.412874204,245.839549 L102.425534,294.591514 L153.430021,318.968084 C170.403587,327.148408 187.562689,334.961171 204.118499,343.971741 L404.417346,448.850411 L404.65196,448.973715 L404.869815,448.818705 L568.130859,331.671896 L568.150011,331.658978 L568.167966,331.644886 L609.560484,296.252005 L609.18582,296.387052 L1027.96845,301.227606 L1027.92775,301.225257 C1062.59189,304.926719 1097.25843,308.602346 1131.9884,311.707252 C1136.33234,312.071292 1140.67508,312.445901 1145.02621,312.744179 C1147.19758,312.921501 1149.38212,313.007227 1151.56187,313.132879 C1153.76316,313.233871 1155.95728,313.075337 1158.13463,312.871005 C1166.83568,311.959732 1175.39189,310.212341 1183.92177,308.41328 C1200.96955,304.729433 1217.85932,300.406755 1234.70122,295.943158 C1268.38501,286.949028 1301.84136,277.183369 1335.21393,267.162882 C1351.90022,262.142657 1368.56256,257.035532 1385.18899,251.834461 L1410.11069,243.941845 L1422.53563,239.898655 L1428.73612,237.823629 L1431.8244,236.752648 C1432.82989,236.365121 1433.9072,236.068018 1434.84086,235.539573 C1433.89523,236.064495 1432.82989,236.358075 1431.81243,236.743253 L1428.72415,237.80484 L1422.52366,239.861077 L1410.08675,243.866688 L1385.15308,251.684148 C1368.50271,256.834723 1351.8284,261.890178 1335.13014,266.861081 C1301.72166,276.789971 1268.22939,286.420584 1234.54561,295.355997 C1217.70371,299.800805 1200.81394,304.10352 1183.78172,307.767403 C1175.26381,309.553547 1166.71,311.290368 1158.0676,312.185201 C1155.907,312.38601 1153.74162,312.539847 1151.5882,312.437681 C1149.41803,312.30968 1147.24665,312.22278 1145.07528,312.044283 C1140.73134,311.741308 1136.39219,311.362002 1132.05065,310.993265 C1097.33863,307.854303 1062.67449,304.142272 1028.01873,300.405581 L1027.99718,300.403232 L1027.97683,300.403232 L609.200184,295.265574 L608.987117,295.263226 L608.825521,295.401796 L567.471308,330.836953 L567.506021,330.808769 L404.365875,448.123506 L404.817147,448.091799 L204.399795,343.415112 L191.873112,336.871792 C187.73027,334.626489 183.455756,332.644234 179.198001,330.624401 L153.65865,318.511272 L102.576117,294.287365 L0.412874204,245.839549" id="path478"></path>
                        <path d="M0.471321684,235.583023 L99.1019227,283.253438 L148.415757,307.086297 C164.83032,315.079904 181.408873,322.744702 197.433212,331.502793 L391.2359,433.62533 L391.453756,433.740414 L391.662035,433.60889 L560.827916,326.771451 L560.850659,326.756185 L560.873402,326.739744 L603.684374,292.920454 L603.34203,293.041409 L1024.13564,288.943026 L1024.08775,288.940678 C1058.94222,292.54702 1093.79907,296.107563 1128.72296,299.010486 C1133.09204,299.354563 1137.45992,299.690419 1141.83498,299.968733 C1144.01952,300.127266 1146.21364,300.203597 1148.40296,300.324552 C1150.60546,300.430241 1152.81274,300.348039 1155.00446,300.212992 C1163.77493,299.599996 1172.43528,298.162626 1181.06212,296.633659 C1198.31219,293.492349 1215.40546,289.634702 1232.45084,285.603256 C1266.52964,277.471078 1300.38101,268.435847 1334.13663,259.095292 C1351.01443,254.410923 1367.86829,249.625562 1384.68625,244.726292 C1393.08924,242.276657 1401.49223,239.796489 1409.87129,237.268175 L1422.42789,233.421097 L1428.68824,231.43297 L1431.80046,230.398393 C1432.81792,230.016738 1433.91917,229.741947 1434.84086,229.188842 C1433.91917,229.739598 1432.81792,230.009692 1431.80046,230.387824 L1428.68824,231.414181 L1422.41592,233.383519 L1409.84735,237.191844 C1401.45632,239.694323 1393.05333,242.148656 1384.63837,244.57363 C1367.80844,249.42123 1350.94261,254.154921 1334.05283,258.78762 C1300.27328,268.037752 1266.386,276.929716 1232.3072,285.009049 C1215.26182,289.021706 1198.16855,292.859389 1180.94241,295.978388 C1172.32875,297.496786 1163.67438,298.922412 1154.95897,299.522491 C1150.60665,299.877136 1146.25314,299.515445 1141.87927,299.262966 C1137.51139,298.981128 1133.1471,298.640575 1128.78162,298.291801 C1093.87568,295.354823 1059.02002,291.757876 1024.17753,288.11513 L1024.15239,288.112781 L1024.12965,288.112781 L603.332454,291.930501 L603.139736,291.931675 L602.988913,292.050282 L560.213851,325.914196 L560.259338,325.881315 L391.207172,432.894902 L391.63211,432.878462 L197.713312,330.952036 L185.593611,324.581341 C181.58603,322.398277 177.451567,320.457123 173.333861,318.486612 L148.639597,306.643577 L99.2492743,282.956335 L0.471321684,235.583023" id="path480"></path>
                        <path d="M0.531172057,225.327672 L95.7774739,271.913013 L143.400296,295.205684 C159.253462,303.009052 175.253861,310.528234 190.746728,319.033846 L378.054454,418.401424 L378.254355,418.507113 L378.454255,418.397901 L553.521383,321.868658 L553.551308,321.853392 L553.577642,321.833428 L597.807067,289.588903 L597.498239,289.694592 L1020.30521,276.658447 L1020.25015,276.656099 C1055.30451,280.160275 1090.36486,283.597514 1125.49703,286.29728 C1129.88885,286.629613 1134.28426,286.924368 1138.68326,287.18859 C1143.07628,287.404665 1147.49444,287.736998 1151.91618,287.508005 C1160.74291,287.126351 1169.49543,285.979039 1178.21204,284.701377 C1195.64167,282.077942 1212.93962,278.685327 1230.17653,275.090728 C1264.65034,267.834594 1298.89673,259.5568 1333.03538,250.925536 C1350.1047,246.594638 1367.15009,242.148656 1384.1476,237.568801 C1392.64635,235.276525 1401.1451,232.952543 1409.61991,230.569844 L1422.32016,226.93297 L1428.64036,225.037614 L1431.78849,224.04179 L1433.35657,223.510996 C1433.84735,223.304316 1434.42191,223.181012 1434.84086,222.839284 C1434.42191,223.179837 1433.84735,223.300793 1433.3446,223.506299 L1431.78849,224.031221 L1428.64036,225.017651 L1422.30819,226.894217 L1409.59597,230.492339 C1401.12116,232.849202 1392.62241,235.14735 1384.11169,237.412616 C1367.09024,241.939626 1350.04485,246.335113 1332.96356,250.613166 C1298.80097,259.154008 1264.51867,267.277966 1230.04486,274.490649 C1212.80795,278.066459 1195.52197,281.439111 1178.11269,284.040233 C1169.40925,285.307327 1160.6675,286.442896 1151.88985,286.811633 C1147.50521,287.035928 1143.12296,286.700072 1138.72396,286.480474 C1134.33214,286.211554 1129.94032,285.912102 1125.55089,285.575072 C1090.43788,282.840077 1055.37992,279.365259 1020.33633,275.825853 L1020.30761,275.82233 L1020.28007,275.823505 L597.463526,288.594253 L597.292354,288.600125 L597.152304,288.701116 L552.958789,320.99144 L553.013852,320.95621 L378.048469,417.667473 L378.44827,417.66395 L191.026828,318.48896 C175.531567,309.985697 159.496455,302.5358 143.619348,294.774708 L95.9224315,271.625305 L0.531172057,225.327672" id="path482"></path>
                        <path d="M0.589619536,215.071146 L92.4529054,260.573763 L138.383637,283.323897 C153.675408,290.941722 169.098849,298.305893 184.060245,306.564898 L364.874205,403.175169 L365.057347,403.273812 L365.246475,403.183389 L546.217243,316.964691 L546.250759,316.94825 L546.283079,316.925938 L591.929761,286.256178 L591.652055,286.34895 L1016.47479,264.373868 L1016.41135,264.371519 C1051.67878,267.764135 1086.95698,271.067502 1122.30581,273.574679 C1126.72516,273.890571 1131.1481,274.147748 1135.56985,274.406098 C1139.99399,274.597513 1144.4289,274.906359 1148.87339,274.772487 C1157.75279,274.564632 1166.58431,273.680367 1175.38351,272.63757 C1192.98072,270.496781 1210.46182,267.568023 1227.89024,264.409098 C1262.7471,258.031357 1297.37653,250.541533 1331.91019,242.651265 C1349.18301,238.689104 1366.40795,234.597767 1383.60894,230.356117 C1392.20346,228.232944 1400.786,226.072192 1409.35657,223.845678 C1413.64186,222.730072 1417.92715,221.600375 1422.20046,220.431925 L1428.59248,218.636387 L1431.77652,217.682838 L1433.3446,217.16731 C1433.84735,216.961804 1434.44585,216.851418 1434.84086,216.489727 C1434.44585,216.850244 1433.84735,216.958281 1433.3446,217.162613 L1431.76455,217.672269 L1428.58051,218.617598 L1422.18849,220.393172 C1417.91518,221.54753 1413.62989,222.66431 1409.3446,223.765824 C1400.76206,225.966503 1392.16755,228.100245 1383.56106,230.19641 C1366.36007,234.386389 1349.11119,238.423707 1331.83837,242.333024 C1297.29274,250.132869 1262.6274,257.461811 1227.78251,263.804322 C1210.35408,266.94211 1192.87897,269.850904 1175.30331,271.970555 C1166.51608,273.002784 1157.69773,273.875305 1148.86022,274.073765 C1144.44566,274.201766 1140.03349,273.890571 1135.60935,273.693285 C1131.19119,273.430237 1126.77304,273.168363 1122.35608,272.848948 C1087.0276,270.305367 1051.75179,266.964422 1016.49514,263.536577 L1016.46282,263.533054 L1016.4317,263.534228 L591.595796,285.259179 L591.443776,285.266225 L591.316893,285.351951 L545.70253,316.069858 L545.768365,316.032279 L364.889766,402.442392 L365.263233,402.450613 L184.339148,306.025884 C169.372963,297.777449 153.911218,290.484911 138.599099,282.905839 L92.5955887,260.294275 L0.589619536,215.071146" id="path484"></path>
                        <path d="M0.648067016,204.815795 L89.127499,249.232164 L133.365782,271.440936 C148.094959,278.876741 162.94623,286.075333 177.371367,294.093601 L351.692759,387.950088 L351.861537,388.040511 L352.039891,387.967703 L538.91071,312.0572 L538.951408,312.041934 L538.988515,312.018448 L586.053651,282.922279 L585.805871,283.002133 L1012.64436,252.088115 L1012.57254,252.088115 C1030.31938,253.747431 1048.071,255.326894 1065.831,256.813585 C1083.591,258.29323 1101.35937,259.711811 1119.1493,260.842683 C1123.59498,261.139786 1128.04666,261.372302 1132.49833,261.615386 C1136.9488,261.799755 1141.40646,262.080418 1145.87608,262.018179 C1154.80576,261.940674 1163.7091,261.286576 1172.58491,260.459854 C1190.33773,258.762959 1207.99598,256.288663 1225.61593,253.563063 C1260.83189,248.061365 1295.85633,241.384172 1330.77303,234.265434 C1348.2254,230.68845 1365.65383,226.970548 1383.04635,223.084717 C1391.73662,221.138866 1400.4269,219.154263 1409.09323,217.092154 C1413.4264,216.059925 1417.75957,215.010081 1422.06879,213.917962 C1424.23538,213.370728 1426.38999,212.8141 1428.5446,212.230462 L1431.75258,211.321537 L1433.3446,210.823625 L1434.13463,210.544136 C1434.37403,210.427878 1434.69722,210.371511 1434.84086,210.140169 C1434.69722,210.370336 1434.37403,210.42553 1434.13463,210.541787 L1433.3446,210.817753 L1431.75258,211.310968 L1428.53263,212.209324 C1426.37802,212.78709 1424.22341,213.336673 1422.06879,213.878035 C1417.7476,214.956063 1413.41443,215.992989 1409.06929,217.011126 C1400.40296,219.046225 1391.71268,221.004994 1383.01044,222.923835 C1365.60595,226.755647 1348.17752,230.418356 1330.70121,233.941321 C1295.77254,240.970811 1260.72416,247.477728 1225.52017,252.95359 C1207.91219,255.658052 1190.25394,258.11121 1172.52147,259.788142 C1163.65643,260.60547 1154.76626,261.247824 1145.87249,261.31476 C1141.4268,261.372302 1136.98471,261.08929 1132.53424,260.89905 C1128.08735,260.651268 1123.64047,260.41523 1119.19718,260.112255 C1101.41683,258.962594 1083.65324,257.526398 1065.89803,256.027964 C1048.14162,254.522483 1030.39239,252.924232 1012.65394,251.246126 L1012.61803,251.242603 L1012.58212,251.246126 L585.728065,281.924106 L585.594,281.9335 L585.481482,282.00396 L538.447468,311.14945 L538.522879,311.110697 L351.732261,387.21966 L352.078196,387.237275 L177.65027,293.562808 C163.209572,285.573898 148.327178,278.430499 133.576456,271.035795 L89.2663519,248.96207 L0.648067016,204.815795" id="path486"></path>
                        <path d="M0.707917389,194.559269 L85.8006562,237.89174 L128.34673,259.5568 C142.512116,266.809411 156.792415,273.847121 170.681292,281.619956 L338.511313,372.723833 L338.665727,372.80721 L338.832111,372.750843 L531.60657,307.14971 L531.652057,307.134444 L531.693952,307.109783 L580.177542,279.587206 L579.960883,279.655316 L1008.81274,239.803535 L1008.73374,239.803535 C1026.60027,241.400613 1044.47159,242.903745 1062.3513,244.315279 C1080.23219,245.723291 1098.12027,247.043229 1116.0275,248.102467 C1124.98591,248.586287 1133.93114,249.171099 1142.92187,249.250953 C1151.90421,249.273265 1160.87339,248.816454 1169.82222,248.185844 C1187.72226,246.889392 1205.55408,244.857816 1223.34162,242.560843 C1258.91668,237.923446 1294.31219,232.08237 1329.62391,225.763345 C1347.2678,222.586805 1364.88775,219.259952 1382.47179,215.751078 C1391.26979,213.994293 1400.05583,212.192884 1408.81792,210.308097 C1413.19897,209.363943 1417.58001,208.399825 1421.94909,207.389908 C1424.12765,206.882601 1426.3062,206.364725 1428.48475,205.816317 C1429.57403,205.541526 1430.65134,205.259688 1431.74061,204.957888 C1432.27927,204.8064 1432.80595,204.649041 1433.3446,204.478765 C1433.60794,204.393039 1433.88326,204.303791 1434.13463,204.203973 C1434.37403,204.087715 1434.70919,204.033697 1434.84086,203.790612 C1434.70919,204.032522 1434.37403,204.086541 1434.13463,204.201625 C1433.87129,204.300268 1433.60794,204.388342 1433.3446,204.474067 C1432.80595,204.641995 1432.2673,204.797006 1431.72864,204.947319 C1430.65134,205.246771 1429.56206,205.525085 1428.48475,205.796353 C1426.3062,206.337716 1424.11568,206.848546 1421.93712,207.348807 C1417.56804,208.345806 1413.187,209.295832 1408.80595,210.227069 C1400.03189,212.084846 1391.24585,213.858072 1382.44785,215.587848 C1364.85184,219.041528 1347.21992,222.313188 1329.56406,225.435709 C1294.24037,231.664312 1258.82092,237.326891 1223.25782,241.945498 C1205.48226,244.222508 1187.65404,246.234121 1169.77314,247.509434 C1160.83508,248.129476 1151.87907,248.576893 1142.92426,248.545186 C1133.97902,248.455938 1125.01823,247.860556 1116.0706,247.368516 C1098.17414,246.290488 1080.29085,244.951762 1062.41474,243.524961 C1044.53982,242.095811 1026.6709,240.572716 1008.81274,238.956849 L1008.77324,238.953326 L1008.73374,238.956849 L579.860335,278.587858 L579.745422,278.599601 L579.643676,278.657143 L531.190012,306.230216 L531.277393,306.191464 L338.573558,371.998102 L338.894356,372.025112 L170.957801,281.099732 C157.044984,273.369172 142.740745,266.374912 128.552615,259.165751 L85.9372348,237.629866 L0.707917389,194.559269" id="path488"></path>
                        <path d="M0.765898036,184.302744 L82.4733346,226.548966 L123.326481,247.672665 C136.929273,254.739733 150.632615,261.620084 163.992415,269.141614 L325.331064,357.498753 L325.471114,357.575083 L325.626725,357.531634 L524.302431,302.238697 L524.352705,302.224605 L524.399388,302.199944 L574.301432,276.252132 L574.113502,276.308499 L1004.98232,227.517782 L1004.89613,227.518956 C1040.88057,230.534614 1076.88177,233.328326 1112.94042,235.355205 C1121.95868,235.807319 1130.96735,236.338112 1140.01074,236.477856 C1149.04815,236.575325 1158.08197,236.286442 1167.10022,235.829631 C1185.14032,234.894871 1203.13613,233.28605 1221.09124,231.407135 C1257.00146,227.618773 1292.78002,222.632604 1328.46281,217.143824 C1346.29822,214.381819 1364.12166,211.464804 1381.89722,208.351677 C1390.79099,206.793353 1399.67278,205.188055 1408.54261,203.49116 C1412.97154,202.640951 1417.40046,201.76843 1421.81742,200.844239 C1424.01991,200.381556 1426.23438,199.905956 1428.4249,199.3963 C1429.52615,199.141472 1430.6274,198.87725 1431.71667,198.590716 C1432.25533,198.447448 1432.80595,198.297135 1433.3446,198.13273 C1433.60794,198.049353 1433.88326,197.962453 1434.1466,197.864985 C1434.386,197.747553 1434.72116,197.695882 1434.84086,197.43988 C1434.72116,197.695882 1434.386,197.746378 1434.1466,197.861462 C1433.88326,197.95893 1433.60794,198.044656 1433.3446,198.128033 C1432.80595,198.291264 1432.25533,198.439228 1431.71667,198.581321 C1430.61543,198.864333 1429.52615,199.123858 1428.4249,199.375162 C1426.22241,199.878946 1424.01991,200.346326 1421.80545,200.803138 C1417.38849,201.714411 1412.95957,202.571666 1408.51867,203.407783 C1399.64884,205.077669 1390.76705,206.655957 1381.87328,208.186098 C1364.08575,211.242857 1346.26231,214.104679 1328.41493,216.810317 C1292.72017,222.211022 1256.92964,227.010475 1221.01942,230.788268 C1185.14511,234.388738 1149.02182,237.554709 1112.98112,234.617731 C1076.94042,232.553273 1040.94282,229.720809 1004.97155,226.667573 L1004.92726,226.66405 L1004.88416,226.668747 L573.993801,275.253959 L573.895647,275.264527 L573.807068,275.310326 L523.933752,301.312157 L524.031907,301.273404 L325.413658,356.778893 L325.709319,356.811774 L164.261742,268.640179 C150.879198,261.15975 137.151917,254.3205 123.527578,247.294533 L82.6057236,226.297662 L0.765898036,184.302744" id="path490"></path>
                        <path d="M0.824345516,174.047392 L79.1446963,215.207367 L118.303119,235.786181 C131.344037,242.66888 144.471617,249.390698 157.30234,256.662098 L312.149618,342.271323 L312.277698,342.342957 L312.420142,342.31125 L516.999488,297.326509 L517.053354,297.314766 L517.106022,297.290105 L568.425322,272.91471 L568.268514,272.961683 L1001.1507,215.232028 L1001.05853,215.234377 C1037.30391,218.104419 1073.57204,220.69967 1109.88566,222.600897 C1146.20885,225.167964 1182.65414,223.007212 1218.86481,220.113684 C1255.11019,217.15087 1291.24785,213.034872 1327.30171,208.402173 C1345.32864,206.068796 1363.34361,203.57806 1381.31069,200.884166 C1390.30021,199.53487 1399.27777,198.135079 1408.24336,196.637819 C1412.73213,195.887427 1417.20894,195.113549 1421.67378,194.282129 C1423.91218,193.866419 1426.13862,193.435443 1428.36505,192.968063 C1429.47827,192.733199 1430.57952,192.490114 1431.69273,192.221195 C1432.24336,192.087322 1432.79398,191.945229 1433.33263,191.785521 C1433.60794,191.705667 1433.88326,191.622291 1434.1466,191.523648 C1434.386,191.409738 1434.73313,191.360417 1434.84086,191.090323 C1434.73313,191.359243 1434.386,191.40739 1434.1466,191.521299 C1433.88326,191.618768 1433.60794,191.702145 1433.33263,191.780824 C1432.79398,191.938183 1432.24336,192.077927 1431.68076,192.210626 C1430.57952,192.476023 1429.4663,192.715584 1428.35308,192.946926 C1426.13862,193.408434 1423.90021,193.83119 1421.66181,194.241028 C1417.19697,195.058356 1412.72016,195.818142 1408.23139,196.553267 C1399.2658,198.022344 1390.27627,199.393952 1381.28675,200.716238 C1363.3077,203.353764 1345.29273,205.788133 1327.2658,208.063969 C1291.19997,212.608594 1255.05034,216.532002 1218.81693,219.491293 C1182.60027,222.344895 1146.21603,224.464545 1109.92396,221.8599 C1073.62591,219.91992 1037.36257,217.285917 1001.12915,214.378296 L1001.08247,214.374773 L1001.03698,214.380645 L568.127268,271.917711 L568.044674,271.929454 L567.97046,271.964683 L516.676296,296.394098 L516.784027,296.357694 L312.253758,341.560859 L312.524281,341.599611 L157.563288,256.179451 C144.712216,248.947978 131.563089,242.266088 118.499548,235.423315 L79.2742125,214.964283 L0.824345516,174.047392" id="path492"></path>
                        <path d="M0.884195888,163.790867 L75.814023,203.86342 L113.27904,223.899697 C125.757603,230.596853 138.308226,237.161312 150.608675,244.181407 L298.969369,327.046242 L299.085479,327.11083 L299.215953,327.088518 L509.696546,292.413147 L509.756396,292.402578 L509.812656,292.379092 L562.549213,269.578462 L562.421133,269.614866 L997.319077,202.946275 L997.219726,202.949798 C1033.74282,205.654261 1070.28506,208.0534 1106.86681,209.838369 C1116.01434,210.24351 1125.15588,210.696798 1134.31658,210.918745 C1143.47608,211.118379 1152.63678,211.09137 1161.79269,210.931662 C1180.1069,210.604026 1198.40795,209.769084 1216.68625,208.691056 C1253.24286,206.52091 1289.72765,203.289177 1326.15259,199.536045 C1344.37104,197.644212 1362.56555,195.598544 1380.73613,193.343846 C1389.82141,192.2118 1398.89473,191.031607 1407.95607,189.746899 C1412.49273,189.101022 1417.01742,188.432833 1421.54211,187.701231 C1423.79248,187.334842 1426.05483,186.953188 1428.3052,186.531606 C1429.43039,186.319054 1430.54361,186.098281 1431.66879,185.846977 C1432.21942,185.723673 1432.78201,185.588626 1433.33263,185.437138 C1433.60794,185.360807 1433.88326,185.279779 1434.1466,185.183485 C1434.29024,185.137686 1434.42191,185.081319 1434.55358,185.021428 C1434.66131,184.953318 1434.84086,184.895776 1434.84086,184.739591 C1434.84086,184.895776 1434.66131,184.952143 1434.54161,185.020254 C1434.42191,185.07897 1434.29024,185.135338 1434.1466,185.179962 C1433.88326,185.276256 1433.60794,185.35611 1433.33263,185.432441 C1432.78201,185.58158 1432.21942,185.715453 1431.66879,185.836408 C1430.54361,186.083015 1429.41842,186.301439 1428.29323,186.510468 C1426.04286,186.925004 1423.79248,187.299612 1421.53014,187.658955 C1417.00545,188.376465 1412.48076,189.030563 1407.9441,189.661173 C1398.88276,190.918872 1389.79747,192.070882 1380.71218,193.172395 C1362.54161,195.370725 1344.33513,197.358852 1326.11668,199.194317 C1289.69174,202.854678 1253.19498,205.898519 1216.65034,208.066317 C1180.10571,210.17305 1143.46052,211.41196 1106.90272,209.093849 C1070.33533,207.270127 1033.79668,204.832235 997.286758,202.08902 L997.236484,202.085497 L997.187406,202.092543 L562.260734,268.582637 L562.193702,268.593206 L562.132654,268.620215 L509.420037,291.477213 L509.53495,291.443157 L299.092661,326.343998 L299.339244,326.387448 L150.864834,243.71755 C138.542839,236.736207 125.969473,230.210501 113.469244,223.550923 L75.9417437,203.630904 L0.884195888,163.790867" id="path494"></path>
                        <path d="M0.942643368,153.535515 L72.4825119,192.518298 L108.252446,212.010864 C120.167578,218.522478 132.142441,224.929577 143.912615,231.698367 L285.787923,311.818813 L285.89326,311.878703 L286.014157,311.864612 L502.3948,287.497436 L502.459439,287.490391 L502.520486,287.466904 L556.675497,266.239865 L556.573752,266.269223 L993.488653,190.660521 L993.383317,190.665218 C1030.19249,193.18179 1067.02202,195.389515 1103.88027,197.06762 C1113.09723,197.462192 1122.3082,197.8826 1131.53473,198.136253 C1140.76007,198.376989 1149.9866,198.446274 1159.21194,198.411044 C1177.66381,198.334713 1196.1097,197.849719 1214.54361,197.149823 C1251.41144,195.740637 1288.24336,193.395516 1325.0274,190.545438 C1343.41343,189.105719 1361.79947,187.521559 1380.14959,185.726021 C1389.33064,184.826491 1398.51169,183.874116 1407.66879,182.814878 C1412.25333,182.28291 1416.8259,181.723933 1421.39847,181.101543 C1423.68475,180.786824 1425.95907,180.458014 1428.23338,180.085754 C1429.37054,179.897863 1430.50769,179.699403 1431.64485,179.47041 C1432.20745,179.356501 1432.77004,179.230848 1433.33263,179.087581 C1433.60794,179.014773 1433.88326,178.937268 1434.15857,178.842148 C1434.29024,178.797523 1434.42191,178.74233 1434.55358,178.681266 C1434.67328,178.613155 1434.84143,178.549742 1434.84143,178.390034 C1434.84143,178.549742 1434.67328,178.611981 1434.55358,178.680091 C1434.42191,178.741156 1434.29024,178.795175 1434.15857,178.839799 C1433.88326,178.934919 1433.60794,179.010076 1433.32066,179.082884 C1432.77004,179.223802 1432.20745,179.347106 1431.64485,179.459841 C1430.50769,179.686485 1429.37054,179.880248 1428.23338,180.063442 C1425.95907,180.429831 1423.67278,180.75042 1421.3865,181.058093 C1416.8259,181.666391 1412.24136,182.211277 1407.65682,182.729152 C1398.49972,183.759033 1389.31867,184.682049 1380.13762,185.55457 C1361.77553,187.291392 1343.38949,188.81801 1325.00346,190.199013 C1288.20745,192.953971 1251.3875,195.115898 1214.51967,196.521561 C1196.09174,197.201493 1177.65064,197.66535 1159.20955,197.722892 C1149.9902,197.747553 1140.76965,197.668873 1131.55508,197.418743 C1122.34172,197.15452 1113.12596,196.723544 1103.91498,196.320752 C1067.0675,194.601545 1030.24277,192.355067 993.445561,189.799743 L993.391696,189.79622 L993.339028,189.804441 L556.395398,265.248738 L556.343926,265.256958 L556.293652,265.275747 L502.161384,286.560328 L502.285873,286.53097 L285.930367,311.129486 L286.154207,311.175285 L144.160395,231.254473 C132.368675,224.522087 120.373463,218.153741 108.438102,211.677356 L72.6064022,192.296351 L0.942643368,153.535515" id="path496"></path>
                        <path d="M1.00109085,143.27899 L69.1496841,181.173176 L103.223698,200.120857 C114.575638,206.448102 125.973064,212.695493 137.214161,219.214153 L272.607674,296.592558 L272.702238,296.646577 L272.812362,296.639531 L495.096646,282.580552 L495.162481,282.577029 L495.22712,282.553542 L550.800585,262.901269 L550.725173,262.922406 L989.657033,178.373593 L989.545711,178.380639 C1026.65534,180.689356 1063.78172,182.704492 1100.92845,184.294523 C1138.0704,186.139383 1175.28536,186.194576 1212.46082,185.499377 C1249.6279,184.817096 1286.79498,183.357415 1323.91418,181.429178 C1342.47977,180.452143 1361.03338,179.345932 1379.587,178.031866 C1388.85184,177.370723 1398.11667,176.661432 1407.38151,175.839407 C1412.00196,175.426046 1416.63438,174.988024 1421.25483,174.477194 C1423.56505,174.221192 1425.87528,173.948749 1428.17353,173.628159 C1429.32266,173.466103 1430.47178,173.294652 1431.62091,173.089146 C1432.18351,172.983457 1432.75807,172.871896 1433.32066,172.738024 C1433.60794,172.667564 1433.88326,172.594756 1434.15857,172.501985 C1434.30221,172.456186 1434.43388,172.404516 1434.56555,172.339928 C1434.67328,172.272992 1434.8648,172.202533 1434.84291,172.040476 C1434.84291,172.202533 1434.67328,172.271818 1434.56555,172.338754 C1434.43388,172.402168 1434.30221,172.453838 1434.15857,172.499636 C1433.88326,172.591233 1433.60794,172.662867 1433.32066,172.732152 C1432.75807,172.86485 1432.18351,172.975237 1431.60894,173.078577 C1430.47178,173.28056 1429.32266,173.448488 1428.17353,173.605847 C1425.86331,173.919391 1423.56505,174.185962 1421.25483,174.434918 C1416.63438,174.929308 1412.00196,175.354412 1407.36954,175.752507 C1398.11667,176.545174 1388.83987,177.225107 1379.57503,177.856892 C1361.02141,179.112242 1342.4678,180.160911 1323.90221,181.080405 C1286.77104,182.907649 1249.61593,184.191183 1212.44885,184.868767 C1175.27578,185.524038 1138.09194,185.427744 1100.96077,183.544132 C1063.82361,181.914173 1026.70082,179.85911 989.60197,177.510467 L989.545711,177.506944 L989.490649,177.517513 L550.530061,261.91249 L550.491757,261.92071 L550.45465,261.933628 L494.903928,281.645792 L495.034402,281.618782 L272.764482,295.916149 L272.96917,295.963122 L137.45476,218.790223 C126.192117,212.306793 114.775299,206.094631 103.403728,199.802616 L69.2693848,180.961798 L1.00109085,143.27899" id="path498"></path>
                        <path d="M1.06094122,133.022464 L65.8148213,169.82688 L98.1924364,188.228501 C108.980466,194.370203 119.799379,200.457887 130.51451,206.727591 L259.426228,281.366303 L259.512412,281.415624 L259.611764,281.415624 L487.797295,277.663667 L487.869115,277.662492 L487.93495,277.64018 L544.926869,259.562672 L544.878989,259.574415 L985.825412,166.08784 L985.709302,166.09606 C1023.13015,168.175784 1060.56297,169.999505 1098.01015,171.519078 C1135.45374,173.194835 1172.94401,173.762032 1210.4259,173.751463 C1247.90421,173.762032 1285.37054,173.17722 1322.83687,172.188441 C1341.57004,171.683483 1360.30321,171.066964 1379.0244,170.255507 C1388.385,169.845669 1397.7456,169.388858 1407.09423,168.819312 C1411.77453,168.532778 1416.44286,168.219234 1421.11119,167.831707 C1423.44535,167.635596 1425.77952,167.424218 1428.10171,167.159995 C1429.27478,167.027297 1430.43587,166.881681 1431.585,166.70201 C1432.17154,166.608064 1432.7461,166.510596 1433.32066,166.384943 C1433.60794,166.319181 1433.88326,166.25107 1434.17054,166.160648 C1434.30221,166.114849 1434.44585,166.064353 1434.57752,165.999766 C1434.68525,165.932829 1434.8648,165.85415 1434.84303,165.690919 C1434.8648,165.85415 1434.68525,165.931655 1434.57752,165.998591 C1434.44585,166.063179 1434.30221,166.112501 1434.17054,166.158299 C1433.88326,166.247548 1433.59597,166.314484 1433.32066,166.380246 C1432.7461,166.50355 1432.17154,166.599844 1431.585,166.691441 C1430.43587,166.867589 1429.26281,167.008508 1428.10171,167.137683 C1425.77952,167.39486 1423.44535,167.599192 1421.11119,167.787083 C1416.44286,168.160518 1411.76256,168.458795 1407.08226,168.732412 C1397.73363,169.2726 1388.37303,169.698879 1379.01243,170.079359 C1360.29124,170.833274 1341.55807,171.389902 1322.83687,171.836144 C1285.37054,172.720409 1247.89224,173.13377 1210.4259,173.118504 C1172.9476,173.087971 1135.47648,172.480847 1098.04127,170.765163 C1060.60007,169.205664 1023.17085,167.340841 985.759576,165.22119 L985.699726,165.217667 L985.64227,165.230585 L544.664725,258.577416 L544.639587,258.583288 L544.615647,258.591508 L487.644078,276.730081 L487.780536,276.707769 L259.599794,280.703986 L259.78533,280.752133 L130.74673,206.324798 C120.011967,200.08915 109.173663,194.034347 98.3664813,187.9267 L65.9308113,169.624897 L1.06094122,133.022464" id="path500"></path>
                        <path d="M1.1193887,122.765938 L62.4786418,158.478235 C82.9189805,170.403472 103.413065,182.238286 123.808875,194.237505 L246.245979,266.138874 L246.323784,266.184672 L246.41356,266.187021 L480.500337,272.744433 L480.574552,272.746782 L480.643978,272.726818 L511.63091,263.971076 L527.124974,259.593204 L534.87081,257.404269 L538.744326,256.309801 C540.044276,255.978642 541.357393,255.697979 542.663328,255.390307 L605.435596,240.920315 L730.971752,211.949799 L981.993791,153.800912 L981.871696,153.811481 L1095.13015,158.641466 C1114.00456,159.501069 1132.88855,160.161038 1151.77613,160.663648 C1170.66371,161.183872 1189.55369,161.591362 1208.43887,161.917823 C1246.2284,162.581315 1284.01792,162.861978 1321.80745,162.825574 C1340.69623,162.798565 1359.585,162.688178 1378.48575,162.396947 C1387.93014,162.247808 1397.37453,162.057568 1406.80695,161.753418 C1411.53513,161.598408 1416.25134,161.417562 1420.96755,161.160386 C1423.32565,161.028862 1425.68375,160.882072 1428.04186,160.680088 C1429.21493,160.577922 1430.38799,160.462839 1431.56106,160.309003 C1432.1476,160.230323 1432.73413,160.146946 1433.30869,160.029514 C1433.59597,159.970798 1433.88326,159.903862 1434.17054,159.819311 C1434.31418,159.773512 1434.44585,159.725365 1434.57752,159.658429 C1434.69722,159.592667 1434.87677,159.506941 1434.84552,159.340187 C1434.87677,159.506941 1434.69722,159.591492 1434.57752,159.657254 C1434.44585,159.724191 1434.31418,159.771163 1434.17054,159.816962 C1433.88326,159.901513 1433.59597,159.966101 1433.30869,160.024817 C1432.73413,160.1399 1432.1476,160.220929 1431.56106,160.298434 C1430.38799,160.447573 1429.21493,160.559133 1428.04186,160.657776 C1425.68375,160.852714 1423.32565,160.992458 1420.96755,161.116936 C1416.25134,161.357672 1411.53513,161.524426 1406.80695,161.66417 C1397.37453,161.938961 1387.91817,162.099843 1378.47378,162.219624 C1359.585,162.450966 1340.69623,162.502636 1321.80745,162.470929 C1284.01792,162.398121 1246.2284,161.953053 1208.45084,161.282515 C1189.56805,160.936091 1170.67927,160.508637 1151.79648,159.968449 C1132.91249,159.444702 1114.03329,158.76477 1095.16007,157.885203 L981.915985,152.931914 L981.852544,152.929565 L981.793891,152.943657 L730.69285,210.824799 L605.167466,239.869297 L542.408365,254.4074 C541.10243,254.716246 539.79051,254.998084 538.49056,255.330417 L534.615847,256.429582 L526.870012,258.627912 L511.373553,263.023398 L480.385424,271.816719 L480.527868,271.799104 L246.431515,265.491822 L246.599096,265.53997 L124.033912,193.85585 C103.600037,181.920045 83.0686064,170.148644 62.5909211,158.287995 L1.1193887,122.765938" id="path502"></path>
                        <path d="M1.17736935,112.510587 L233.064533,250.912619 L233.133959,250.95372 L233.215356,250.959591 L473.206971,267.8252 L473.279988,267.831071 L473.354203,267.812282 L725.78871,204.786437 L978.16217,141.513984 L978.036484,141.526902 C1054.19249,144.596579 1130.35568,147.4584 1206.53563,150.007853 C1244.61244,151.289038 1282.71318,152.416387 1320.81393,153.344101 C1339.85832,153.800912 1358.91468,154.206053 1377.95907,154.456183 C1387.48725,154.577139 1397.01543,154.66169 1406.54361,154.638203 C1411.3077,154.621763 1416.07179,154.581836 1420.83587,154.463229 C1423.21792,154.402165 1425.59996,154.322311 1427.97004,154.186089 C1429.16705,154.116804 1430.35208,154.034602 1431.53712,153.911298 C1432.12365,153.847885 1432.72216,153.775077 1433.30869,153.671737 C1433.59597,153.620066 1433.89523,153.56135 1434.18251,153.475625 C1434.31418,153.434524 1434.45782,153.384028 1434.58949,153.31944 C1434.70919,153.252504 1434.87677,153.151512 1434.8458,152.99063 C1434.87677,153.151512 1434.70919,153.252504 1434.58949,153.317091 C1434.45782,153.382853 1434.31418,153.433349 1434.17054,153.473276 C1433.89523,153.557827 1433.59597,153.615369 1433.30869,153.667039 C1432.72216,153.768031 1432.12365,153.83849 1431.53712,153.899555 C1430.35208,154.02051 1429.16705,154.09919 1427.97004,154.163777 C1425.59996,154.292953 1423.21792,154.364586 1420.83587,154.418605 C1416.07179,154.521945 1411.3077,154.547781 1406.54361,154.547781 C1397.01543,154.543083 1387.48725,154.428 1377.97104,154.276512 C1358.91468,153.967666 1339.87029,153.502634 1320.81393,152.985933 C1282.72515,151.946658 1244.63638,150.658427 1206.5476,149.371371 C1130.38202,146.739716 1054.22242,143.795691 978.072395,140.643812 L978.007756,140.641463 L977.946709,140.656729 L725.503822,203.656739 L473.124377,266.903357 L473.271609,266.889265 L233.263236,250.280833 L233.414059,250.327806 L1.17736935,112.510587" id="path504"></path>
                        <path d="M1.17736935,106.293963 L234.661341,237.02509 L234.728373,237.063843 L234.807376,237.06854 L474.353704,253.00526 L474.42313,253.009957 L474.492557,252.992342 L726.843274,193.47537 L979.136534,133.710616 L979.015636,133.72236 C1055.02202,136.619411 1131.03558,139.320351 1207.06231,141.725362 C1245.0673,142.936088 1283.08426,143.9965 1321.11318,144.869021 C1340.12166,145.298823 1359.13014,145.679303 1378.15059,145.912993 C1387.65483,146.026902 1397.15907,146.105582 1406.67528,146.082095 C1411.4274,146.066829 1416.17952,146.029251 1420.93164,145.915342 C1423.30171,145.8578 1425.68375,145.782643 1428.05383,145.654642 C1429.23887,145.58888 1430.4239,145.511375 1431.60894,145.395117 C1432.20745,145.335227 1432.79398,145.267116 1433.38051,145.169647 C1433.67976,145.120326 1433.96705,145.065133 1434.25433,144.985279 C1434.39797,144.947701 1434.54161,144.900728 1434.67328,144.838489 C1434.79298,144.777424 1434.97253,144.685827 1434.94128,144.524945 C1434.96056,144.685827 1434.79298,144.77625 1434.67328,144.837314 C1434.54161,144.898379 1434.39797,144.945352 1434.25433,144.98293 C1433.96705,145.06161 1433.66779,145.115629 1433.38051,145.163776 C1432.79398,145.258896 1432.20745,145.325832 1431.60894,145.383374 C1430.4239,145.496109 1429.23887,145.570091 1428.05383,145.63233 C1425.68375,145.753285 1423.30171,145.820222 1420.93164,145.870718 C1416.17952,145.969361 1411.4274,145.992847 1406.66331,145.992847 C1397.15907,145.986975 1387.65483,145.877763 1378.15059,145.734496 C1359.14211,145.440916 1340.12166,145.000545 1321.11318,144.510853 C1283.09623,143.525597 1245.09124,142.305477 1207.08625,141.08888 C1131.06192,138.601666 1055.05194,135.818524 979.05035,132.838095 L978.990499,132.835747 L978.930649,132.849839 L726.573947,192.34215 L474.274701,252.082243 L474.414751,252.0705 L234.851665,236.390956 L234.995306,236.433232 L1.17736935,106.293963" id="path506"></path>
                        <path d="M1.17736935,100.075577 L236.259346,223.139911 L236.323984,223.172792 L236.397002,223.177489 L475.500437,238.184146 L475.566272,238.188843 L475.632108,238.173577 L727.899034,182.165478 L980.109701,125.907249 L979.995985,125.917818 C1055.85394,128.643418 1131.71548,131.182302 1207.589,133.444045 C1245.52216,134.583137 1283.4673,135.576614 1321.41244,136.393941 C1340.385,136.796734 1359.35757,137.152553 1378.33014,137.370977 C1387.82241,137.476666 1397.30271,137.550648 1406.79498,137.527162 C1411.53513,137.511896 1416.28725,137.475492 1421.0274,137.368628 C1423.39747,137.313435 1425.76755,137.242976 1428.13762,137.122021 C1429.32266,137.059782 1430.50769,136.986974 1431.69273,136.877762 C1432.27927,136.821395 1432.8658,136.757981 1433.45233,136.666384 C1433.75159,136.620586 1434.03887,136.568915 1434.32615,136.493759 C1434.46979,136.458529 1434.61343,136.416254 1434.7451,136.357538 C1434.87677,136.298821 1435.05632,136.220142 1435.03455,136.058085 C1435.05632,136.220142 1434.87677,136.297647 1434.7451,136.356363 C1434.61343,136.413905 1434.46979,136.456181 1434.32615,136.49141 C1434.03887,136.564218 1433.75159,136.615888 1433.45233,136.661687 C1432.8658,136.749761 1432.27927,136.812 1431.69273,136.866019 C1430.50769,136.972882 1429.32266,137.042167 1428.13762,137.099709 C1425.76755,137.212444 1423.39747,137.275857 1421.0274,137.324004 C1416.28725,137.415601 1411.53513,137.437913 1406.79498,137.436739 C1397.30271,137.430868 1387.82241,137.327527 1378.33014,137.191306 C1359.35757,136.912992 1340.385,136.497282 1321.41244,136.035773 C1283.47927,135.104536 1245.5461,133.952527 1207.61294,132.807563 C1131.74062,130.462443 1055.88027,127.841357 980.029502,125.032379 L979.972045,125.03003 L979.915786,125.042948 L727.642875,181.02756 L475.426223,237.261129 L475.557893,237.25056 L236.438897,222.502254 L236.575356,222.539832 L1.17736935,100.075577" id="path508"></path>
                        <path d="M1.17736935,93.8576612 L237.857351,209.252382 L237.918398,209.282915 L237.986627,209.286438 L476.64717,223.364206 L476.708218,223.367729 L476.770462,223.354811 L728.953598,170.854412 L981.082868,118.103881 L980.976335,118.113276 C1056.68466,120.666251 1132.39778,123.044253 1208.11568,125.162729 C1245.97703,126.230187 1283.83837,127.156727 1321.71169,127.920036 C1340.64835,128.294645 1359.585,128.626978 1378.52166,128.828961 C1387.98999,128.92643 1397.45832,128.994541 1406.92665,128.971054 C1411.65483,128.956962 1416.39498,128.921733 1421.12316,128.821915 C1423.49323,128.770245 1425.86331,128.703309 1428.22141,128.5894 C1429.40645,128.531858 1430.59149,128.463747 1431.76455,128.360407 C1432.36306,128.308737 1432.94959,128.247672 1433.53612,128.163121 C1433.82341,128.120845 1434.12266,128.071524 1434.40994,128.002239 C1434.55358,127.969358 1434.69722,127.930605 1434.82889,127.875412 C1434.94859,127.821393 1435.14011,127.754457 1435.11822,127.591226 C1435.14011,127.754457 1434.94859,127.820219 1434.82889,127.874238 C1434.69722,127.929431 1434.55358,127.967009 1434.40994,128.001064 C1434.11069,128.068001 1433.82341,128.116148 1433.53612,128.157249 C1432.94959,128.240626 1432.35109,128.298168 1431.76455,128.348664 C1430.59149,128.448481 1429.40645,128.513069 1428.22141,128.567087 C1425.86331,128.672776 1423.49323,128.732667 1421.12316,128.777291 C1416.39498,128.861842 1411.65483,128.881806 1406.92665,128.881806 C1397.45832,128.87476 1387.98999,128.777291 1378.52166,128.64929 C1359.585,128.387416 1340.64835,127.995193 1321.72366,127.559519 C1283.85034,126.683475 1246.00097,125.599577 1208.13962,124.525072 C1132.41932,122.324393 1056.7098,119.863015 981.007457,117.228072 L980.953591,117.225254 L980.899726,117.236292 L728.712999,169.712971 L476.577744,222.43884 L476.702232,222.43062 L238.026129,208.612377 L238.154209,208.645258 L1.17736935,93.8576612" id="path510"></path>
                        <path d="M1.17736935,87.6406847 L239.455356,195.366028 L239.512812,195.391863 L239.57745,195.395386 L477.793903,208.543092 L477.85136,208.546615 L477.908816,208.536046 L730.008161,159.543345 L982.056035,110.300514 L981.956684,110.307794 C1057.51539,112.688966 1133.07768,114.907378 1208.65433,116.880355 C1246.43189,117.876063 1284.22141,118.736841 1322.01094,119.443782 C1340.91169,119.791381 1359.80046,120.099054 1378.70121,120.286945 C1388.15757,120.376194 1397.60196,120.439607 1407.05832,120.416121 C1411.77453,120.402029 1416.50271,120.369148 1421.23089,120.274028 C1423.58899,120.22588 1425.9471,120.163641 1428.3052,120.056778 C1429.49024,120.002759 1430.67528,119.939346 1431.84834,119.843052 C1432.43488,119.794904 1433.02141,119.738537 1433.60794,119.659857 C1433.9072,119.61993 1434.19448,119.574132 1434.48176,119.511893 C1434.6254,119.479012 1434.76904,119.444957 1434.91268,119.393286 C1435.03238,119.341616 1435.21247,119.287597 1435.21247,119.125541 C1435.21247,119.287597 1435.03238,119.340442 1434.91268,119.392112 C1434.76904,119.442608 1434.6254,119.476663 1434.48176,119.50837 C1434.19448,119.570609 1433.89523,119.615233 1433.60794,119.653986 C1433.02141,119.731491 1432.43488,119.78551 1431.84834,119.831308 C1430.66331,119.92408 1429.49024,119.98397 1428.3052,120.034466 C1425.9471,120.133109 1423.58899,120.188302 1421.21892,120.229403 C1416.50271,120.309257 1411.77453,120.326872 1407.05832,120.325698 C1397.60196,120.318652 1388.15757,120.22588 1378.70121,120.1061 C1359.81243,119.859492 1340.91169,119.491929 1322.02291,119.08444 C1284.23338,118.262415 1246.44386,117.245452 1208.6663,116.242699 C1133.09922,114.185405 1057.53933,111.885848 981.986609,109.422003 L981.936335,109.419772 L981.88606,109.430224 L729.781927,158.398381 L477.729265,207.618901 L477.845375,207.61068 L239.613361,194.721326 L239.735455,194.751858 L1.17736935,87.6406847" id="path512"></path>
                        <path d="M1.17736935,81.4226514 L241.053361,181.479674 L241.107226,181.501986 L241.167076,181.505509 L478.940636,193.723152 L478.994502,193.725501 L479.04717,193.716106 L731.062725,148.233453 L983.030399,102.495854 L982.937033,102.503135 C1058.34611,104.711917 1133.75877,106.768271 1209.18102,108.599039 C1246.88675,109.523347 1284.60446,110.315545 1322.31019,110.96882 C1341.17503,111.28941 1360.0279,111.573361 1378.89273,111.743637 C1388.32515,111.827132 1397.7456,111.883499 1407.17802,111.86013 C1411.89423,111.847213 1416.61044,111.815623 1421.32665,111.727549 C1423.68475,111.682573 1426.04286,111.623857 1428.40096,111.525214 C1429.57403,111.474835 1430.7471,111.41518 1431.93213,111.325696 C1432.51867,111.28119 1433.1052,111.229402 1433.69173,111.155537 C1433.97902,111.12019 1434.2663,111.076623 1434.56555,111.019316 C1434.70919,110.989958 1434.85283,110.956842 1434.9845,110.910104 C1435.11617,110.860548 1435.30769,110.820621 1435.30769,110.658682 C1435.30769,110.820621 1435.1042,110.859608 1434.9845,110.908695 C1434.85283,110.95602 1434.70919,110.987609 1434.56555,111.015558 C1434.2663,111.073452 1433.97902,111.11561 1433.69173,111.150957 C1433.1052,111.221064 1432.51867,111.27156 1431.93213,111.315127 C1430.7471,111.399561 1429.57403,111.455929 1428.40096,111.503254 C1426.04286,111.593559 1423.68475,111.644055 1421.32665,111.682573 C1416.61044,111.755498 1411.89423,111.772056 1407.17802,111.770647 C1397.75757,111.762427 1388.32515,111.677053 1378.89273,111.562909 C1360.03987,111.333095 1341.17503,110.988549 1322.32216,110.608303 C1284.60446,109.841236 1246.89872,108.891327 1209.19299,107.96009 C1133.77793,106.047238 1058.36765,103.907271 982.964564,101.616405 L982.916684,101.615113 L982.871197,101.623333 L730.852052,147.083792 L478.880786,192.797787 L478.988517,192.790741 L241.200592,180.831449 L241.314308,180.857284 L1.17736935,81.4226514" id="path514"></path>
                        <path d="M1.17736935,75.2061446 L242.651366,167.592146 L242.70164,167.612109 L242.756702,167.614458 L480.08737,178.902038 L480.137644,178.905561 L480.186721,178.896166 L732.116091,136.922386 L984.003566,94.6924865 L983.917382,94.6984755 C1059.17683,96.7347493 1134.43987,98.630222 1209.7077,100.31643 C1247.34161,101.169223 1284.97553,101.895776 1322.62141,102.493505 C1341.43837,102.787086 1360.25533,103.046728 1379.08425,103.201739 C1388.49273,103.275604 1397.90121,103.327509 1407.30969,103.304962 C1412.01393,103.292162 1416.71817,103.262804 1421.42241,103.180719 C1423.78051,103.138443 1426.13862,103.083015 1428.48475,102.992592 C1429.65782,102.945854 1430.83089,102.890779 1432.00395,102.808224 C1432.59049,102.767357 1433.17702,102.71921 1433.76356,102.652274 C1434.06281,102.619158 1434.35009,102.579348 1434.63737,102.526504 C1434.78101,102.499495 1434.92465,102.470136 1435.06829,102.426569 C1435.18799,102.379714 1435.40346,102.351765 1435.40346,102.191705 C1435.40346,102.351765 1435.18799,102.378892 1435.06829,102.42563 C1434.92465,102.467788 1434.78101,102.497146 1434.63737,102.522864 C1434.35009,102.57606 1434.06281,102.613286 1433.76356,102.646285 C1433.17702,102.712282 1432.59049,102.757728 1432.00395,102.797655 C1430.83089,102.87516 1429.65782,102.926948 1428.48475,102.970632 C1426.12665,103.053657 1423.78051,103.100865 1421.42241,103.134803 C1416.71817,103.201739 1412.01393,103.216888 1407.30969,103.214656 C1397.90121,103.207728 1388.49273,103.125643 1379.08425,103.021011 C1360.25533,102.805875 1341.43837,102.485285 1322.62141,102.132989 C1284.9875,101.420058 1247.35358,100.537086 1209.71967,99.6774821 C1134.45902,97.909071 1059.19718,95.9301041 983.941322,93.8117452 L983.89823,93.809514 L983.855137,93.8177342 L731.922176,135.769202 L480.032307,177.976673 L480.131659,177.970801 L242.787824,166.941572 L242.893161,166.963884 L1.17736935,75.2061446" id="path516"></path>
                        <path d="M1.17736935,68.987759 L244.250567,153.705792 L244.297251,153.721058 L244.346328,153.723407 L481.234103,164.082098 L481.279589,164.084447 L481.325075,164.077401 L733.170655,125.610145 L984.976733,86.8878271 L984.896534,86.8938161 C1060.00755,88.7575821 1135.12097,90.4911158 1210.23438,92.0338222 C1247.79648,92.814981 1285.35857,93.4750672 1322.92067,94.0172515 C1341.70171,94.2838225 1360.48276,94.5186869 1379.26381,94.6585486 C1388.66031,94.7264244 1398.05682,94.7714009 1407.44136,94.7503805 C1412.1456,94.737463 1416.83787,94.7090444 1421.53014,94.6329484 C1423.87627,94.5939609 1426.22241,94.5434651 1428.56854,94.4599708 C1429.74161,94.4168732 1430.91468,94.3659076 1432.08774,94.2911033 C1432.67428,94.253525 1433.26081,94.2099577 1433.84735,94.1476012 C1434.13463,94.1173037 1434.43388,94.0805474 1434.72116,94.0324003 C1434.8648,94.0090313 1435.00844,93.9820219 1435.15208,93.9433867 C1435.27178,93.8975881 1435.47528,93.8824394 1435.49922,93.7250803 C1435.47528,93.8810302 1435.27178,93.8966487 1435.15208,93.9420949 C1435.00844,93.9796732 1434.8648,94.0058606 1434.72116,94.030169 C1434.43388,94.0773768 1434.13463,94.1127239 1433.84735,94.1420819 C1433.26081,94.2017374 1432.67428,94.2438956 1432.08774,94.2806519 C1430.91468,94.3521681 1429.74161,94.398084 1428.56854,94.4378935 C1426.22241,94.514107 1423.87627,94.5562652 1421.53014,94.5879718 C1416.83787,94.6493889 1412.13363,94.6608972 1407.44136,94.6585486 C1398.05682,94.6517375 1388.66031,94.5750543 1379.27578,94.4778205 C1360.48276,94.2783032 1341.70171,93.9833136 1322.93264,93.6567347 L1210.24635,91.395226 C1135.13773,89.7699648 1060.02671,87.9521148 984.920474,86.0062638 L984.880973,86.0048546 L984.840275,86.0108436 L732.992301,124.454613 L481.183828,163.155559 L481.274801,163.150861 L244.376253,153.051695 L244.473211,153.070484 L1.17736935,68.987759" id="path518"></path>
                        <path d="M1.17736935,62.769843 L245.848572,139.818264 L245.891665,139.831181 L245.937151,139.83353 L482.380836,149.262159 L482.422731,149.263333 L482.463429,149.258636 L734.224022,114.300488 L985.949901,79.0845769 L985.87808,79.0882173 C1060.83947,80.7791231 1135.80207,82.3516573 1210.77304,83.7502744 C1248.25134,84.460739 1285.74161,85.0538889 1323.21992,85.541115 C1341.96505,85.7805592 1360.71019,85.9920545 1379.45533,86.1167675 C1388.8279,86.1754835 1398.20046,86.2154105 1407.57303,86.193803 C1412.2653,86.182412 1416.9456,86.1552852 1421.63787,86.0860002 C1423.97203,86.0498311 1426.31817,86.0039151 1428.6643,85.9273494 C1429.83737,85.8888316 1430.99847,85.8429156 1432.17154,85.7736307 C1432.75807,85.7396928 1433.3446,85.6997658 1433.93114,85.6433984 C1434.21842,85.6162716 1434.5057,85.5832731 1434.79298,85.5401755 C1434.94859,85.5176285 1435.09223,85.4929678 1435.23587,85.4576207 C1435.35558,85.4145231 1435.55907,85.4094735 1435.59498,85.2593952 C1435.55907,85.4094735 1435.35558,85.4131139 1435.23587,85.4566812 C1435.09223,85.4906191 1434.93662,85.5153973 1434.79298,85.5365351 C1434.5057,85.5786933 1434.21842,85.6116917 1433.93114,85.6374093 C1433.3446,85.6915456 1432.75807,85.7291239 1432.17154,85.7630618 C1430.99847,85.8277669 1429.83737,85.869925 1428.6643,85.9052721 C1426.31817,85.9731479 1423.97203,86.0121354 1421.63787,86.0414934 C1416.9456,86.0951599 1412.2653,86.1057288 1407.57303,86.1034976 C1398.20046,86.0951599 1388.8279,86.0250529 1379.45533,85.9355696 C1360.72216,85.7512011 1341.97702,85.4800502 1323.23189,85.1804808 L1210.78501,83.1112085 C1135.81763,81.6305063 1060.85623,79.9749476 985.898429,78.2006649 L985.862519,78.2006649 L985.826609,78.2052448 L734.061229,113.141315 L482.334153,148.334444 L482.417943,148.330921 L245.964682,139.161818 L246.052064,139.177084 L1.17736935,62.769843" id="path520"></path>
                        <path d="M1.17736935,56.5532189 L247.447774,125.930735 L247.486079,125.941304 L247.526777,125.943653 L483.527569,134.442219 L483.564676,134.443393 L483.60298,134.438696 L735.278585,102.988012 L986.923068,71.2799175 L986.858429,71.2836753 C1061.6702,72.8019558 1136.48316,74.2134905 1211.29972,75.4680184 C1248.7062,76.1066145 1286.11269,76.6327106 1323.53114,77.064861 L1379.64685,77.5735772 L1407.7047,77.6392217 L1421.73363,77.5391695 L1428.74809,77.394728 L1432.25533,77.256158 L1434.00296,77.1387258 C1434.30221,77.1144174 1434.58949,77.0850593 1434.87677,77.0460719 C1435.15208,76.9827759 1435.51119,77.0107248 1435.67877,76.7924184 C1435.51119,77.0097853 1435.15208,76.9813667 1434.87677,77.0424315 C1434.58949,77.0814189 1434.30221,77.1093678 1434.00296,77.134146 L1432.25533,77.2446497 L1428.74809,77.3726507 L1421.73363,77.4932536 L1407.7047,77.548799 L1379.64685,77.3923793 L1323.53114,76.7043442 L1211.31169,74.8290699 C1136.49753,73.4914001 1061.68576,71.9964886 986.877581,70.3960055 L986.844065,70.3945964 L986.811746,70.3991762 L735.13255,101.8279 L483.485674,133.51333 L483.561085,133.509807 L247.551914,125.271941 L247.629719,125.283684 L1.17736935,56.5532189" id="path522"></path>
                        <path d="M1.17736935,50.3348332 L249.046976,112.043089 L249.080493,112.051427 L249.1176,112.052719 L484.674302,119.622279 L484.707818,119.623453 L484.741335,119.618756 L736.333149,91.6760063 L987.896235,63.4757278 L987.837581,63.4794856 C1062.50092,64.8239666 1137.16426,66.0743843 1211.8264,67.1840009 C1249.16107,67.7523726 1286.49573,68.2107103 1323.83039,68.5900162 L1379.83837,69.0303869 L1407.84834,69.0831139 L1421.84136,68.9913994 L1428.84385,68.8633983 L1432.33912,68.7391551 L1434.08675,68.634523 L1434.96056,68.5510287 C1435.23587,68.495953 1435.58301,68.5240193 1435.77453,68.3267333 C1435.58301,68.5230799 1435.23587,68.4937218 1434.96056,68.5486801 L1434.08675,68.628534 L1432.33912,68.727177 L1428.84385,68.8400293 L1421.84136,68.9468926 L1407.84834,68.9928086 L1379.83837,68.849189 L1323.84236,68.2280903 L1211.83837,66.5455222 C1137.17743,65.3524113 1062.51529,64.0193213 987.855536,62.5904067 L987.825611,62.5904067 L987.796883,62.5936948 L736.202675,90.5144848 L484.635998,118.692216 L484.70303,118.689868 L249.139146,111.380772 L249.209769,111.390401 L1.17736935,50.3348332" id="path524"></path>
                        <path d="M1.17736935,44.1169173 L250.644981,98.1545043 L250.674906,98.1617851 L250.708423,98.1627245 L485.821035,104.802222 L485.849763,104.802222 L485.880886,104.799991 L737.387712,80.3649398 L988.869402,55.6710684 L988.819127,55.6734171 L1212.36506,58.9018623 C1249.6279,59.398248 1286.87877,59.789532 1324.14161,60.1124705 L1380.02989,60.4871965 L1407.98001,60.5271235 L1421.94909,60.4445687 L1428.93962,60.3307769 L1432.43488,60.221565 L1434.17054,60.1298505 L1435.04435,60.0583343 C1435.31966,60.0078384 1435.65483,60.0348478 1435.87029,59.8601088 C1435.65483,60.0335561 1435.31966,60.0054898 1435.04435,60.0550462 L1434.17054,60.1238614 L1432.43488,60.2097043 L1428.93962,60.3074079 L1421.94909,60.4000619 L1407.98001,60.4376402 L1380.02989,60.3059987 L1324.14161,59.7518363 L1212.37703,58.2629138 L988.832294,54.7857473 L988.807157,54.7857473 L988.78202,54.7880959 L737.2728,79.2010696 L485.787519,103.872394 L485.846172,103.870163 L250.726378,97.4911299 L250.788622,97.4980584 L1.17736935,44.1169173" id="path526"></path>
                        <path d="M1.17736935,37.8998234 L252.244183,84.2672108 L252.270517,84.2717907 L252.298049,84.2727301 L486.967768,89.9823996 L486.992906,89.9823996 L487.01924,89.980051 L738.441079,69.0524641 L989.841372,47.866409 L989.798279,47.8687577 L1212.89174,50.6178448 C1250.08276,51.0430666 1287.26181,51.3674143 1324.45283,51.6362165 L1380.22141,51.9435365 L1408.11169,51.9719551 L1422.05682,51.8980903 L1429.03538,51.7981555 L1432.51867,51.7040923 L1434.25433,51.6242384 C1434.82889,51.5655224 1435.45134,51.6090897 1435.96605,51.3931319 C1435.45134,51.6077979 1434.82889,51.5623517 1434.25433,51.6196586 L1432.51867,51.692584 L1429.03538,51.7760782 L1422.05682,51.8522917 L1408.11169,51.8816498 L1380.23338,51.7642176 L1324.45283,51.2756998 L1212.90371,49.9793661 L989.811447,46.9810879 L989.788703,46.9810879 L989.768354,46.9824971 L738.342924,67.8877718 L486.93904,89.0511625 L486.989315,89.0489313 L252.314807,83.5997263 L252.366278,83.6057154 L1.17736935,37.8998234" id="path528"></path>
                        <path d="M1.17736935,31.6819075 L253.843385,70.3794476 L253.864931,70.3832054 L253.887674,70.3832054 L488.114502,75.1611681 L488.134851,75.1625773 L488.157594,75.1611681 L739.495642,57.7403407 L990.815736,40.0617496 L990.778629,40.0631588 L1213.43039,42.334297 L1324.75209,43.1599626 L1380.4249,43.4008159 L1408.25533,43.4169041 L1422.17652,43.3512596 L1429.13114,43.2655341 L1432.60246,43.1856802 C1433.75159,43.1187439 1434.94859,43.1796912 1436.06181,42.9274469 C1434.94859,43.1751113 1433.75159,43.1118154 1432.60246,43.1751113 L1429.13114,43.2429871 L1422.17652,43.305461 L1408.25533,43.3264814 L1380.4249,43.2210273 L1324.76406,42.7994458 L1213.43039,41.6953485 L990.789402,39.1764285 L990.77025,39.1756065 L990.753491,39.1764285 L739.413049,56.5752961 L488.090561,74.229931 L488.132457,74.229109 L253.902039,69.7087925 L253.945131,69.7133723 L1.17736935,31.6819075" id="path530"></path>
                        <path d="M1.17736935,25.4654007 L255.442587,56.4908624 L255.459345,56.4918019 L255.478497,56.4930936 L489.261235,60.342755 L489.277993,60.342755 L489.294751,60.3413458 L725.847363,47.2572884 L962.389203,33.9154673 L991.955287,32.2599086 L1021.55728,32.518142 L1080.7876,33.0172287 L1199.24586,33.9438859 L1317.71368,34.6507101 L1376.94161,34.8516366 L1406.55558,34.8645541 L1421.36256,34.8104179 L1428.77203,34.7401935 L1432.47079,34.6741966 C1433.69173,34.6191209 1434.94859,34.6682075 1436.15757,34.4603526 C1434.94859,34.6649194 1433.69173,34.6107832 1432.47079,34.6626882 L1428.77203,34.7154153 L1421.36256,34.7622707 L1406.55558,34.7681423 L1376.94161,34.6590478 L1317.71368,34.2668244 L1199.25783,33.2883796 L1080.79359,32.2305506 L1021.56566,31.6658193 L991.939726,31.3731783 L962.36646,32.9960909 L725.799483,46.0733372 L489.24328,59.4091692 L489.275599,59.4078775 L255.48927,55.8192678 L255.523984,55.8216165 L1.17736935,25.4654007" id="path532"></path>
                        <path d="M1.17736935,19.2473674 L257.041789,42.6021598 L257.053759,42.6030992 L257.068123,42.6030992 L404.520289,44.448076 L478.247569,45.3701534 C490.539639,45.8196838 502.811359,44.9306048 515.090261,44.5022123 L551.920984,42.9801739 L846.576338,30.6580164 L993.890848,24.4598291 L1141.34421,25.3629999 L1288.79398,26.0923711 L1362.52964,26.2905966 L1399.39747,26.317606 L1417.83139,26.2790882 L1427.03637,26.2236603 C1430.11268,26.1662359 1433.18899,26.2318805 1436.24136,25.9938455 C1433.18899,26.2227208 1430.11268,26.1465073 1427.03637,26.1947719 L1417.83139,26.2190804 L1399.39747,26.1979426 L1362.52964,26.0525616 L1288.80595,25.6144222 L1141.349,24.6433756 L993.89803,23.5759171 L846.558383,29.6094646 L551.90662,41.9774206 L515.0747,43.5403254 C502.796995,43.9829272 490.525275,44.8838668 478.235599,44.4494852 L404.516698,43.6086709 L257.076502,41.9278642 L257.102836,41.9292734 L1.17736935,19.2473674" id="path534"></path>
                        <path d="M1.17736935,13.0289817 L180.324385,23.9960894 L225.115206,26.6956201 L247.510019,28.0429194 L258.706826,28.7135745 L269.92518,28.8098689 L359.667223,29.5763487 L449.41166,30.3420064 L471.84717,30.5337732 L483.065524,30.6300675 L488.673504,30.6782147 L491.478092,30.7025232 L494.281484,30.6286584 L539.13455,29.4002004 L718.545618,24.4869559 L897.951898,19.3763079 L987.656833,16.8198096 L993.262419,16.6602193 C995.117781,16.6377897 996.998279,16.6671478 998.864414,16.6684395 L1010.08157,16.715295 L1032.51588,16.8070095 L1077.38691,16.9831577 L1256.86979,17.6124767 L1346.60944,17.7524559 L1391.47328,17.7685441 L1413.9052,17.739186 C1421.3865,17.6877507 1428.86779,17.765256 1436.33712,17.5281604 C1428.86779,17.7404778 1421.3865,17.6396036 1413.9052,17.666613 L1391.47328,17.6230456 L1346.60944,17.4611067 L1256.86979,17.0290737 L1077.3905,16.19143 L1032.52067,15.9638465 L1010.08636,15.848763 L998.869202,15.7886377 C996.997082,15.7864065 995.135736,15.7546998 993.25404,15.7748981 L987.64606,15.9272077 L897.942322,18.3841235 L718.532451,23.2987772 L539.124974,28.4116564 L494.271908,29.689201 L491.468516,29.7667062 L488.665125,29.7456859 L483.057145,29.7034103 L471.841185,29.6213252 L449.409266,29.4543367 L359.679193,28.7874394 L269.946726,28.1204247 L258.730767,28.0369304 L247.532762,27.3790754 L225.137949,26.0571414 L180.348325,23.4171488 L1.17736935,13.0289817" id="path536"></path>
                        <path d="M1.17736935,6.81243977 L180.520694,12.4124628 L225.358199,13.7712705 L247.775754,14.4477972 L258.985729,14.7858844 C262.722786,14.8671475 266.462238,14.8377894 270.200492,14.8693787 L359.915003,15.2781601 L449.631909,15.6863543 L494.49096,15.8593319 L539.344026,15.2570223 L718.753897,12.8496628 L898.163768,10.2450408 L987.8699,8.94135582 C995.345212,8.77576472 1002.81454,8.88034981 1010.29344,8.8698044 L1032.72177,8.90833389 L1077.57843,8.9849349 C1197.19897,9.16338482 1316.81593,9.47439218 1436.43288,9.06108966 C1406.53164,9.19274286 1376.63039,9.0092551 1346.71717,8.9542029 L1257.01343,8.66521407 L1077.58082,8.19456942 L1032.72297,8.06749607 L1010.29584,8.00281444 C1002.82292,8.00420014 995.33803,7.89272178 987.863915,8.04869518 L898.157783,9.25237492 L718.747912,11.6624823 L539.339238,14.2680086 L494.486172,14.920814 L449.630712,14.7978625 L359.922186,14.4886636 L270.211265,14.1799344 C266.473011,14.152925 262.734757,14.1868629 258.997699,14.10971 L247.787724,13.7831311 L225.370169,13.1326743 L180.532664,11.8349314 L1.17736935,6.81243977" id="path538"></path>
                        <polyline id="path540" points="1.17736935 0.594041197 360.015552 0.988999637 718.852052 1.18854273 1077.69095 0.989916782 1436.52864 0.594041197 1077.69095 0.198625945 718.852052 0 360.015552 0.19954309 1.17736935 0.594041197"></polyline>
                    </g>
                </g>
            </g>
        </g>
    </g>
</svg>