<?xml version="1.0" encoding="UTF-8"?>
<svg width="50px" height="50px" viewBox="0 0 50 50" version="1.1" xmlns="http://www.w3.org/2000/svg" xmlns:xlink="http://www.w3.org/1999/xlink">
    <!-- Generator: Sketch 58 (84663) - https://sketch.com -->
    <title>app-store</title>
    <desc>Created with Sketch.</desc>
    <g id="Home" stroke="none" stroke-width="1" fill="none" fill-rule="evenodd">
        <g id="Desktop-HD" transform="translate(-734.000000, -1864.000000)" fill-rule="nonzero">
            <g id="app-store" transform="translate(734.000000, 1864.000000)">
                <path d="M39.7460938,50 L10.2539062,50 C4.59990234,50 0,45.4000977 0,39.7460938 L0,10.2539062 C0,4.59990234 4.59990234,0 10.2539062,0 L39.7460938,0 C45.4000977,0 50,4.59990234 50,10.2539062 L50,39.7460938 C50,45.4000977 45.4000977,50 39.7460938,50 Z" id="Path" fill="#00C3FF"></path>
                <path d="M39.7460938,0 L25,0 L25,50 L39.7460938,50 C45.4000977,50 50,45.4000977 50,39.7460938 L50,10.2539062 C50,4.59990234 45.4000977,0 39.7460938,0 Z" id="Path" fill="#00AAF0"></path>
                <g id="Group" transform="translate(8.300781, 10.253906)" fill="#FFFFFF">
                    <path d="M7.09462891,28.2729492 C6.64296875,29.0552734 5.82060547,29.4930664 4.97617187,29.4931641 C4.56220703,29.4931641 4.14306641,29.3879883 3.75957031,29.1666016 L3.75957031,29.1666016 C2.59375,28.4935547 2.19287109,26.9974609 2.86591797,25.8316406 L3.34609375,25 L8.98427734,25 L7.09462891,28.2729492 Z" id="Path"></path>
                    <path d="M2.49023438,23.046875 C1.14404297,23.046875 0.048828125,21.9516602 0.048828125,20.6054688 C0.048828125,19.2592773 1.14404297,18.1640625 2.49023438,18.1640625 L7.29277344,18.1640625 L13.8800781,6.75449219 L12.0948242,3.66230469 C11.4217773,2.49648438 11.8225586,1.00039063 12.9883789,0.327246094 L12.9884766,0.327246094 C14.1542969,-0.345800781 15.6503906,0.0551757812 16.3234375,1.22089844 L16.6992188,1.87177734 L17.075,1.22099609 C17.7483398,0.055078125 19.2444336,-0.345703125 20.4099609,0.32734375 C20.974707,0.653417969 21.3787109,1.17988281 21.5474609,1.80976563 C21.7163086,2.43964844 21.6295898,3.09765625 21.3035156,3.66240234 L12.930957,18.1640625 L18.2121094,18.1640625 L21.03125,23.046875 L2.49023438,23.046875 Z" id="Path"></path>
                </g>
                <g id="Group" transform="translate(25.000000, 10.253906)" fill="#F2F2F2">
                    <path d="M14.2089844,23.046875 L12.2254883,23.046875 L13.8332031,25.831543 C14.5063477,26.9972656 14.1054688,28.4933594 12.9397461,29.1665039 C12.5634766,29.3836914 12.1458984,29.4947266 11.7228516,29.4947266 C11.5107422,29.4947266 11.2974609,29.4668945 11.0870117,29.4104492 C10.4570312,29.2416016 9.93056641,28.8375977 9.60449219,28.2727539 L1.12753906,13.590332 L3.94658203,8.70751953 L9.40644531,18.1640625 L14.2089844,18.1640625 C15.5551758,18.1640625 16.6503906,19.2592773 16.6503906,20.6054688 C16.6503906,21.9516602 15.5551758,23.046875 14.2089844,23.046875 Z" id="Path"></path>
                    <polygon id="Path" points="0 18.1640625 0 23.046875 4.33203125 23.046875 1.51298828 18.1640625"></polygon>
                    <path d="M4.84824219,1.80966797 C4.67939453,1.17978516 4.27548828,0.653222656 3.71074219,0.327246094 C2.54511719,-0.345800781 1.04902344,0.0548828125 0.37578125,1.22089844 L0,1.87167969 L0,1.87167969 L0,11.6373047 L4.60429688,3.66230469 C4.93037109,3.09755859 5.01708984,2.43964844 4.84824219,1.80966797 Z" id="Path"></path>
                </g>
            </g>
        </g>
    </g>
</svg>