<?xml version="1.0" encoding="UTF-8"?>
<svg width="1440px" height="521px" viewBox="0 0 1440 521" version="1.1" xmlns="http://www.w3.org/2000/svg" xmlns:xlink="http://www.w3.org/1999/xlink">
    <!-- Generator: Sketch 58 (84663) - https://sketch.com -->
    <title>Group 4</title>
    <desc>Created with Sketch.</desc>
    <defs>
        <linearGradient x1="50%" y1="0%" x2="50%" y2="100%" id="linearGradient-1">
            <stop stop-color="#8140C7" offset="0%"></stop>
            <stop stop-color="#6C33B5" offset="100%"></stop>
        </linearGradient>
        <polygon id="path-2" points="0.304378788 0.0983714286 195.791061 0.0983714286 195.791061 312.770578 0.304378788 312.770578"></polygon>
    </defs>
    <g id="Home" stroke="none" stroke-width="1" fill="none" fill-rule="evenodd">
        <g id="Desktop-HD" transform="translate(0.000000, -2669.000000)">
            <g id="Group-4" transform="translate(0.000000, 2669.000000)">
                <path d="M1440,521 L0,521 L0,468.540577 C353.086848,366.313091 555.343122,329.867146 606.768824,359.202742 C683.907376,403.206136 650.62771,383.835028 683.907376,401.204437 C826.44856,475.597388 1057.55463,515.599088 1200.09411,441.206137 C1330.51061,373.136453 1300.90576,254.945708 1331.82353,170.666039 C1347.82099,127.058086 1383.87981,101.264286 1440,93.2846393 L1440,521 Z" id="Path" fill="url(#linearGradient-1)"></path>
                <g id="Mail-sent-(1)" transform="translate(660.000000, 0.000000)">
                    <polyline id="Fill-4" fill="#7D4CBD" points="61 89.4997513 140 65 79.2307692 107 61 89.4997513"></polyline>
                    <polyline id="Fill-5" fill="#7D4CBD" points="139 63.8012963 55 79 37 60 139 63.8012963"></polyline>
                    <polyline id="Fill-6" fill="#4A1E96" points="56 78.9988061 56 100 62 89.499403 140 65 56 78.9988061"></polyline>
                    <polyline id="Fill-7" fill="#7D4CBD" points="56 100 68 94.6668562 62 88 56 100"></polyline>
                    <polyline id="Fill-8" fill="#4A1E96" points="61 88 68 94.2089857 65.7666174 95 61 88"></polyline>
                    <path d="M45.1970681,93.1272819 C43.7169256,93.8600429 42.1964614,94.6676465 40.6507962,95.5518331 C40.0426105,95.8999381 39.8208411,96.695358 40.1568553,97.3254281 C40.4928695,97.9572386 41.2606619,98.1852474 41.8688476,97.8371424 C43.3725111,96.9773231 44.8476133,96.1940868 46.2823939,95.4839527 C46.9107404,95.1741392 47.1761917,94.394384 46.877139,93.7434277 C46.5764063,93.0924714 45.8254146,92.8174684 45.1970681,93.1272819" id="Fill-9" fill="#D4D5CF"></path>
                    <path d="M35.2159672,98.189056 C32.8041296,99.763983 30.3724477,101.520974 27.9743485,103.462989 C27.488928,103.856721 27.4232894,104.556853 27.8293329,105.027555 C28.23385,105.498257 28.9558748,105.560425 29.4412953,105.168173 C31.7768089,103.276485 34.145905,101.56538 36.495157,100.030418 C37.0187394,99.6884931 37.1576491,98.9987224 36.8050323,98.4895355 C36.4508891,97.9818288 35.7395496,97.8471311 35.2159672,98.189056 Z M22.3950659,108.396478 C20.3007361,110.421384 18.2674654,112.60023 16.3364688,114.934497 C15.9411107,115.4126 16.0204876,116.111252 16.5135405,116.494622 C17.0065933,116.877993 17.7270917,116.801023 18.1224498,116.32292 C19.9984931,114.056742 21.9737576,111.938583 24.0116077,109.969925 C24.4603927,109.536228 24.4603927,108.834615 24.0146607,108.399438 C23.5674022,107.965741 22.8438509,107.964261 22.3950659,108.396478 Z M11.8974665,120.867117 C10.2732923,123.279834 8.76665705,125.83021 7.41114327,128.516763 C7.133324,129.067395 7.36687536,129.732003 7.93625221,130.002878 C8.50410258,130.272274 9.18949187,130.044324 9.46731114,129.493691 C10.7800835,126.891509 12.2409244,124.421064 13.8147247,122.080877 C14.1612356,121.567249 14.0116406,120.880439 13.4819522,120.544435 C12.9522638,120.209911 12.2439773,120.35497 11.8974665,120.867117 Z M4.4467201,135.26793 C3.43313771,137.964845 2.57220328,140.780175 1.88834047,143.715401 C1.74943084,144.313399 2.13715663,144.906957 2.75385434,145.041655 C3.37055206,145.177833 3.98267033,144.801864 4.12310644,144.203865 C4.78407206,141.363372 5.61752986,138.638333 6.5975297,136.02875 C6.81428978,135.452955 6.50899389,134.814991 5.91366689,134.604803 C5.31986636,134.396096 4.66348018,134.692135 4.4467201,135.26793 Z M0.60762418,150.941711 C0.244322061,153.834011 0.03824733,156.764796 8.53427587e-05,159.707423 C-0.00754705469,160.320224 0.497717656,160.82349 1.12968017,160.830891 C1.76164267,160.839772 2.28217218,160.348347 2.28980458,159.735547 C2.32796656,156.874331 2.5264089,154.023476 2.88055214,151.209626 C2.95687611,150.601266 2.50961762,150.047673 1.88223455,149.973664 C1.25485148,149.899654 0.683948154,150.331871 0.60762418,150.941711 Z M0.250427979,167.026985 C0.488558779,169.945929 0.897655283,172.857472 1.48229693,175.739411 C1.60441529,176.34037 2.20584821,176.732621 2.82712536,176.614206 C3.44687603,176.49579 3.8513931,175.911113 3.72927474,175.310154 C3.16142437,172.515547 2.7645397,169.688375 2.53251482,166.852322 C2.48214099,166.241002 1.9310819,165.785102 1.30064587,165.832468 C0.670209839,165.881315 0.200054156,166.415665 0.250427979,167.026985 Z M3.31407231,182.854706 C4.19637746,185.661155 5.26033366,188.415797 6.5150998,191.09643 C6.7761278,191.655943 7.45388469,191.903136 8.03089394,191.650022 C8.60637671,191.396909 8.86129878,190.738222 8.60027079,190.180189 C7.38824607,187.589849 6.3593989,184.924018 5.50457038,182.207861 C5.31986636,181.621704 4.68027146,181.29014 4.07578558,181.469244 C3.4712997,181.648347 3.13089478,182.268549 3.31407231,182.854706 Z M10.0321085,197.603365 C11.5845382,200.107854 13.3277778,202.520571 15.2679332,204.817833 C15.6678708,205.292976 16.3898956,205.362545 16.8783691,204.973254 C17.368369,204.585443 17.4401135,203.885311 17.0386494,203.411648 C15.171765,201.200238 13.4926376,198.874852 11.9951612,196.459174 C11.670021,195.933705 10.966314,195.763483 10.4244138,196.080245 C9.88251356,196.395526 9.70696842,197.077896 10.0321085,197.603365 Z M20.4289604,210.208702 C22.5904553,212.202524 24.9351278,214.07201 27.4690838,215.797917 C27.9865603,216.150203 28.7009527,216.030307 29.0642548,215.528521 C29.4275569,215.026735 29.3023856,214.334004 28.7849091,213.981718 C26.3440684,212.317979 24.0864052,210.518063 22.0073401,208.59973 C21.5493963,208.177875 20.8243185,208.195637 20.3877454,208.639696 C19.9526988,209.083754 19.9710165,209.786847 20.4289604,210.208702 L20.4289604,210.208702 Z" id="Fill-10" fill="#D4D5CF"></path>
                    <path d="M33.6603704,220.496001 C35.1367508,221.334247 36.6598944,222.131819 38.2314713,222.881642 C38.8627742,223.184048 39.6043047,222.886948 39.888224,222.218473 C40.1738134,221.549998 39.8932343,220.764806 39.2619314,220.464169 C37.742128,219.737335 36.270758,218.968059 34.844481,218.158108 C34.2348895,217.811491 33.4766579,218.053769 33.1493157,218.699254 C32.8219734,219.344739 33.050779,220.149384 33.6603704,220.496001" id="Fill-11" fill="#D4D5CF"></path>
                    <polyline id="Fill-12" fill="#7D4CBD" points="548 167 611.171752 128 639 136.612278 548 167"></polyline>
                    <polyline id="Fill-13" fill="#7D4CBD" points="549 169 602 123.117736 590.222544 109 549 169"></polyline>
                    <polyline id="Fill-14" fill="#4A1E96" points="602 123 602 133.674692 549 169 602 123"></polyline>
                    <path d="M459.662177,33.7832321 C462.19643,32.3067159 464.782371,30.9195951 467.415572,29.6233598 C467.964955,29.3521934 468.193865,28.6832168 467.925081,28.1289645 C467.656296,27.5747121 466.993197,27.3437737 466.443813,27.6149401 C463.764831,28.9335243 461.133107,30.3444838 458.554549,31.8478188 C458.024365,32.1562334 457.842714,32.8401092 458.148419,33.3735026 C458.454124,33.9083859 459.131993,34.0916467 459.662177,33.7832321 Z M474.082015,26.5734821 C476.780196,25.4321991 479.519729,24.3818016 482.293229,23.4237794 C482.872149,23.2241294 483.180808,22.5894211 482.982912,22.0053703 C482.783539,21.4213194 482.154406,21.109925 481.575486,21.309575 C478.756204,22.2824964 475.970889,23.3507731 473.225449,24.512915 C472.661297,24.7513031 472.395467,25.4068704 472.631761,25.976022 C472.869531,26.5451736 473.517863,26.8133602 474.082015,26.5734821 Z M489.283099,21.229119 C492.100904,20.429029 494.94677,19.7242942 497.816264,19.1149146 C498.414383,18.9882709 498.796884,18.3952805 498.671353,17.7918607 C498.544345,17.1869509 497.95804,16.8010601 497.358445,16.9277038 C494.441691,17.5475129 491.548567,18.2641671 488.683503,19.0776664 C488.094245,19.2445381 487.751619,19.8613673 487.917025,20.4558476 C488.082431,21.048838 488.693841,21.3959907 489.283099,21.229119 Z M505.018799,17.7918607 C507.911923,17.343393 510.821292,16.9902807 513.742476,16.7355034 C514.352409,16.6818661 514.802845,16.1410231 514.749678,15.5256838 C514.697989,14.9103445 514.16042,14.4559172 513.550487,14.5080646 C510.580567,14.7688016 507.622463,15.1263838 504.68208,15.582301 C504.078053,15.6761663 503.663062,16.2468078 503.756103,16.8576773 C503.849144,17.4670569 504.414772,17.885726 505.018799,17.7918607 Z M521.051342,16.3004451 C522.424801,16.2572373 523.801213,16.2363783 525.177625,16.2363783 C526.729781,16.2363783 528.283414,16.263197 529.837046,16.3183242 C530.448457,16.3406731 530.96092,15.8579372 530.983072,15.241108 C531.003748,14.6242788 530.526729,14.1072746 529.915319,14.0849258 C528.335103,14.0283086 526.756364,14 525.177625,14 C523.777584,14 522.379019,14.0223489 520.981931,14.0670467 C520.370521,14.0864157 519.890548,14.6019299 519.909747,15.2187591 C519.928946,15.8355883 520.439932,16.3198142 521.051342,16.3004451 Z M537.14296,16.7861609 C540.053806,17.0558374 542.961698,17.423849 545.857776,17.8931756 C546.461802,17.9900208 547.028907,17.5758214 547.126379,16.9664419 C547.22385,16.3570623 546.811812,15.7834409 546.207786,15.6865958 C543.262973,15.2083297 540.306345,14.8343583 537.345286,14.560212 C536.735353,14.5035949 536.196307,14.9565322 536.140187,15.5718715 C536.084068,16.1857209 536.533026,16.7295437 537.14296,16.7861609 Z M553.048496,19.2698668 C555.900268,19.9015953 558.738749,20.6346387 561.555077,21.4675071 C562.142858,21.6418284 562.757223,21.3021254 562.930013,20.7106249 C563.102803,20.1176345 562.766084,19.4978255 562.178303,19.3235042 C559.313239,18.4757365 556.426022,17.7292838 553.524037,17.0871258 C552.925918,16.9545225 552.335183,17.3359434 552.203745,17.9393633 C552.072306,18.5412932 552.450376,19.1372635 553.048496,19.2698668 Z M568.513934,23.7515631 C571.259374,24.7423636 573.979708,25.834479 576.670505,27.0279094 C577.230227,27.276727 577.884465,27.0204598 578.12962,26.455778 C578.376252,25.8896063 578.122236,25.2310592 577.562515,24.9822416 C574.824459,23.7679522 572.053912,22.6564677 569.259737,21.6477881 C568.68377,21.4391985 568.050207,21.7416534 567.84345,22.3227244 C567.638169,22.9037954 567.937967,23.5444634 568.513934,23.7515631 Z M583.277875,30.1969812 C584.79754,30.982172 586.305391,31.8016311 587.79995,32.6553584 C588.866226,33.264738 589.907396,33.8875269 590.92346,34.5237251 C591.443307,34.8485289 592.125606,34.687617 592.449033,34.1631631 C592.770984,33.6387093 592.611485,32.9503637 592.091638,32.62407 C591.050468,31.9729725 589.982715,31.3337944 588.891332,30.7110055 C587.368713,29.840889 585.83428,29.0065306 584.288031,28.2079305 C583.743078,27.9263346 583.075548,28.1438637 582.796426,28.6936463 C582.517303,29.2419389 582.732922,29.9153853 583.277875,30.1969812 Z M596.943048,38.6627385 C599.344386,40.474488 601.571456,42.3652036 603.627213,44.3244557 C604.073218,44.7475946 604.773239,44.7267357 605.194137,44.278268 C605.613559,43.8298004 605.592883,43.1220858 605.148355,42.6989469 C603.029094,40.6800977 600.737043,38.7342549 598.270725,36.8718479 C597.780415,36.5023463 597.086302,36.6036613 596.720046,37.0983166 C596.35379,37.591482 596.452738,38.291747 596.943048,38.6627385 Z M608.646983,49.6211413 C610.591977,51.9037073 612.331691,54.25183 613.866125,56.6461405 C614.198413,57.1646346 614.885143,57.3121372 615.399082,56.9769039 C615.911544,56.6416707 616.059228,55.9503452 615.72694,55.4318511 C614.134909,52.951125 612.336122,50.5210563 610.327623,48.163994 C609.928877,47.6961574 609.228856,47.6425201 608.76513,48.0448 C608.301403,48.4470799 608.248237,49.1533046 608.646983,49.6211413 Z M617.425302,63.0096127 C618.719012,65.6974385 619.773473,68.4210225 620.594595,71.1580158 C620.771815,71.7480263 621.39061,72.0832596 621.975438,71.9044685 C622.560265,71.7241875 622.892553,71.1013986 622.715333,70.5098982 C621.858767,67.6596705 620.761477,64.825832 619.419033,62.0337114 C619.151725,61.4794591 618.488625,61.2470307 617.939242,61.5167072 C617.388381,61.7863838 617.157995,62.4553604 617.425302,63.0096127 Z M622.20287,78.2604911 C622.592755,80.7933647 622.784744,83.3202785 622.784744,85.8188837 C622.784744,86.2032845 622.780314,86.5876853 622.771453,86.9720861 C622.756684,87.5889153 623.241087,88.1014497 623.852498,88.116349 C624.463908,88.1312482 624.97194,87.6425526 624.986708,87.0257234 C624.995569,86.6234435 625,86.2211636 625,85.8188837 C625,83.2040643 624.797673,80.5639161 624.391543,77.9178083 C624.298502,77.3084287 623.731397,76.8912495 623.127371,76.9851148 C622.523344,77.0804701 622.108353,77.6511116 622.20287,78.2604911 Z M622.043372,94.2026951 C621.527956,97.0752716 620.743755,99.8793116 619.698155,102.585016 C619.475152,103.160128 619.757228,103.808245 620.327287,104.033224 C620.897346,104.256713 621.539771,103.972137 621.761296,103.397026 C622.860063,100.555738 623.682661,97.6131348 624.223184,94.6019951 C624.33247,93.9941055 623.932247,93.4130345 623.331174,93.30278 C622.728625,93.1925255 622.152658,93.5962953 622.043372,94.2026951 Z M616.548061,109.110891 C615.097807,111.582677 613.397968,113.93527 611.452973,116.13887 C611.046843,116.600747 611.086717,117.306971 611.544537,117.716701 C612.00088,118.12792 612.7009,118.086202 613.108508,117.625815 C615.146543,115.314941 616.932039,112.846134 618.454658,110.249194 C618.766271,109.71878 618.592004,109.033414 618.06625,108.71904 C617.539019,108.404666 616.859674,108.580477 616.548061,109.110891 L616.548061,109.110891 Z" id="Fill-15" fill="#D4D5CF"></path>
                    <path d="M525,190.467918 L525,187.885245 L524.418509,187.885245 C523.742905,186.384066 522.475596,184.96521 520.60775,183.782023 C514.748101,180.072659 505.246962,180.072659 499.388785,183.782023 C497.519467,184.96521 496.252158,186.384066 495.576554,187.885245 L495.00104,187.885245 L495.00104,190.385596 C494.955411,192.855277 496.411124,195.333029 499.388785,197.216766 C505.246962,200.927745 514.748101,200.927745 520.60775,197.216766 C523.551557,195.354013 525.013158,192.908544 525,190.467918" id="Fill-16" fill="#4A1E96"></path>
                    <path d="M499.394443,181.783234 C505.250757,178.072255 514.748875,178.072255 520.606661,181.783234 C526.464446,185.492598 526.464446,191.508612 520.606661,195.217977 C514.748875,198.927341 505.250757,198.927341 499.394443,195.217977 C493.535186,191.508612 493.535186,185.492598 499.394443,181.783234" id="Fill-17" fill="#271054"></path>
                    <path d="M507,114 L507,185.751459 C507,186.327323 507.341463,186.903187 508.02439,187.341022 C509.390244,188.219659 511.608422,188.219659 512.974276,187.341022 C513.657203,186.903187 514,186.327323 514,185.751459 L514,114 L507,114" id="Fill-18" fill="#4A1E96"></path>
                    <path d="M526.600295,61.8521892 C522.827924,59.6655482 519.404136,59.4891344 516.837033,60.9330587 L516.826693,60.9123042 L469,88.6863516 L492.999015,137 L541,109.135522 L541,87.985144 C541,78.1608252 534.551225,66.4597013 526.600295,61.8521892" id="Fill-19" fill="#54279D"></path>
                    <path d="M493,115.914155 L493,137 L465,120.360749 L465,99.2749039 C465,89.4829354 471.263233,85.2610359 478.995691,89.8613689 C483.947682,92.7942291 488.302216,98.6481233 490.783956,105.03419 C492.185679,108.629309 493,112.389992 493,115.914155" id="Fill-20" fill="#4A1E96"></path>
                    <path d="M493,115.231964 L493,137 L465,119.82242 L490.783956,104 C492.185679,107.711432 493,111.593785 493,115.231964" id="Fill-21" fill="#271054"></path>
                    <path d="M490.114738,122.903297 C487.417243,115.115545 478.666172,105.017918 470.569177,100.345568 C462.475189,95.673217 458.09815,98.1995024 460.797148,105.984249 L465.682411,120.082454 L495,137 C495,137 492.812232,130.688044 490.114738,122.903297" id="Fill-22" fill="#54279D"></path>
                    <path d="M509,115.192073 L507.3484,114.212193 L507.346886,114.212193 L507.334775,114.204416 L507.333261,114.207527 C506.767085,113.879345 505.990484,113.929117 505.132137,114.437721 C503.401817,115.462706 502,117.959065 502,120.01059 C502,121.035575 502.349697,121.755709 502.91436,122.093223 L502.917388,122.094778 L504.45545,123 L504.730969,122.522503 C505.018599,122.455623 505.315311,122.351413 505.63019,122.163214 C507.36051,121.138229 508.763841,118.64187 508.763841,116.590345 C508.763841,116.285493 508.722967,116.016415 508.663927,115.769113 L509,115.192073" id="Fill-23" fill="#271054"></path>
                    <path d="M507.499154,116.369801 C505.565144,117.234486 504,119.335931 504,121.065299 C504,122.793358 505.565144,123.494276 507.499154,122.629592 C509.431472,121.764907 511,119.663462 511,117.935404 C511,116.206035 509.433164,115.506427 507.499154,116.369801" id="Fill-24" fill="#4A1E96"></path>
                    <path d="M509,120.093324 L509,88.9066764 C509,88.4064933 508.551667,88 508,88 C507.448333,88 507,88.4064933 507,88.9066764 L507,120.093324 C507,120.595018 507.448333,121 508,121 C508.551667,121 509,120.595018 509,120.093324" id="Fill-25" fill="#271054"></path>
                    <polyline id="Fill-26" fill="#4A1E96" points="507 88.8263291 507 97 516 88 507 88.8263291"></polyline>
                    <path d="M55.7662737,356.508315 C55.0246216,356.912897 41.2995719,360.816363 36.2156663,354.086817 C31.133256,347.358769 39.5680535,336.86811 34.7981538,333.002104 C30.0297495,329.136099 16.6650589,333.024581 13.448741,324.880497 C10.2309278,316.736412 19.7662413,313.246518 14.4072067,305.051486 C11.0323906,299.887822 1.58081203,297.033272 2.01443927,292.224741 C2.6484322,285.197003 15.5555713,283.301461 26.8358605,290.831181 C38.1176451,298.362398 43.36603,292.193273 46.9456976,291.688295 C50.5253652,291.183317 58.2409395,292.298165 57.9942206,304.888155 C57.7460064,317.479644 55.7662737,356.508315 55.7662737,356.508315" id="Fill-27" fill="#6334A9"></path>
                    <path d="M9.55149081,289.450233 C16.6096795,291.424474 27.4163881,297.264322 36.8806389,305.565311 C46.3601276,313.866301 54.5002062,324.625472 56.4872265,336.380644 C56.555797,336.783188 56.9474107,337.055498 57.3618811,336.99038 C57.7778754,336.923783 58.0582525,336.541958 57.989682,336.139414 C55.9036155,323.884022 47.5303973,312.910259 37.9015773,304.467195 C28.2590431,296.025611 17.3654786,290.108807 9.97358025,288.02949 C9.56977628,287.915534 9.14768684,288.141965 9.03035512,288.53415 C8.9130234,288.926334 9.14616305,289.336278 9.55149081,289.450233" id="Fill-28" fill="#FFFFFE"></path>
                    <path d="M25.1540673,317.908533 L25.2257964,317.87337 C25.9980292,317.489178 32.8245062,314.293227 40.4644221,314.302344 C42.2973304,314.302344 44.1744971,314.483369 46.03335,314.923561 C46.4393064,315.018633 46.8589981,314.816769 46.9719333,314.470346 C47.0848686,314.12262 46.8467889,313.764476 46.4408325,313.668102 C44.4308906,313.192747 42.4148441,313 40.4644221,313 C31.7958799,313.009116 24.4337236,316.766378 24.3742037,316.78982 C24.0109796,316.97345 23.8919397,317.37327 24.1071271,317.681925 C24.3223145,317.990581 24.7908432,318.092163 25.1540673,317.908533" id="Fill-29" fill="#FFFFFE"></path>
                    <path d="M444.265302,229.888985 C450.123606,230.67948 460.104585,227.315451 460.819956,217.63926 C461.536813,207.961593 465.574715,205.337916 472.963406,203.768724 C480.355071,202.199532 482.523491,199.636322 483.344457,195.037882 C484.16691,190.437968 478.57185,184.926624 480.142393,178.008316 C481.711449,171.090009 486.980799,171.090009 492.154965,163.233726 C495.477496,158.186945 488.683708,150.49879 477.364198,153.796453 C466.047663,157.092641 466.989096,164.345729 455.626456,165.271906 C444.265302,166.198083 437.217193,173.016103 437.004516,181.466733 C436.790351,189.917362 444.265302,229.888985 444.265302,229.888985" id="Fill-30" fill="#4A1E96"></path>
                    <path d="M446.642603,230 C446.425342,230 446.211141,229.995576 446,229.986727 C446.06732,229.626872 446.10251,229.272917 446.10251,228.929286 L446.10251,202.093584 C450.080528,192.355392 456.916599,183.124536 463.95616,175.638383 C468.503341,170.798046 473.131612,166.684792 477.105039,163.624555 C481.067757,160.564317 484.427652,158.551197 486.2453,157.950948 C486.643102,157.818215 486.854243,157.397893 486.716542,157.012967 C486.606382,156.707681 486.309561,156.51743 485.992849,156.51743 C485.910229,156.51743 485.826078,156.530703 485.741928,156.558724 C483.570848,157.294656 480.204833,159.356445 476.150315,162.471251 C470.086898,167.143459 462.585274,174.172419 456.064385,182.512488 C452.242428,187.402969 448.755542,192.744742 446.10251,198.331335 L446.10251,168.183202 C448.980453,166.62285 452.499469,165.59343 456.552457,165.271921 C468.24171,164.345738 467.273215,157.092607 478.915037,153.796399 C480.865796,153.243344 482.684974,153 484.346562,153 C490.898051,153 495.00153,156.79322 495,160.459605 C495,161.415284 494.720008,162.363589 494.130956,163.233729 C488.808062,171.090059 483.387248,171.090059 481.77309,178.008408 C481.571129,178.872649 481.483919,179.716242 481.485449,180.537713 C481.493099,185.841142 485.158995,190.268531 485.152875,194.080923 C485.151345,194.403907 485.125335,194.722467 485.067195,195.038077 C484.222631,199.636545 481.991881,202.19977 474.387747,203.768971 C466.786673,205.338173 462.632705,207.961866 461.895241,217.63959 C461.228158,226.416204 452.71673,230 446.642603,230" id="Fill-31" fill="#7D4CBD"></path>
                    <path d="M485.002786,155.042215 C482.873363,155.794123 479.571933,157.900671 475.595211,161.083095 C469.648135,165.856731 462.290448,173.038281 455.894678,181.559403 C449.501909,190.080524 444.063553,199.941218 442.015166,210.097249 C441.93263,210.5056 442.195244,210.901896 442.60192,210.984772 C443.008596,211.067648 443.403267,210.803952 443.485803,210.395602 C446.120944,197.286184 454.712165,184.422379 463.63503,174.53607 C468.094962,169.590655 472.634428,165.388107 476.531616,162.261436 C480.4183,159.134764 483.713727,157.077942 485.4965,156.464662 C485.886669,156.329048 486.093758,155.899601 485.9587,155.506319 C485.822141,155.113036 485.394455,154.905094 485.002786,155.042215" id="Fill-32" fill="#FFFFFE"></path>
                    <path d="M49,200.574849 C49,198.115371 50.7352462,195.122709 52.8729981,193.891485 L251.014566,79.9223043 C253.153808,78.6925652 256.62281,78.6925652 258.762053,79.9223043 L263.127002,82.4322788 C265.266245,83.663503 267,86.6561649 267,89.1156429 L267,240.428492 C267,242.879059 265.2573,245.886573 263.127002,247.111856 L64.9854343,361.081037 C62.8551363,362.306321 59.3697362,362.306321 57.2394382,361.081037 L52.8744888,358.571063 C50.7441908,357.344294 49,354.338266 49,351.887699 L49,200.574849" id="Fill-33" fill="#4A1E96"></path>
                    <path d="M67.1758652,360 L67.1758652,360 L82.8681182,350.973403 L82.8681182,350.97489 L67.1758652,360 M63.1454025,204.332078 L50.1351525,196.848058 C49.4340728,198.05626 49,199.420504 49,200.649512 C49,198.188524 50.7362911,195.194024 52.8753301,193.962044 L251.136206,79.9228707 C252.207217,79.3076236 253.609377,79 255.013028,79 C256.415188,79 257.817347,79.3076236 258.888358,79.9228707 L263.255936,82.4343867 C264.326947,83.0511199 265.295034,84.1077399 265.996113,85.3174287 L124.880695,166.488436 L123.899183,165.923717 L123.885758,165.917772 L123.782834,165.858328 L123.772392,165.874675 C121.703461,164.711056 119.312332,164.103239 116.682537,164.103239 C112.984714,164.103239 108.815527,165.304011 104.400216,167.843763 C96.2975244,172.504186 89.0122617,180.717883 83.9674709,190.020895 L61.1227129,203.161028 L63.5034007,204.207245 C63.379593,204.242912 63.2602603,204.284523 63.1454025,204.332078 M267,87.8928471 C266.838901,87.3028638 266.546536,87.0011847 266.164671,87.0011847 C265.811148,87.0011847 265.38155,87.2612529 264.913169,87.7917921 L266.215387,85.7171907 C266.579352,86.4201179 266.850834,87.16317 267,87.8928471" id="Fill-34" fill="#6334A9"></path>
                    <path d="M68,206.783029 L50.1866229,197 C49.4537546,198.205822 49,199.567378 49,200.793964 L49.0015593,351.901425 C49.0015593,354.348665 50.8243742,357.350614 53.0526057,358.575717 L57.6182191,361.082285 C59.8464506,362.305905 63.4920804,362.305905 65.7203119,361.082285 L68,359.830484 L68,206.783029" id="Fill-35" fill="#4A1E96"></path>
                    <path d="M61.6692655,362 C60.2004103,362 58.7315552,361.694466 57.6182191,361.081916 L53.0526057,358.575354 C51.8815757,357.931657 50.8228149,356.79703 50.0805909,355.511119 C49.4116537,354.348312 49.0015593,353.062401 49.0015593,351.901077 L49,200.793956 C49,199.567372 49.4537546,198.205819 50.1866229,197 L63.786787,204.469258 C62.514403,204.969087 61.6723841,206.170457 61.6723841,207.745586 L61.6723841,358.851224 C61.6723841,360.128236 62.1573246,361.001825 62.9369717,361.38745 C62.9447682,361.391899 62.9541239,361.396349 62.9634797,361.400798 C63.2425934,361.534284 63.5591301,361.603993 63.9037341,361.603993 C63.9052934,361.603993 63.9068527,361.603993 63.908412,361.603993 C63.9115306,361.603993 63.9162085,361.603993 63.9208863,361.603993 C64.4136233,361.601027 64.9640542,361.460125 65.5503488,361.166457 C65.5597046,361.162007 65.567501,361.157558 65.5752975,361.154592 C65.5752975,361.154592 65.5752975,361.154592 65.5752975,361.153108 C65.583094,361.150142 65.5908904,361.145693 65.5986869,361.142726 C65.609602,361.136793 65.6220763,361.130861 65.6329914,361.124928 C65.6376693,361.121962 65.6423471,361.118995 65.647025,361.117512 C65.6485843,361.116029 65.6501436,361.114546 65.6532622,361.114546 C65.6672959,361.105647 65.6813295,361.098231 65.6969224,361.090815 L65.726549,361.075983 L68,359.828635 L68,359.830118 L65.7203119,361.081916 C64.6069758,361.694466 63.1381206,362 61.6692655,362" id="Fill-36" fill="#54279D"></path>
                    <path d="M267,88.1360218 L267,240.21626 C267,241.483583 266.542104,242.901671 265.803562,244.142125 C265.199435,245.155684 264.429875,246.067739 263.558395,246.679756 L263.412164,246.767827 L263.159583,246.933519 L66.8404171,361.468757 L66.8123525,361.483684 C65.7931649,362.067339 64.8773731,362.140483 64.1979147,361.782229 C63.459373,361.394121 63,360.514906 63,359.229671 L63,207.150925 C63,204.68793 64.9202085,203.135497 67.3130838,203.71766 L149.86728,223.555965 L160.679531,226.154798 C163.072406,226.722033 166.159511,225.556215 167.577511,223.541037 L264.415104,87.285169 C265.833104,85.2849185 267,85.6580996 267,88.1360218" id="Fill-37" fill="#4A1E96"></path>
                    <path d="M63,360 L63,208.605722 C63,206.877497 63.955673,205.599532 65.3574252,205.198311 L78.8948954,211.212177 C78.6733329,212.967149 78.5595974,214.701318 78.5595974,216.398337 C78.5595974,223.887807 80.7959018,229.469245 84.5314459,232.723597 L84.5314459,324.631574 L63,357.485678 L63,360 M243.103743,123.717637 L245.790558,119.391874 L245.790558,122.157331 L243.103743,123.717637 M253.945536,106.265984 L264.799146,88.7905551 C265.26295,88.260051 265.68835,88 266.038419,88 C266.623344,88 267,88.7251709 267,90.1264744 L267,98.6828962 L253.945536,106.265984" id="Fill-38" fill="#7D4CBD"></path>
                    <path d="M263.116547,248.369247 L263.372352,248.202151 L263.52045,248.113333 C264.403053,247.496129 265.182436,246.576344 265.794275,245.554194 C266.530276,244.324301 266.986537,242.922796 267,241.659785 L179,207 L237.930949,263 L263.116547,248.369247" id="Fill-39" fill="#4A1E96"></path>
                    <path d="M62.2135351,361.784501 C62.9018534,362.139018 63.8295868,362.066637 64.8620643,361.48907 L64.8904948,361.474298 L133.363204,322.452309 L149,225 L61,356.759221 L61,359.258566 C61,360.530396 61.465363,361.40044 62.2135351,361.784501 Z" id="Fill-40" fill="#54279D"></path>
                    <path d="M65.0772397,362 C65.5324462,361.997116 66.0423926,361.860116 66.5825902,361.57458 C66.0409521,361.860116 65.5324462,361.997116 65.0772397,362 M64.1682673,361.789453 L64.1682673,361.789453 C63.4480038,361.414507 63,360.565109 63,359.323459 L63,356.883424 L83.9985595,325 L84,330.094945 L64.1682673,361.789453 M66.7453697,361.486612 L84,351.514479 L84,351.515922 L66.7453697,361.486612" id="Fill-41" fill="#4A1E96"></path>
                    <path d="M265,244.802274 C264.394691,245.810156 263.623625,246.717102 262.750441,247.325691 L262.603924,247.413268 L65.6476712,361.471733 L65.6195518,361.486576 C64.5983706,362.066962 63.6807875,362.139696 63,361.783449 L157.191385,210.966216 C161.095553,204.715563 168.983808,202.287144 175.711764,205.266261 L265,244.802274" id="Fill-42" fill="#7D4CBD"></path>
                    <path d="M63.950316,362 L63.950316,362 C63.9487906,362 63.9472652,362 63.9457398,362 C63.5979516,362 63.2791458,361.92542 63,361.782227 L84,329 L84,351.154628 L65.728917,361.468993 L65.6999346,361.483909 C65.0684245,361.832942 64.475049,362 63.950316,362" id="Fill-43" fill="#7D4CBD"></path>
                    <path d="M63,204.531123 L153.469334,244.728634 C160.203326,247.720957 168.097636,245.279734 171.997432,238.997197 L267,86 L63,204.531123" id="Fill-44" fill="#7D4CBD"></path>
                    <path d="M78.9262613,211 L63,203.957809 L79.0683411,209.969833 C79.0180212,210.313716 78.9706612,210.657599 78.9262613,211 M126.259566,167.380216 L126.259566,167.380216 L267,86 L254.322335,106.318744 L253.416576,106.84198 L267,86 L126.259566,167.380216 M241.77787,124.698699 L246.151265,117.988533 L246.151265,119.411498 L243.459148,123.72634 L241.77787,124.698699" id="Fill-45" fill="#4A1E96"></path>
                    <path d="M63,203.970957 L154.104253,238.060679 C160.591085,240.488883 167.891917,238.08588 171.677752,232.27776 L267,86 L63,203.970957" id="Fill-46" fill="#4A1E96"></path>
                    <path d="M79.0683411,211 L63,204.938017 L85.6661733,191.723014 C82.3583772,197.907552 80.02442,204.571847 79.0683411,211 M137.565272,185.780597 C137.435032,184.011024 137.152353,182.381941 136.783833,180.841037 L139.71275,175.898489 L126.259566,168.056471 L267,86 L253.416576,107.015173 L250.36778,108.792219 C249.157141,109.50214 248.128542,110.654455 247.376703,111.965194 C246.629304,113.277428 246.155705,114.752571 246.151265,116.164941 L246.151265,118.254352 L241.77787,125.020278 L137.565272,185.780597" id="Fill-47" fill="#7D4CBD"></path>
                    <path d="M84,219.575963 C84,217.115 85.7337555,214.122338 87.8729981,212.892599 L286.014566,98.9234181 C288.153808,97.692194 291.621319,97.692194 293.760562,98.9234181 L298.127002,101.433393 C300.264754,102.664617 302,105.655794 302,108.116757 L302,259.429606 C302,261.878688 300.2573,264.886202 298.127002,266.11297 L99.9854343,380.082151 C97.8551363,381.30595 94.3697362,381.30595 92.2379474,380.082151 L87.8744888,377.570692 C85.7441908,376.345408 84,373.337894 84,370.887327 L84,219.575963" id="Fill-48" fill="#271054"></path>
                    <path d="M87.8729981,212.892599 L286.014566,98.9234181 C288.153808,97.692194 291.621319,97.692194 293.760562,98.9234181 L298.127002,101.433393 C300.264754,102.664617 302,105.655794 302,108.116757 L302,259.429606 C302,261.878688 300.2573,264.886202 298.127002,266.11297 L99.9854343,380.082151 C97.8551363,381.30595 94.3697362,381.30595 92.2379474,380.082151 L87.8744888,377.570692 C85.7441908,376.345408 84,373.337894 84,370.887327 L84,219.575963 C84,217.115 85.7337555,214.122338 87.8729981,212.892599 Z" id="Fill-49" fill="#271054"></path>
                    <path d="M103,225.783018 L85.1850636,216 C84.4537546,217.207304 84,218.567375 84,219.795443 L84.0015593,370.901251 C84.0015593,373.348489 85.8243742,376.351917 88.0526057,377.575536 L92.6166598,380.0821 C94.8464506,381.305719 98.4920804,381.305719 100.720312,380.083584 L103,378.830301 L103,225.783018" id="Fill-50" fill="#271054"></path>
                    <path d="M300,259.215368 C300,260.484188 299.542104,261.900789 298.803562,263.139755 C298.197958,264.156304 297.429875,265.06687 296.558395,265.678889 L296.410687,265.768453 L296.159583,265.932653 L99.8404171,380.46983 L99.8108754,380.484757 C98.7916878,381.066922 97.875896,381.140066 97.1964376,380.783303 C96.4578959,380.393701 96,379.51299 96,378.230735 L96,226.151397 C96,223.688393 97.9202085,222.135953 100.313084,222.718118 L182.86728,242.5565 L193.679531,245.153851 C196.072406,245.721088 199.159511,244.555266 200.577511,242.541573 L297.415104,106.285174 C298.833104,104.284916 300,104.658098 300,107.13603 L300,259.215368 Z" id="Fill-51" fill="#4A1E96"></path>
                    <path d="M298.116547,266.368854 L298.370856,266.203258 L298.52045,266.112933 C299.403053,265.495712 300.18094,264.577408 300.794275,263.552219 C301.52878,262.323799 301.985041,260.922256 302,259.659211 L214,225 L272.929453,281 L298.116547,266.368854" id="Fill-52" fill="#271054"></path>
                    <path d="M96,378.259639 C96,379.52851 96.4638667,380.400029 97.2120388,380.785565 C97.9003571,381.138604 98.8280905,381.066224 99.8605679,380.490135 L99.8904948,380.475364 L168.363204,341.452015 L184,244 L96,375.760301 L96,378.259639" id="Fill-53" fill="#271054"></path>
                    <path d="M300,263.800174 C299.393216,264.811027 298.623635,265.71649 297.750458,266.32508 L297.602462,266.414142 L100.649132,380.472801 L100.619533,380.487644 C99.5983589,381.066547 98.6807825,381.139281 98,380.784518 L192.192175,229.967027 C196.096315,223.714878 203.983032,221.287941 210.710939,224.265578 L300,263.800174" id="Fill-54" fill="#4A1E96"></path>
                    <path d="M96,223.532213 L186.46999,263.729589 C193.202551,266.720412 201.098399,264.279197 204.998223,257.996682 L300,105 L96,223.532213" id="Fill-55" fill="#271054"></path>
                    <path d="M96,222.971805 L187.104914,257.061345 C193.591793,259.488053 200.892678,257.086546 204.677061,251.276974 L300,105 L96,222.971805" id="Fill-56" fill="#4A1E96"></path>
                    <path d="M228,339.913455 L228,188.990253 C228,186.545973 229.17472,182.921031 230.608832,180.935979 L325.112669,50.1729052 C328.641301,45.2917513 334.786219,43.0119044 340.668764,44.4029221 L429.537522,65.3970683 C431.930194,65.9614749 435.631755,67.423599 437.762053,68.6472205 L442.128493,71.1507562 C444.2573,72.3728963 446,75.372695 446,77.8169753 L446,228.741659 C446,231.184458 444.2573,234.185738 442.128493,235.407878 L243.985434,349.084691 C241.855136,350.30535 238.369736,350.30535 236.239438,349.08321 L231.874489,346.579674 C229.744191,345.357534 228,342.357735 228,339.913455" id="Fill-57" fill="#7D4CBD"></path>
                    <path d="M240.121304,350 C238.716152,350 237.310999,349.694835 236.244456,349.083025 C237.310999,349.694835 238.716152,350 240.119813,350 C241.524965,350 242.930117,349.694835 243.995169,349.083025 L245.853789,348.017912 L289.055513,323.247739 L243.995169,349.084506 C242.930117,349.694835 241.524965,350 240.121304,350 M236.244456,349.083025 L231.876848,346.579491 C229.745253,345.357352 228.001492,342.357555 228.001492,339.913276 L228.001492,232.400564 L228,188.990173 L228.001492,339.913276 C228.001492,342.357555 229.745253,345.357352 231.87834,346.579491 L236.244456,349.083025 M442.351377,235.352956 L442.512477,235.247778 L442.564686,235.21815 C442.494577,235.264073 442.422977,235.309996 442.351377,235.352956 M444.120497,233.788618 C444.414356,233.431605 444.685839,233.044964 444.930473,232.642029 C444.94539,232.615364 444.960307,232.59018 444.976715,232.564997 C444.723131,232.996079 444.435239,233.409384 444.120497,233.788618 M245.431647,192.751399 L244.479962,192.526229 C244.135386,192.443272 243.801252,192.404756 243.482035,192.404756 C243.001717,192.404756 242.552725,192.493639 242.149974,192.658072 L228.718985,184.957853 C228.283417,186.342945 228.00895,187.769515 228.001492,188.93388 C228.0179,186.491083 229.185877,182.90614 230.610421,180.935904 L245.431647,160.440996 L245.431647,192.751399 M440.819433,80.7234368 L440.819433,70.3256231 L442.258894,71.1507523 C444.041438,72.1729052 445.553991,74.4408997 446,76.5859395 C445.8389,76.0007939 445.546533,75.7030363 445.166157,75.7030363 C444.717164,75.7030363 444.145855,76.1207858 443.526812,76.9785055 L440.819433,80.7234368 M306.311143,76.2541101 L325.171809,50.1729149 C328.013439,46.2442923 332.552588,44 337.287146,44 C338.432748,44 339.590284,44.1318429 340.737377,44.4029357 L355.701803,47.9360295 L306.311143,76.2541101" id="Fill-58" fill="#7D4CBD"></path>
                    <g id="Group-62" transform="translate(245.000000, 0.000000)">
                        <mask id="mask-3" fill="white">
                            <use xlink:href="#path-2"></use>
                        </mask>
                        <g id="Clip-60"></g>
                        <path d="M1.05059091,115.46421 L1.05059091,309.260395 C1.05059091,311.728624 2.78777273,312.730224 4.92790909,311.49611 L191.16753,204.111771 C193.309159,202.877657 195.044848,199.874348 195.044848,197.404629 L195.044848,3.60844286 C195.044848,1.13872381 193.309159,0.13712381 191.16753,1.37272857 L4.92790909,108.757067 C2.78777273,109.992671 1.05059091,112.995981 1.05059091,115.46421" id="Fill-59" fill="#FAF9F6" mask="url(#mask-3)"></path>
                        <path d="M1.05059091,115.46421 L0.304378788,115.46421 L0.304378788,309.260395 C0.304378788,310.256033 0.552121212,311.12051 1.06402273,311.764395 C1.57144697,312.411262 2.36243182,312.777919 3.19669697,312.770578 C3.8817197,312.770578 4.59211364,312.549876 5.30101515,312.141486 L191.540636,204.757148 C192.759947,204.050662 193.797182,202.901505 194.555333,201.594357 C195.309008,200.284229 195.786583,198.813129 195.791061,197.404629 L195.791061,3.60844286 C195.791061,2.61131429 195.544811,1.74832857 195.031417,1.10444286 C194.523992,0.45757619 193.733008,0.0909190476 192.898742,0.0982599953 C192.21372,0.0982599953 191.503326,0.318961905 190.794424,0.727352381 L4.55629545,108.11169 C3.33549242,108.819667 2.29825758,109.968824 1.54010606,111.275971 C0.786431818,112.58461 0.308856061,114.05571 0.304378788,115.46421 L1.79680303,115.46421 C1.79381818,114.404481 2.18334091,113.139067 2.83254545,112.02121 C3.47727273,110.900371 4.38018939,109.930071 5.30101515,109.402443 L191.540636,2.01810476 C192.076417,1.70808571 192.542053,1.58735714 192.898742,1.58884762 C193.337515,1.5963 193.618091,1.73640476 193.865833,2.0345 C194.107606,2.33408571 194.298636,2.85277143 194.298636,3.60844286 L194.298636,197.404629 C194.301621,198.465848 193.912098,199.731262 193.262894,200.849119 C192.618167,201.969957 191.71525,202.938767 190.794424,203.466395 L4.55629545,310.850733 C4.02051515,311.159262 3.55487879,311.27999 3.19669697,311.27999 C2.75941667,311.271048 2.47734848,311.132433 2.22960606,310.834338 C1.98783333,310.534752 1.79680303,310.016067 1.79680303,309.260395 L1.79680303,115.46421 L1.05059091,115.46421" id="Fill-61" fill="#D4D5CF" mask="url(#mask-3)"></path>
                    </g>
                    <path d="M243.063163,193.701232 L228.765143,186 C228.295263,187.406956 228,188.85538 228,190.031299 L228.001587,340.9162 C228.001587,343.35986 229.857298,346.358897 232.127329,347.580727 L236.773749,350.083627 C239.042192,351.305458 242.753614,351.305458 245.022057,350.083627 L247,349.018784 L243.063163,193.701232" id="Fill-63" fill="#7D4CBD"></path>
                    <path d="M240.897903,351 C239.404127,351 237.908764,350.694913 236.773749,350.083259 L232.127329,347.580365 C229.857298,346.358537 228.001587,343.359507 228.001587,340.915852 L228,190.03129 C228,188.855373 228.295263,187.406953 228.765143,186 L243.058401,193.698252 C241.75988,194.19735 240.902665,195.396963 240.902665,196.97275 L240.902665,347.857312 C240.902665,349.130974 241.39477,350.003285 242.188487,350.389827 C242.209124,350.400194 242.231348,350.410561 242.253572,350.419447 C242.528198,350.540889 242.837748,350.604572 243.172696,350.604572 C243.174284,350.604572 243.175871,350.604572 243.177458,350.604572 C243.180633,350.604572 243.185396,350.604572 243.190158,350.604572 C243.717186,350.60161 244.310886,350.446105 244.941098,350.123246 C244.949035,350.118803 244.956972,350.11436 244.963322,350.111398 C244.968084,350.108436 244.974434,350.105474 244.979196,350.103993 C244.985546,350.09955 244.991896,350.096588 244.998245,350.093626 L245.029994,350.078816 L247,349.018418 L245.022057,350.083259 C243.888629,350.694913 242.393266,351 240.897903,351" id="Fill-64" fill="#54279D"></path>
                    <path d="M446,76.1360302 L446,228.215368 C446,229.484188 445.543578,230.900789 444.805031,232.141248 C444.197945,233.156304 443.429856,234.06687 442.558371,234.678889 L442.410661,234.76696 L442.161032,234.932653 L245.840445,349.46983 L245.810903,349.484757 C244.791708,350.066922 243.87591,350.140066 243.196446,349.783303 C242.457899,349.393701 242,348.514483 242,347.230735 L242,195.151397 C242,192.688393 243.920222,191.135953 246.313115,191.718118 L328.866432,211.555008 L339.680238,214.153851 C342.073131,214.721088 345.160257,213.556759 346.578268,211.541573 L443.415085,75.285174 C444.833096,73.2849158 446,73.6580983 446,76.1360302" id="Fill-65" fill="#7D4CBD"></path>
                    <path d="M245.840445,348 L245.840445,348 L313.430797,308.775481 L313.432275,308.769542 L417.280858,248.49551 L417.291198,248.504419 L442.161032,234.073989 L245.840445,348 M242,345.772853 L242,194.505004 C242,192.402577 243.412102,190.968294 245.324939,190.968294 C245.641037,190.968294 245.971906,191.006898 246.313115,191.090045 L328.866432,210.821086 L328.873817,210.824055 L328.864954,210.838903 L328.866432,210.821086 L242,343.26063 L242,345.772853 M444.805031,231.297479 C445.530284,230.084426 445.980798,228.703594 445.994092,227.456392 L359.220717,193.318677 L359.105504,193.268195 L443.415085,75.2783826 C444.028079,74.4187037 444.593806,74 445.038412,74 C445.623341,74 446,74.7245653 446,76.1246986 L446,227.392547 C446,227.738497 445.966027,228.094841 445.901035,228.457123 C445.728215,229.414797 445.339739,230.402165 444.805031,231.297479" id="Fill-66" fill="#7D4CBD"></path>
                    <path d="M442.118043,236.368854 L442.370856,236.201753 L442.52045,236.112933 C443.403053,235.495712 444.18094,234.577408 444.795771,233.553725 C445.530276,232.323799 445.986537,230.923761 446,229.659211 L358,195 L416.930949,251 L442.118043,236.368854" id="Fill-67" fill="#54279D"></path>
                    <path d="M240,348.259639 C240,349.529988 240.463875,350.400029 241.212059,350.785565 C241.900389,351.138604 242.828139,351.066224 243.860634,350.490135 L243.890561,350.475364 L312.362938,311.452015 L328,214 L240,345.760301 L240,348.259639" id="Fill-68" fill="#54279D"></path>
                    <path d="M444,233.801684 C443.391736,234.811053 442.622155,235.716516 441.748978,236.325105 L441.600982,236.412683 L244.649132,350.472801 L244.619533,350.487645 C243.598359,351.066547 242.680782,351.139281 242,350.784518 L336.192175,199.965576 C340.096315,193.714914 347.983032,191.287976 354.710939,194.265613 L444,233.801684" id="Fill-69" fill="#7D4CBD"></path>
                    <path d="M242.922016,351 L242.922016,351 C242.920536,351 242.919056,351 242.917576,351 C242.580145,351 242.270833,350.925782 242,350.784767 L336.192175,199.966113 C338.973024,195.513026 343.7755,193 348.740772,193 C350.744641,193 352.775148,193.409684 354.710939,194.266161 L444,233.802157 C443.391736,234.811524 442.622155,235.716985 441.748978,236.325573 L441.600982,236.413151 L244.649132,350.473051 L244.619533,350.487895 C244.006828,350.835236 243.431123,351 242.922016,351" id="Fill-70" fill="#7D4CBD"></path>
                    <path d="M348.459503,131.689625 C350.034148,129.613649 350.819977,127.606772 350.819977,125.671998 L350.819977,116.505857 C349.202006,116.523883 347.213531,117.216376 344.853057,118.58634 C341.880055,120.312314 339.518088,122.517476 337.771636,125.203326 C336.022196,127.889177 335.148223,130.725242 335.148223,133.71603 C335.148223,136.265184 335.781667,137.776351 337.048554,138.248027 C338.316935,138.722707 340.283001,138.183434 342.951233,136.634714 C345.050261,135.416468 346.884858,133.770107 348.459503,131.689625 Z M328.9841,159.939123 C324.874186,160.281614 321.683065,159.179033 319.410735,156.629879 C317.136912,154.083729 316,150.170619 316,144.896558 C316,138.874425 317.214598,133.125684 319.639313,127.651836 C322.067015,122.176487 325.48522,117.148779 329.901398,112.562705 C334.317575,107.978132 339.518088,103.946352 345.507416,100.470369 C351.102337,97.2227133 355.889019,95.4216313 359.870451,95.0671231 C363.847402,94.7156191 366.862235,95.7445943 368.917938,98.1555506 C370.972148,100.566507 372,104.234766 372,109.155821 C372,114.387821 370.885498,119.067029 368.654999,123.197951 C366.425995,127.325869 363.475403,130.457859 359.804717,132.589415 C358.010458,133.628905 356.534415,134.023971 355.378081,133.773112 C354.21876,133.522252 353.443389,132.765167 353.048981,131.498851 C351.825419,133.836202 350.262725,135.984282 348.360901,137.944592 C346.459076,139.904902 344.32718,141.572293 341.9682,142.942257 C337.901611,145.258577 334.665671,145.994632 332.263366,145.145916 C329.859567,144.300203 328.655426,141.8562 328.655426,137.812402 C328.655426,132.801218 330.141927,128.049907 333.114929,123.553962 C336.087931,119.059518 340.153025,115.31465 345.310212,112.319356 C347.542205,111.026002 349.72639,110.142735 351.868744,109.668055 C354.011098,109.194877 355.759044,109.179855 357.115569,109.621488 L357.115569,125.446675 C357.115569,126.720501 357.332195,127.506127 357.769929,127.800549 C358.206168,128.097976 358.927756,127.953769 359.934692,127.369431 C361.639313,126.379512 362.961477,124.623495 363.902678,122.098375 C364.840892,119.576259 365.311493,116.534398 365.311493,112.972793 C365.311493,109.019125 364.45993,106.148509 362.753815,104.371462 C361.049194,102.59141 358.699178,101.867372 355.703767,102.199348 C352.711344,102.531324 349.288656,103.814163 345.441682,106.047865 C338.403586,110.133722 332.853484,115.146409 328.786896,121.088928 C324.721801,127.031447 322.690001,133.672467 322.690001,141.013491 C322.690001,145.320165 323.574432,148.467177 325.343293,150.45002 C327.116636,152.432862 329.541351,153.27557 332.623413,152.98265 C335.705474,152.688228 339.213318,151.397878 343.148437,149.113103 C345.290791,147.870822 347.355458,146.407725 349.345427,144.725313 C351.333902,143.042901 352.962331,141.374008 354.230712,139.712627 C354.447338,139.454256 354.623626,139.286015 354.755096,139.210907 C354.886565,139.134297 355.01654,139.191379 355.146516,139.379148 L356.786896,142.383455 C356.87504,142.596761 356.918365,142.724444 356.918365,142.768007 C356.918365,142.987321 356.764486,143.274232 356.458222,143.628741 C354.841746,145.622098 352.862235,147.604941 350.52417,149.578771 C348.184612,151.551098 345.747946,153.274068 343.214171,154.744676 C337.835877,157.867653 333.094013,159.598134 328.9841,159.939123 L328.9841,159.939123 Z" id="Fill-71" fill="#D4D5CF"></path>
                    <path d="M139,175.207978 L124.837914,166.824522 L124.824838,166.818563 L124.724594,166.758968 L124.714424,166.775357 C119.864912,163.968456 113.206639,164.391577 105.846655,168.749425 C91.02063,177.527694 79,198.877422 79,216.433961 C79,225.198822 81.997167,231.357913 86.8379622,234.240797 L86.8379622,234.245266 L86.8612073,234.255695 L86.8641129,234.258675 L100.04264,242 L102.418,237.923736 C104.87036,237.34716 107.422964,236.448773 110.117945,234.85462 C124.94397,226.074861 136.9646,204.725132 136.967505,187.167104 C136.967505,184.559845 136.626093,182.263967 136.12487,180.134953 L139,175.207978" id="Fill-72" fill="#E88385"></path>
                    <path d="M139,175.207978 L124.837914,166.824522 L124.824838,166.818563 L124.724594,166.758968 L124.714424,166.775357 C119.864912,163.968456 113.206639,164.391577 105.846655,168.749425 C91.02063,177.527694 79,198.877422 79,216.433961 C79,225.198822 81.997167,231.357913 86.8379622,234.240797 L86.8379622,234.245266 L86.8612073,234.255695 L86.8641129,234.258675 L100.04264,242 L102.418,237.923736 C104.87036,237.34716 107.422964,236.448773 110.117945,234.85462 C124.94397,226.074861 136.9646,204.725132 136.967505,187.167104 C136.967505,184.559845 136.626093,182.263967 136.12487,180.134953 L139,175.207978" id="Fill-73" fill="#4A1E96"></path>
                    <path d="M100.04264,242 L86.8641129,234.258731 L86.8612073,234.255751 L86.8379622,234.245322 L86.8379622,234.240853 C81.997167,231.35799 79,225.198944 79,216.434147 C79,198.877735 91.02063,177.528162 105.846655,168.749956 C110.147001,166.2038 114.207632,165 117.809172,165 C120.370493,165 122.699363,165.609349 124.714424,166.775903 L124.724594,166.759515 L124.824838,166.819109 L124.837914,166.825068 L139,175.208463 L136.12487,180.135402 C136.626093,182.2644 136.967505,184.560262 136.967505,187.167502 C136.967505,191.348025 136.286133,195.740108 135.046878,200.129211 C131.828882,211.535515 124.848083,222.904572 116.28807,230.35681 C115.939393,230.65925 115.590716,230.95573 115.237681,231.246251 C113.580014,232.604996 111.868592,233.817735 110.117945,234.854672 C107.422964,236.448813 104.87036,237.347193 102.418,237.923766 L100.04264,242" id="Fill-74" fill="#6032A6"></path>
                    <path d="M119.001515,175.807273 C103.537879,184.697937 91,206.317353 91,224.095664 C91,241.875484 103.536364,249.082458 118.998485,240.191794 C134.462121,231.302639 146.998485,209.683223 147,191.903403 C147,174.125092 134.465152,166.918117 119.001515,175.807273" id="Fill-75" fill="#7D4CBD"></path>
                    <path d="M110.401293,226.974168 C110.131894,226.948206 110,226.814069 110,226.568873 C110,226.385697 110.072962,226.127519 110.221694,225.792898 L111.51818,222.775538 C111.696376,222.363031 111.859139,222.113508 112.009273,222.024083 C112.127135,221.953409 112.336201,221.908697 112.633663,221.882735 C113.617252,221.849561 114.756589,221.62023 116.050268,221.186088 C117.345351,220.757715 118.752684,220.089915 120.272267,219.188457 C122.712299,217.738913 124.508297,216.192733 125.653245,214.547031 C126.799597,212.902772 127.373475,211.223897 127.373475,209.508964 C127.373475,206.325736 125.482064,205.85842 121.700647,208.099805 L117.948694,210.328209 C117.352367,210.680138 116.928624,210.802736 116.677465,210.691677 C116.422096,210.584944 116.297218,210.238784 116.297218,209.65464 L116.297218,208.460388 C116.297218,207.91086 116.422096,207.437774 116.677465,207.044018 C116.928624,206.647376 117.352367,206.275254 117.948694,205.920441 L121.610847,203.746846 C123.220229,202.793464 124.425512,201.64104 125.228099,200.291017 C126.033492,198.942436 126.436188,197.592413 126.436188,196.246716 C126.436188,193.155798 124.321681,192.865889 120.092667,195.374105 C117.473036,196.92894 115.164898,198.865992 113.171059,201.180936 C112.872194,201.51123 112.663128,201.711714 112.543863,201.780946 C112.395132,201.871813 112.232369,201.829986 112.054173,201.65979 L110.802587,200.246305 C110.655259,200.08909 110.57949,199.918895 110.57949,199.734276 C110.57949,199.491965 110.71419,199.194844 110.982186,198.853011 C112.023304,197.469814 113.40959,196.052002 115.135432,194.59813 C116.861274,193.144259 118.783553,191.789909 120.895254,190.536522 C123.187958,189.17496 125.176184,188.362927 126.858529,188.09898 C128.540874,187.835033 129.83736,188.09898 130.745181,188.890821 C131.653001,189.684104 132.107613,190.966337 132.107613,192.741848 C132.107613,194.181296 131.770864,195.711611 131.102977,197.332793 C130.432284,198.955417 129.472548,200.474193 128.220961,201.890564 C129.830344,201.547288 131.027208,201.779504 131.817167,202.578556 C132.604319,203.381935 133,204.641092 133,206.35314 C133,209.230594 131.965898,212.162856 129.894888,215.151369 C127.826684,218.139882 124.88714,220.764927 121.074854,223.025062 C116.252318,225.889534 112.692594,227.204942 110.401293,226.974168" id="Fill-76" fill="#FFFFFE"></path>
                    <path d="M368.11349,332.594141 C338.628837,349.387804 338.628837,376.613672 368.11349,393.405859 C397.598144,410.198047 445.402604,410.198047 474.887258,393.405859 C504.371912,376.613672 504.370415,349.387804 474.885762,332.594141 C445.401108,315.801953 397.598144,315.801953 368.11349,332.594141" id="Fill-77" fill="#E4E4DE"></path>
                    <path d="M420.218938,391.156444 L420.204541,391.1464 L420.482403,390.896754 C420.685401,390.72315 420.889838,390.552415 421.081318,390.363029 C421.292954,390.15499 421.510348,389.945517 421.727743,389.738914 C421.946577,389.530875 422.162532,389.325706 422.371289,389.124842 C422.788802,388.724547 423.171762,388.34147 423.461141,388 L432,394.361669 L431.978405,394.407581 C430.615009,395.7462 429.204103,398.291441 428.986709,398.944251 C428.986709,398.945686 427.967401,400.59708 424.487647,399.766361 C420.231895,398.75056 419.558116,392.420456 420.218938,391.156444" id="Fill-78" fill="#EB9598"></path>
                    <path d="M368.760111,388 C364.751303,383.262885 368.317475,375.398675 372.215624,365.182397 C376.498867,353.955734 383.108901,334.875354 383.108901,334.875354 L430.046043,325.027852 C430.046043,325.027852 480.050653,324.044451 484.707186,333.764531 C488.431232,341.535798 455.490246,353.20619 450.758465,353.676904 L421.771697,355.270433 L418.738163,356.754529 L398.443294,382.864128 L368.760111,388" id="Fill-79" fill="#7D4CBD"></path>
                    <path d="M455.543873,341.285703 C455.543873,341.285703 449.131124,347.568774 445.213556,352.883096 C436.610211,364.553108 423,385.599798 423,385.599798 C423,385.599798 425.12758,392.288088 431.61985,391.990346 C431.61985,391.990346 476.338042,351.567224 479.988537,347.83892 C485.534049,342.17457 489.964757,332.834203 480.399649,332.065885 C470.834542,331.296114 459.270889,337.448469 455.543873,341.285703" id="Fill-80" fill="#7D4CBD"></path>
                    <path d="M446.49608,354.772573 C446.49608,354.772573 454.594816,343.634364 463,339 C463,339 454.645129,340.55194 442,355 L446.49608,354.772573" id="Fill-81" fill="#4A1E96"></path>
                    <path d="M442,355 C454.645129,340.55194 463,339 463,339 C460.731378,340.251564 458.4841,341.976578 456.412153,343.828893 C451.072964,348.603433 446.901626,354.220454 446.523523,354.735384 C446.505227,354.7597 446.49608,354.772573 446.49608,354.772573 L446.494555,354.772573 L442,355" id="Fill-82" fill="#00A593"></path>
                    <path d="M449.493734,369.607976 L446,370.202408 L449.236424,381 C449.236424,381 452.385965,380.732129 453.460317,380.784801 C454.53467,380.837472 458,379.201655 458,379.201655 L457.154553,372.614748 L453.308271,369 L449.493734,369.607976" id="Fill-83" fill="#EB9598"></path>
                    <path d="M475.625239,371.2201 C478.725034,372.260251 480.809971,374.952936 482.156151,377.908286 C482.865059,379.46476 483.327715,381.121798 483.787386,382.77133 C484.273921,384.513921 484.042593,387.478276 481.847216,387.955575 C481.148754,388.10717 480.435369,387.843004 479.768249,387.581841 C475.374509,385.861764 471.065838,383.885027 466.563151,382.45163 C462.723106,381.228364 459.017381,379.978082 454.543049,379.814479 C456.814541,376.558942 455.866843,371.850495 454.184864,370.191956 C452.799881,368.827603 451,368.667002 451,368.667002 C452.135746,368.155182 453.19687,367.494768 454.28038,366.883886 C456.426507,365.672628 458.733817,364.596454 461.250069,365.1488 C463.136512,365.561558 464.560298,367.062498 466.1587,368.149178 C469.204767,370.220474 472.137409,370.049367 475.625239,371.2201" id="Fill-84" fill="#271054"></path>
                    <path d="M374.765807,376.959688 C378.702451,375.814481 384.990893,374.79983 403.667479,373.887354 C422.51633,372.966363 447.867833,369 447.867833,369 C452.214917,372.962105 450.769384,379.181986 450.769384,379.181986 C450.769384,379.181986 417.616498,389.11847 406.816194,390.436807 C389.627085,392.537063 383.689165,392.379544 375.928226,390.804352 C367.210089,389.034744 361.717064,380.760017 374.765807,376.959688" id="Fill-85" fill="#7D4CBD"></path>
                    <polyline id="Fill-86" fill="#E88385" points="443.649576 290 458 322.929898 447.732407 329 428 296.890147 443.649576 290"></polyline>
                    <path d="M414,258 C421.418061,258.077817 429.588804,260.810219 432.400851,266.697879 C435.209997,272.588475 444,290.93125 444,290.93125 C444,290.93125 437.440491,300.651027 427.040704,299.965357 L414,258" id="Fill-87" fill="#D4D5CF"></path>
                    <path d="M362.521078,309 C362.615229,307.745515 364.483296,301.611673 366.481381,295 L381,299.828831 L377.103959,311.700969 L364.81357,323 C360.46471,315.868633 362.429916,310.255929 362.521078,309" id="Fill-88" fill="#EB9598"></path>
                    <path d="M398.312243,258.455153 C389.355538,260.624519 377.143987,263.44706 373.604194,273.215118 C370.104058,282.876777 365,300.274561 365,300.274561 C366.962308,303.702987 377.766756,306.547694 381.513648,304.55566 L383.274732,298.697781 L383.274732,334.63862 C390.27941,342.30529 424.840127,340.341334 430,324.929673 C430,324.929673 430,283.763439 430,275.932737 C430,268.103512 425.67734,258.698985 413.738984,258 L398.312243,258.455153" id="Fill-89" fill="#FAF9F6"></path>
                    <polyline id="Fill-90" fill="#D4D5CF" points="383 300.507283 388 286 383 307 383 300.507283"></polyline>
                    <path d="M393.580142,218.038422 C393.580142,218.038422 391.148779,217.614014 389.252749,219.586265 C387.394236,221.520334 387.780945,225.102107 389.255635,233.330345 L395,234 L393.580142,218.038422" id="Fill-91" fill="#271054"></path>
                    <path d="M428.537283,216.942967 C428.537283,216.942967 430.90825,216.944323 432.208743,216.256394 C434.01056,215.305234 434.48092,217.188559 433.493017,218.824935 C432.506588,220.462667 430.663486,222.595655 426.682384,223 C426.630777,222.765263 425,218.781515 425,218.781515 L428.537283,216.942967" id="Fill-92" fill="#271054"></path>
                    <path d="M398.140323,233.856044 C397.254876,234.379796 395.988235,232.692483 394.894183,231.557192 C393.80163,230.421901 390.229825,228.871478 388.448424,232.592791 C386.634007,236.385526 390.75359,241.428122 393.174313,243.094603 C396.049767,245.075039 398.140323,243.521639 398.140323,243.521639 L398.773643,258.023008 C398.773643,258.023008 401.946247,265.718584 410.536589,266.873217 C419.126931,268.027851 417.357537,261.006308 414.536111,257.564726 L414.522604,252.292989 C414.522604,252.292989 418.958846,253.178307 421.053905,252.624797 C422.174972,252.328699 424.846322,249.125185 426.572194,245.540761 C428.508173,241.517397 431.728801,234.373844 428.860851,222.288874 C425.779794,209.30817 411.716185,208.912381 403.328446,214.14692 C394.942207,219.37997 398.140323,233.856044 398.140323,233.856044" id="Fill-93" fill="#EB9598"></path>
                    <path d="M396.851717,235 C396.403124,235.00878 394.696357,232.257136 393.584693,231.275873 C392.045582,229.914718 394.031776,217.595393 394.031776,217.595393 C394.031776,217.595393 392.47454,212.922292 395.518022,209.823026 C398.559994,206.72376 404.458157,207.247394 408.768876,207.096317 C413.256313,206.939374 418.057916,206.675357 424.182641,204.092391 C430.307366,201.509425 430.765022,201.204338 431.524759,203.815173 C432.284497,206.427474 432.571476,212.407459 428.916276,216.416117 L426.934614,219.57112 C426.934614,219.57112 425.072275,221.090684 419.361403,221.765394 C413.64751,222.441571 403.914408,219.461113 402.697015,219.299769 C401.041603,219.079755 400.688166,220.638922 399.795512,224.896929 C399.011608,228.635703 398.360619,234.970644 396.851717,235" id="Fill-94" fill="#271054"></path>
                    <path d="M394.707042,218 L390,214.852587 C390.669048,213.172216 392.263964,212.51418 393.562549,213.383903 C394.862451,214.251986 395.374773,216.319629 394.707042,218" id="Fill-95" fill="#271054"></path>
                    <path d="M414,252.883589 C414,252.883589 406.362195,251.28052 403.691342,249.802035 C401.904046,248.812875 400.43241,247.097231 400,246 C400,246 400.500154,248.359573 402.097189,250.48499 C404.050242,253.084723 414,255 414,255 L414,252.883589" id="Fill-96" fill="#E88385"></path>
                    <path d="M414,233.00272 C414,233.555754 413.552731,234.001808 413.000942,234 C412.448211,233.999088 412,233.550314 412,232.998187 C412,232.444246 412.448211,231.998192 413.000942,232 C413.552731,232.000912 414,232.450592 414,233.00272" id="Fill-97" fill="#271054"></path>
                    <path d="M414,228.724198 L409.315035,230 C408.621883,229.334629 409.110802,228.511564 410.406337,228.159548 C411.699808,227.806515 413.308911,228.058827 414,228.724198" id="Fill-98" fill="#271054"></path>
                    <path d="M411.150982,244 L416,245.014544 C415.518098,245.789388 414.044396,246.190747 412.706667,245.910911 C411.366938,245.62996 410.673079,244.774844 411.150982,244" id="Fill-99" fill="#E88385"></path>
                    <path d="M426.783016,230 L425,228.505886 C425.364004,227.950742 426.05759,227.834658 426.550673,228.246569 C427.042035,228.659416 427.147019,229.444856 426.783016,230" id="Fill-100" fill="#271054"></path>
                    <path d="M427,233.003174 C427,233.555052 426.552731,234.000905 426,234 C425.448211,233.998186 425,233.549615 425,232.997737 C425,232.445858 425.448211,231.998193 426,232 C426.552731,232.001818 427,232.450389 427,233.003174" id="Fill-101" fill="#271054"></path>
                    <polyline id="Fill-102" fill="#E88385" points="419.42898 235 418 244 423 243.414437 419.42898 235"></polyline>
                    <path d="M474,341.479642 L441.631558,323.243023 C441.056179,322.918992 440.348598,322.918992 439.771717,323.243023 L383,355.237014 L416.290851,374 L474,341.479642" id="Fill-103" fill="#4A1E96"></path>
                    <polyline id="Fill-104" fill="#271054" points="417.052278 371 400 361.069225 449.85968 332 467 341.880395 417.052278 371"></polyline>
                    <polyline id="Fill-105" fill="#271054" points="409 342.907463 409.304308 343.092537 417.364923 348 431.701354 339.270149 432 339.091045 423.635077 334 409 342.907463"></polyline>
                    <polyline id="Fill-106" fill="#271054" points="409 342.962023 417.277616 348 432 339.037977 423.71657 334 409 342.962023"></polyline>
                    <path d="M383,354.9385 L383,355.690166 C383,356.792411 383.594909,357.814439 384.556377,358.365562 L414.728464,375.59 C415.207696,375.864819 415.750025,376 416.290851,376 C416.825668,376 417.367996,375.864819 417.847228,375.59 L472.437613,344.425576 C473.405091,343.874454 474,342.853911 474,341.75018 L474,341 L416.290851,373.945546 L383,354.9385" id="Fill-107" fill="#271054"></path>
                    <path d="M416,373.945546 L416,376 C416.537512,376 417.082574,375.864819 417.564221,375.59 L472.429739,344.425576 C473.402093,343.874454 474,342.853911 474,341.75018 L474,341 L416,373.945546" id="Fill-108" fill="#271054"></path>
                    <path d="M418,373.755441 C419.026835,374.145681 420.197158,374.071772 421.170185,373.513019 L475.242688,342.636731 C476.193295,342.094238 476.846463,341.164461 477.030307,340.094256 L482.950676,305.18105 C482.982064,304.982973 483,304.784897 483,304.585342 C483,303.612698 482.606903,302.682921 481.913378,302 L425.719946,334.089876 C425.018948,334.491942 424.534676,335.180776 424.398662,335.970125 L418,373.755441" id="Fill-109" fill="#271054"></path>
                    <path d="M416,373.549678 L416.370392,373.758651 C416.533844,373.848421 416.703294,373.929361 416.877244,374 L423.296867,336.381932 C423.433327,335.596076 423.919185,334.910291 424.62248,334.510005 L481,302.562167 C480.781064,302.347307 480.524639,302.158937 480.24722,302 L423.755733,334.006704 C423.050939,334.40699 422.566581,335.092775 422.43012,335.878631 L416,373.549678" id="Fill-110" fill="#271054"></path>
                    <path d="M449.051762,340.921278 C449.42409,338.827164 451.717062,336.044283 454.174421,334.707812 C456.630375,333.370016 458.322004,333.984607 457.948272,336.078722 C457.575945,338.174161 455.281567,340.954392 452.824208,342.292188 C450.368255,343.629984 448.67803,343.015393 449.051762,340.921278" id="Fill-111" fill="#4A1E96"></path>
                    <path d="M377.030513,313.484243 C377.030513,313.484243 386.521512,350.853075 390.52827,353.568659 C394.53649,356.285739 401.997047,358.208343 405.572263,359.613265 C409.146016,361.018187 410.769784,362.797156 410.156848,363.310349 C409.545375,363.822046 404.390277,364.377132 402.596817,365.023486 C400.801895,365.671336 403.133685,368.611349 407.073151,371.736889 C411.014081,374.862429 414.43716,374.576657 413.954418,376.653368 C413.471676,378.728583 404.713568,380.814272 397.277879,376.363107 C389.840728,371.911943 387.590858,365.882299 383.159873,360.784781 C378.73035,355.685767 368.601547,334.420424 365,325.194919 C365,325.194919 365.342308,307.960311 370.795829,309.049537 C376.250812,310.140259 377.030513,313.484243 377.030513,313.484243" id="Fill-112" fill="#EB9598"></path>
                    <path d="M423,389.097458 C423.675572,390.735229 426.012169,395.237627 431.217008,394.990194 C431.217008,394.990194 436.731729,389.823556 444,383 L423,389.097458" id="Fill-113" fill="#4A1E96"></path>
                    <path d="M430.807259,395 C425.888803,395 423.657948,390.692194 423,389.098675 C423,389.098675 423,389.098675 423,389.097202 L444,383 C436.731729,389.82327 431.217008,394.989691 431.217008,394.989691 C431.077488,394.997054 430.940905,395 430.807259,395" id="Fill-114" fill="#7D4CBD"></path>
                    <polyline id="Fill-115" fill="#271054" points="431.04 395.897 430.96 396.103 431.04 395.897"></polyline>
                    <path d="M427.997941,409.631627 C427.767234,405.765812 428.566077,402.257971 429.991125,398.128545 L429.989555,398.134536 L429.980139,398.140527 C429.980139,398.140527 428.258467,399.533479 425.41151,398.721673 C420.839743,397.417091 419.701902,391.330044 420.422273,390.010485 L420.406579,390 C419.741138,390.549692 419.058433,391.082907 418.383576,391.617621 C416.391961,393.194801 414.472541,394.972686 414.061349,397.52643 C413.753739,399.440615 414.679707,401.311364 415.136413,403.198588 C416.009019,406.793301 415.169371,410.534798 414.998302,414.222375 C414.842928,417.498057 416.685446,420.414268 419.060003,422.732858 C420.313982,423.95506 421.756294,424.982549 423.192328,426.002549 C424.709972,427.080963 427.227348,427.546778 428.985116,426.041492 C429.518724,425.584663 430.077444,424.062902 429.991125,423.351448 C429.426128,418.676823 428.286717,414.509952 427.997941,409.631627" id="Fill-116" fill="#271054"></path>
                    <path d="M431.717,393 C431.175,393.677852 430.703,394.343624 430.283,395 C430.699,394.344966 431.175,393.677852 431.717,393" id="Fill-117" fill="#4A1E96"></path>
                    <polyline id="Fill-118" fill="#4A1E96" points="418.807 389.174 418.807 389.174 419.193 388.826 418.807 389.174"></polyline>
                </g>
            </g>
        </g>
    </g>
</svg>