<?xml version="1.0" encoding="UTF-8"?>
<svg width="64px" height="64px" viewBox="0 0 64 64" version="1.1" xmlns="http://www.w3.org/2000/svg" xmlns:xlink="http://www.w3.org/1999/xlink">
    <!-- Generator: Sketch 58 (84663) - https://sketch.com -->
    <title>credit</title>
    <desc>Created with Sketch.</desc>
    <g id="Home" stroke="none" stroke-width="1" fill="none" fill-rule="evenodd">
        <g id="Desktop-HD-Copy-2" transform="translate(-261.000000, -4083.000000)" fill-rule="nonzero">
            <g id="credit" transform="translate(261.000000, 4083.000000)">
                <path d="M64,32 C64,49.6733399 49.6733399,64 32,64 C14.3266601,64 0,49.6733399 0,32 C0,14.3266601 14.3266601,0 32,0 C49.6733399,0 64,14.3266601 64,32 Z" id="Path" fill="#FF7045"></path>
                <path d="M64,32 C64,30.756836 63.9267578,29.5307617 63.7885743,28.3242188 L46.362793,10.8984375 L14.8989258,49.40625 L29.3857423,63.8930664 C30.2480469,63.9628906 31.1196289,64 32,64 C49.6733399,64 64,49.6733399 64,32 Z" id="Path" fill="#DE4726"></path>
                <polygon id="Path" fill="#FFFFFF" points="17.637207 10.8984375 46.362793 10.8984375 46.362793 41.6469726 17.637207 41.6469726"></polygon>
                <g id="Group" transform="translate(21.375000, 10.875000)" fill="#DCE1EB">
                    <polygon id="Path" points="10.5742188 0.0234375 24.987793 0.0234375 24.987793 30.7719726 10.5742187 30.7719726"></polygon>
                    <polygon id="Path" points="0.03173825 4.58984375 21.2182617 4.58984375 21.2182617 7.18798825 0.03173825 7.18798825"></polygon>
                    <polygon id="Path" points="0.03173825 9.42333987 21.2182617 9.42333987 21.2182617 12.0214844 0.03173825 12.0214844"></polygon>
                    <polygon id="Path" points="0.03173825 14.2563476 21.2182617 14.2563476 21.2182617 16.8544922 0.03173825 16.8544922"></polygon>
                </g>
                <polygon id="Path" fill="#BEC3D2" points="31.9492188 15.4648438 42.5932617 15.4648438 42.5932617 18.0629883 31.9492188 18.0629883"></polygon>
                <polygon id="Path" fill="#BEC3D2" points="31.9492188 20.2983399 42.5932617 20.2983399 42.5932617 22.8964844 31.9492188 22.8964844"></polygon>
                <polygon id="Path" fill="#BEC3D2" points="31.9492188 25.1313476 42.5932617 25.1313476 42.5932617 27.7294922 31.9492188 27.7294922"></polygon>
                <path d="M46.3266601,50.6015625 L17.6733399,50.6015625 C15.5634765,50.6015625 13.852539,48.8911133 13.852539,46.78125 L13.852539,25.7280274 L24.265625,25.7280274 L28.953125,30.040039 L50.147461,30.040039 L50.147461,46.78125 C50.147461,48.8911133 48.4365235,50.6015625 46.3266601,50.6015625 Z" id="Path" fill="#FFCE00"></path>
                <path d="M31.9492188,30.040039 L31.9492188,50.6015625 L46.3266601,50.6015625 C48.4365235,50.6015625 50.147461,48.8911133 50.147461,46.78125 L50.147461,30.040039 L31.9492188,30.040039 Z" id="Path" fill="#FFB600"></path>
            </g>
        </g>
    </g>
</svg>