<?xml version="1.0" encoding="UTF-8"?>
<svg width="49px" height="36px" viewBox="0 0 49 36" version="1.1" xmlns="http://www.w3.org/2000/svg" xmlns:xlink="http://www.w3.org/1999/xlink">
    <!-- Generator: Sketch 58 (84663) - https://sketch.com -->
    <title>grid</title>
    <desc>Created with Sketch.</desc>
    <g id="Home" stroke="none" stroke-width="1" fill="none" fill-rule="evenodd">
        <g id="Desktop-HD" transform="translate(-749.000000, -2654.000000)" fill="#999999" fill-rule="nonzero">
            <g id="projects" transform="translate(0.000000, 2296.000000)">
                <g id="grid" transform="translate(749.000000, 358.000000)">
                    <path d="M2.08627934,15.1448276 L20.7585482,15.1448276 C21.682918,15.1448276 22.4224138,14.6482759 22.4224138,14.0275862 L22.4224138,1.42758621 C22.4224138,0.806896552 21.682918,0.310344828 20.7585482,0.310344828 L2.08627934,0.310344828 C1.16190959,0.310344828 0.422413793,0.806896552 0.422413793,1.42758621 L0.422413793,13.9655172 C0.514850768,14.6482759 1.25434657,15.1448276 2.08627934,15.1448276 Z M28.6638655,35.7724138 L47.3361345,35.7724138 C48.2605042,35.7724138 49,35.2758621 49,34.6551724 L49,22.1172414 C49,21.4965517 48.2605042,21 47.3361345,21 L28.6638655,21 C27.7394958,21 27,21.4965517 27,22.1172414 L27,34.6551724 C27,35.2758621 27.7394958,35.7724138 28.6638655,35.7724138 Z M2.08627934,35.937931 L20.7585482,35.937931 C21.682918,35.937931 22.4224138,35.4413793 22.4224138,34.8206897 L22.4224138,22.2827586 C22.4224138,21.662069 21.682918,21.1655172 20.7585482,21.1655172 L2.08627934,21.1655172 C1.16190959,21.1655172 0.422413793,21.662069 0.422413793,22.2827586 L0.422413793,34.8206897 C0.514850768,35.4413793 1.25434657,35.937931 2.08627934,35.937931 Z M28.5793828,15.1448276 L47.2516517,15.1448276 C48.1760214,15.1448276 48.9155172,14.6482759 48.9155172,14.0275862 L48.9155172,1.42758621 C48.9155172,0.806896552 48.1760214,0.310344828 47.2516517,0.310344828 L28.5793828,0.310344828 C27.655013,0.310344828 26.9155172,0.806896552 26.9155172,1.42758621 L26.9155172,13.9655172 C26.9155172,14.6482759 27.655013,15.1448276 28.5793828,15.1448276 Z" id="Shape"></path>
                </g>
            </g>
        </g>
    </g>
</svg>