<?xml version="1.0" encoding="UTF-8"?>
<svg width="64px" height="64px" viewBox="0 0 64 64" version="1.1" xmlns="http://www.w3.org/2000/svg" xmlns:xlink="http://www.w3.org/1999/xlink">
    <!-- Generator: Sketch 58 (84663) - https://sketch.com -->
    <title>013-idea</title>
    <desc>Created with Sketch.</desc>
    <g id="Home" stroke="none" stroke-width="1" fill="none" fill-rule="evenodd">
        <g id="Desktop-HD-Copy-2" transform="translate(-109.000000, -3503.000000)" fill-rule="nonzero">
            <g id="contact" transform="translate(109.000000, 3342.000000)">
                <g id="013-idea" transform="translate(0.000000, 161.000000)">
                    <path d="M64,32 C64,49.6733399 49.6733399,64 32,64 C14.3266601,64 0,49.6733399 0,32 C0,14.3266601 14.3266601,0 32,0 C49.6733399,0 64,14.3266601 64,32 Z" id="Path" fill="#FF7045"></path>
                    <path d="M34.8691406,63.8706055 C51.1977539,62.4189453 64,48.7055664 64,32 C64,30.8686524 63.9404297,29.7514649 63.8256836,28.6503906 L49.3701173,14.194336 L45.1503906,17.4985351 L33.875,6.22265625 L30.125,13.0268555 L38.9243164,21.8261719 L33.5913086,27.852539 L22.0927735,16.3540039 L19.4414063,19.0053711 L31.1015625,30.6660156 L25.7685548,36.6918945 L16.1142578,27.0375976 L9.31005863,30.7875976 L20.8139649,42.2915039 L17.2817383,46.2827149 L34.8691406,63.8706055 Z" id="Path" fill="#DE4726"></path>
                    <path d="M44.2543945,29.227539 C44.2543945,22.4301757 38.7202149,16.925293 31.9116211,16.9733168 C25.1577149,17.0209961 19.6186524,22.7138672 19.7480469,29.4667969 C19.7988281,32.1274414 20.6977539,34.5810547 22.1860351,36.5673828 C24.3374024,39.4399414 25.9174805,42.6987305 26.7333985,46.1938476 L27.3188476,48.703125 L36.6811524,48.703125 L37.2670899,46.1933594 C38.0834961,42.694336 39.6704101,39.4355469 41.8217774,36.5576172 C43.3496094,34.5131836 44.2543945,31.9760742 44.2543945,29.227539 Z" id="Path" fill="#FFCE00"></path>
                    <path d="M31.9492188,16.9735312 L31.9492188,48.703125 L36.6811524,48.703125 L37.2670899,46.1933594 C38.0834961,42.694336 39.6704101,39.4350586 41.8217774,36.5576172 C43.3496094,34.5131836 44.2543945,31.9760742 44.2543945,29.227539 C44.2543945,22.4428711 38.7407226,16.946289 31.9492188,16.9735312 L31.9492188,16.9735312 Z" id="Path" fill="#FFB600"></path>
                    <path d="M35.0615235,51.715332 L28.9384765,51.715332 L26.7001953,28.5600586 L37.2998048,28.5600586 L35.0615235,51.715332 Z M30.5551758,32.0600586 L32,47.0097656 L33.4453125,32.0600586 L30.5551758,32.0600586 Z" id="Shape" fill="#FEEC65"></path>
                    <polygon id="Path" fill="#FCD748" points="37.2998047 28.5600586 31.9492188 28.5600586 31.9492188 32.0600586 33.4453125 32.0600586 32 47.0097656 31.9492188 46.4853515 31.9492188 51.715332 35.0615235 51.715332"></polygon>
                    <polygon id="Path" fill="#FFFFFF" points="30.125 6.22265625 33.875 6.22265625 33.875 13.0268555 30.125 13.0268555"></polygon>
                    <polygon id="Path" fill="#DCE1EB" points="31.9492188 6.22265625 33.875 6.22265625 33.875 13.0268555 31.9492188 13.0268555"></polygon>
                    <polygon id="Path" fill="#DCE1EB" points="47.8857423 27.0375976 54.6899414 27.0375976 54.6899414 30.7875976 47.8857423 30.7875976"></polygon>
                    <polygon id="Path" fill="#FFFFFF" points="9.31005862 27.0375976 16.1142578 27.0375976 16.1142578 30.7875976 9.31005862 30.7875976"></polygon>
                    <polygon id="Path" fill="#DCE1EB" points="41.9067382 16.3535156 46.7177735 11.5424805 49.3691406 14.194336 44.5581055 19.0053711"></polygon>
                    <polygon id="Path" fill="#FFFFFF" points="14.6298828 43.6308594 19.440918 38.8198243 22.0927735 41.4711914 17.28125 46.2827149"></polygon>
                    <polygon id="Path" fill="#FFFFFF" points="14.6298828 14.194336 17.28125 11.5429688 22.0927735 16.3540039 19.440918 19.0058594"></polygon>
                    <polygon id="Path" fill="#DCE1EB" points="41.90625 41.4711914 44.5581055 38.819336 49.3691406 43.6303711 46.7172851 46.2822265"></polygon>
                    <path d="M33.206543,56.1875 L30.7949219,56.1875 C28.8754883,56.1875 27.3188476,54.6313476 27.3188476,52.7114258 L27.3188476,48.703125 L36.6826173,48.703125 L36.6826173,52.7114258 C36.6826173,54.6313476 35.1264649,56.1875 33.206543,56.1875 L33.206543,56.1875 Z" id="Path" fill="#FFFFFF"></path>
                    <path d="M31.9492188,48.703125 L31.9492188,56.1875 L33.206543,56.1875 C35.1264649,56.1875 36.6826172,54.6313476 36.6826172,52.7114258 L36.6826172,48.703125 L31.9492188,48.703125 Z" id="Path" fill="#DCE1EB"></path>
                </g>
            </g>
        </g>
    </g>
</svg>