<?xml version="1.0" encoding="UTF-8"?>
<svg width="64px" height="64px" viewBox="0 0 64 64" version="1.1" xmlns="http://www.w3.org/2000/svg" xmlns:xlink="http://www.w3.org/1999/xlink">
    <!-- Generator: Sketch 58 (84663) - https://sketch.com -->
    <title>029-megaphone</title>
    <desc>Created with Sketch.</desc>
    <g id="Home" stroke="none" stroke-width="1" fill="none" fill-rule="evenodd">
        <g id="Desktop-HD-Copy-2" transform="translate(-788.000000, -3923.000000)" fill-rule="nonzero">
            <g id="029-megaphone" transform="translate(788.000000, 3923.000000)">
                <path d="M64,32 C64,49.6733399 49.6733399,64 32,64 C14.3266601,64 0,49.6733399 0,32 C0,14.3266601 14.3266601,0 32,0 C49.6733399,0 64,14.3266601 64,32 Z" id="Path" fill="#4A7AFF"></path>
                <path d="M64,32 C64,30.2573242 63.8583985,28.5473632 63.590332,26.8803711 L50.3730469,13.6625976 L10.4916993,36.1855469 L21.727539,47.4213867 L19.3173828,52.2524414 L31.0493164,63.9848632 C31.3652344,63.9936524 31.6816406,64 32,64 C49.6733399,64 64,49.6733399 64,32 Z" id="Path" fill="#0053BF"></path>
                <path d="M50.9941406,33.5610351 L49.7519531,33.5610351 C47.3945312,33.5610351 45.4829101,31.6499024 45.4829101,29.2919922 C45.4829101,26.934082 47.3945312,25.0229492 49.7519531,25.0229492 L50.9941406,25.0229492 C53.3515625,25.0229492 55.2631836,26.934082 55.2631836,29.2919922 C55.2631836,31.6499024 53.3515625,33.5610351 50.9941406,33.5610351 Z" id="Path" fill="#FF936B"></path>
                <path d="M45.4863281,29.1606445 C45.4848633,29.2045899 45.4829101,29.2480469 45.4829101,29.2919923 C45.4829101,31.6499024 47.3945313,33.5610351 49.7519531,33.5610351 L50.9941406,33.5610351 C53.3520508,33.5610351 55.2631836,31.6499024 55.2631836,29.2919923 C55.2631836,29.2480469 55.2612305,29.2045899 55.2597656,29.1606445 L45.4863281,29.1606445 Z" id="Path" fill="#FF7045"></path>
                <path d="M22.2177735,53.256836 C20.2856445,53.256836 18.5512695,52.0727539 17.847168,50.2734375 L11.7182617,34.6137695 L21.7993164,34.6137695 L26.5888672,46.8520508 C27.7939453,49.930664 25.5239258,53.256836 22.2177735,53.256836 L22.2177735,53.256836 Z" id="Path" fill="#FFCE00"></path>
                <path d="M26.5888672,46.8520507 L21.7993164,34.6137695 L16.6518555,34.6137695 L24.2006836,52.8222656 C26.3457031,51.8227539 27.5322265,49.2617187 26.5888672,46.8520507 L26.5888672,46.8520507 Z" id="Path" fill="#FFB600"></path>
                <polygon id="Path" fill="#FFFFFF" points="50.3730469 44.9213868 21.3481445 37.1591798 21.3481445 21.4248048 50.3730469 13.6625976"></polygon>
                <polygon id="Path" fill="#DCE1EB" points="21.3481445 29.1606445 21.3481445 37.1591797 50.3730469 44.9213867 50.3730469 29.1606445"></polygon>
                <path d="M21.3481445,21.4248047 L12.8588867,21.4248047 C11,21.4248047 9.493164,22.9316406 9.493164,24.7905274 L9.493164,33.793457 C9.493164,35.6523438 11,37.1591798 12.8588867,37.1591798 L21.3481445,37.1591798 L21.3481445,21.4248047 Z" id="Path" fill="#FF7045"></path>
                <path d="M9.493164,29.1606445 L9.493164,33.793457 C9.493164,35.6523438 11,37.1591798 12.8588867,37.1591798 L21.3481445,37.1591798 L21.3481445,29.1606445 L9.493164,29.1606445 Z" id="Path" fill="#DE4726"></path>
            </g>
        </g>
    </g>
</svg>