<?xml version="1.0" encoding="UTF-8"?>
<svg width="1440px" height="1335px" viewBox="0 0 1440 1335" version="1.1" xmlns="http://www.w3.org/2000/svg" xmlns:xlink="http://www.w3.org/1999/xlink">
    <!-- Generator: Sketch 58 (84663) - https://sketch.com -->
    <title>2817290</title>
    <desc>Created with Sketch.</desc>
    <defs>
        <path d="M0,1335 L0,0 L1440,0 L1440,172.55943 C1429.632,174.08133 1419.4944,178.62033 1410.51072,186.01623 C1394.15232,199.41963 1374.35712,218.99073 1369.4784,244.51593 C1358.18304,234.65562 1344.84288,229.61466 1331.51232,229.61466 C1321.84704,229.61466 1312.1856,232.26864 1303.3152,237.65403 C1282.23552,250.44333 1260.3072,277.91763 1256.02752,309.37023 C1246.36992,302.10516 1235.00544,298.6929 1223.36832,298.6929 C1198.56384,298.6929 1172.5248,314.19492 1159.1808,340.92963 C1154.1696,335.04495 1146.2688,331.41108 1138.8672,331.41108 C1134.2784,331.41108 1129.87968,332.81016 1126.48512,335.93673 C1111.5936,316.65933 1091.21856,306.16356 1070.91264,306.16356 C1062.78528,306.16356 1054.66752,307.84566 1046.92032,311.31933 C1019.83296,323.45715 998.74752,357.47028 993.15648,396.27606 C993.12768,396.28674 993.10272,396.29742 993.07584,396.31077 C987.53664,390.04161 981.28704,387.21141 975.04128,387.21141 C963.29856,387.21141 951.58272,397.22925 944.6976,413.25993 C939.37536,409.35639 933.20064,407.49006 926.94336,407.49006 C916.24896,407.49006 905.31264,412.93953 897.984,422.97873 C884.63424,400.75899 863.83296,387.9243 843.07584,387.9243 C837.89568,387.9243 832.7136,388.7253 827.6544,390.37803 C802.33152,398.68173 779.424,431.28243 773.39712,466.47303 C770.40192,462.88722 766.44672,461.27187 762.33792,461.27187 C753.77472,461.27187 744.54144,468.29397 741.94752,479.15553 C732.95808,469.60761 721.7568,465.03123 710.49216,465.03123 C697.79136,465.03123 685.008,470.85183 675.2352,481.93767 C618.09024,453.60897 565.84128,401.28231 504.9984,400.5534 C504.57216,400.54806 504.14976,400.54539 503.72352,400.54539 C485.7312,400.54539 467.85792,405.08439 450.03456,409.62072 C439.98528,412.18125 429.95328,414.73911 419.91936,416.48529 C413.58336,400.42791 403.392,387.30219 391.29792,380.04513 C381.61536,374.2539 368.72256,369.80301 356.73408,369.80301 C349.82208,369.80301 343.2096,371.28486 337.69152,374.83863 C338.55552,364.26543 335.06112,353.21163 328.8768,346.93713 C325.12896,343.1217 320.47296,341.13255 315.82656,341.13255 C312.83328,341.13255 309.84384,341.95758 307.10592,343.65303 C299.69472,315.64473 281.70432,293.56383 260.81472,286.80873 C255.65952,285.14265 250.29312,284.30961 244.89408,284.30961 C228.41664,284.30961 211.67424,292.07397 199.98912,307.58133 C198.15168,297.11493 187.78752,287.51628 179.49696,287.51628 C178.24896,287.51628 177.04896,287.73255 175.93152,288.19713 C167.5584,267.93183 152.7552,253.00653 136.30272,248.20053 C131.04576,246.67596 125.41248,245.82423 119.73504,245.82423 C107.61984,245.82423 95.31072,249.70107 86.09472,259.17423 C77.39328,247.19928 65.72928,238.15332 53.9712,238.15332 C50.70912,238.15332 47.43552,238.85019 44.21952,240.37743 C36.23232,213.94443 19.4304,193.59903 0,184.25403 L0,1335" id="path-1"></path>
        <linearGradient x1="50.6845333%" y1="6.97949849%" x2="50.2132533%" y2="36.599191%" id="linearGradient-3">
            <stop stop-color="#F7C474" offset="0%"></stop>
            <stop stop-color="#FCE4BC" offset="100%"></stop>
        </linearGradient>
        <path d="M0,995.96835 L0,108.802094 C42.3744,68.6532754 84.096,26.1317844 134.6304,7.52363348 C147.71904,2.70897437 160.54464,0.632219418 173.15328,0.632219418 C244.11648,0.632219418 308.63424,66.3365873 379.6992,79.5569054 C385.34592,80.6099455 390.99072,81.0658185 396.62976,81.0658185 C404.39616,81.0658185 412.1568,80.2020591 419.91936,78.8557673 C429.95328,77.1122529 439.98528,74.5582975 450.03456,72.0016762 C467.85792,67.472271 485.7312,62.9401999 503.72352,62.9401999 C504.14976,62.9401999 504.57216,62.9428658 504.9984,62.9481976 C565.84128,63.6759949 618.09024,115.922777 675.2352,144.208233 C687.12,150.091928 699.21792,154.938578 711.648,158.068373 C723.71712,161.110193 735.7728,162.488475 747.79392,162.488475 C812.05632,162.488475 875.41632,123.160762 935.616,88.6210477 C955.64928,77.1282485 974.60736,66.7551374 993.07584,58.7120441 C993.10272,58.6987145 993.12768,58.6880508 993.15648,58.6773871 C1017.024,48.2882804 1040.08704,41.7914232 1063.6224,41.7914232 C1086.81984,41.7914232 1110.47424,48.0989998 1135.8336,63.21479 C1198.1376,100.377773 1264.7616,183.261357 1332.192,198.563762 C1335.47904,199.312886 1338.8352,199.654125 1342.24896,199.654125 C1372.80384,199.654125 1408.03392,172.315072 1440,164.066703 L1440,198.241185 C1438.176,198.059902 1436.34624,197.966595 1434.51648,197.966595 C1424.83008,197.966595 1415.136,200.528548 1406.19072,205.732432 C1397.4912,210.824347 1389.19872,218.742142 1382.07552,228.499425 C1370.72832,243.988444 1362.28032,264.089513 1359.5712,284.617129 C1357.19808,283.081557 1354.5696,282.380419 1351.82976,282.380419 C1338.54336,282.380419 1322.64384,298.845167 1320.65472,316.261649 C1311.91488,308.679761 1301.6064,304.763518 1291.30752,304.763518 C1285.45152,304.763518 1279.59744,306.029832 1274.0352,308.610447 C1258.71552,315.728464 1244.2944,330.630981 1238.49792,351.55582 C1231.44192,332.4758 1213.80672,321.532181 1197.08928,321.532181 C1189.28448,321.532181 1181.67744,323.918184 1175.44512,328.978108 C1168.07424,317.621271 1154.5536,308.27454 1142.7552,308.27454 C1138.8768,308.27454 1135.18272,309.287592 1131.95712,311.569623 C1120.9536,282.017853 1097.38752,262.524615 1073.49696,262.524615 C1071.99744,262.524615 1070.49792,262.599261 1069.00032,262.756551 C1043.61792,265.395816 1020.50112,286.69655 1012.3008,320.153899 C1008.31872,317.152068 1003.6992,315.752458 998.97792,315.752458 C987.63456,315.752458 975.71136,323.846204 970.6944,337.269132 C958.20672,325.832317 943.32096,320.252538 928.39488,320.252538 C921.76512,320.252538 915.12576,321.353565 908.69184,323.534291 C892.04736,304.795509 876.03456,284.379862 856.35648,272.276566 L855.1296,264.891956 L854.112,270.970263 C853.2864,270.490397 852.4608,270.01053 851.616,269.557323 L848.9664,253.588437 L846.72,267.131332 C838.0416,263.159105 829.152,260.759773 820.0896,259.533448 L818.0736,247.403493 L816.1344,259.080241 C814.6368,258.946945 813.1392,258.813649 811.6416,258.733671 L813.2928,258.733671 L810.2208,240.178839 L808.0512,253.188549 L803.6928,226.875877 L799.2384,253.695074 L798.0288,246.337123 L795.9936,258.600375 C771.8784,259.586767 747.0144,265.398481 722.3424,267.797813 L719.9808,253.588437 L717.5616,268.224361 C717.12,268.25102 716.6976,268.304339 716.2752,268.330998 L713.8368,253.588437 L711.3408,268.62425 C708.46656,268.762878 705.6,268.84019 702.73728,268.84019 C696.25152,268.84019 689.80032,268.448299 683.4048,267.504562 C659.7312,264.03886 637.4976,253.215208 615.6672,240.232157 L613.5936,227.782291 L611.904,237.992781 C588.1152,223.570131 564.7488,206.961423 540.48,194.964764 L538.5984,183.634586 L537.0048,193.258573 C536.6016,193.071958 536.1792,192.885343 535.776,192.698729 L532.0704,170.331624 L528.8832,189.632916 C517.9392,185.020867 506.8032,181.501847 495.3024,179.742337 C489.23712,178.790602 483.19872,178.35339 477.18528,178.35339 C475.94688,178.35339 474.70848,178.372052 473.472,178.409375 L471.9168,169.07864 L470.3424,178.56933 C425.088,181.021981 381.312,207.361312 339.9168,234.900309 C339.91296,234.902975 339.90912,234.90564 339.90528,234.908306 L337.70112,221.613342 L335.4336,235.284202 C331.9968,234.201836 328.56384,233.076816 325.11936,232.04777 C310.6368,227.715643 296.09088,223.87138 281.51424,220.530977 L279.58272,208.872891 L277.78752,219.693877 C276.90048,219.496599 276.01152,219.291322 275.12256,219.09671 L273.42912,208.872891 L271.85088,218.392906 C268.65792,217.713095 265.46496,217.057278 262.27008,216.42812 L260.544,206.020352 L258.92352,215.79363 C225.94368,209.510047 192.87552,206.044345 160.06656,206.044345 C128.49984,206.044345 97.17312,209.248786 66.3744,216.233507 L64.6368,205.756425 L62.76096,217.075939 C61.09248,217.470496 59.42208,217.859721 57.75552,218.278271 L56.25408,209.222127 L54.61824,219.099376 C52.1472,219.739198 49.67808,220.395015 47.21472,221.085489 L46.78656,218.502209 L46.31424,221.34675 C43.1904,222.231837 40.07424,223.154247 36.96384,224.121977 L34.83264,211.261559 L32.67456,224.273935 L28.31232,197.958597 L23.21664,228.694037 C15.43488,231.439939 7.68576,234.423108 0,237.715525 L0,995.96835" id="path-4"></path>
        <linearGradient x1="51.3006667%" y1="30.6263573%" x2="50.7409333%" y2="40.0811198%" id="linearGradient-6">
            <stop stop-color="#F1A85F" offset="0%"></stop>
            <stop stop-color="#F7C474" offset="100%"></stop>
        </linearGradient>
        <path d="M672.69108,408.189388 C671.05737,407.705489 669.42558,407.216243 667.79379,406.72165 C658.289093,403.869052 648.843907,400.783862 639.41792,397.516875 C558.198926,369.325077 480.583309,327.249921 403.8335,281.632411 L402.9005,275.986031 L402.134519,280.624511 C395.970191,276.956503 389.811623,273.26176 383.658815,269.556323 L381.644994,257.378643 L379.995926,267.342685 C379.761716,267.203665 379.527506,267.059297 379.293296,266.917603 L378.56763,262.535777 L377.974426,266.120907 C309.976772,225.026917 242.414901,182.080209 173.390179,144.451043 L172.29208,137.812804 L171.376358,143.346898 C170.715963,142.988652 170.057488,142.619712 169.397093,142.261467 L167.124105,128.509109 L165.21971,140.029115 C163.457377,139.080031 161.695043,138.141641 159.93271,137.203251 L158.494815,128.509109 L157.29113,135.791656 C156.022173,135.11794 154.758975,134.430857 153.491938,133.762488 L150.746691,117.160206 L149.297278,125.923859 L147.33337,114.045607 L144.820414,129.257682 C143.015846,128.321966 141.215117,127.372882 139.40863,126.44786 L138.210704,119.202741 L137.200914,125.311633 C114.113963,113.521606 90.5470741,102.525602 66.6595864,92.5374981 L64.6918395,80.6378592 L62.9832593,90.973515 C59.0400864,89.3426951 55.0738765,87.7947528 51.1153457,86.2254228 L48.3144259,69.2862828 L46.8669321,78.0526086 L44.9030247,66.1743575 L42.1731358,82.6910883 C37.4255864,80.8677781 32.662679,79.1113048 27.8940123,77.3762193 L26.8957407,71.334165 L26.0107346,76.6784422 C25.1084506,76.3522782 24.2061667,76.0154203 23.301963,75.6919298 L20.3762593,57.9908494 L17.7634753,73.7910888 C11.9792593,71.7726149 6.18544444,69.8129575 0.376271605,67.9388512 L0.0652716049,66.0567246 C0.0652716049,66.0540511 0.0652716049,66.0513776 0.0767901235,66.0487041 C41.4666667,38.4317036 85.237037,12.0177669 130.485617,9.55816954 L132.059815,0.0405972186 L133.614815,9.39776102 C134.851136,9.36033236 136.089377,9.34161804 137.327617,9.34161804 C143.340284,9.34161804 149.377907,9.780068 155.442407,10.7344987 C166.941728,12.4989925 178.076296,16.0279799 189.018889,20.6530923 L192.205679,1.29713064 L195.910802,23.727589 C196.313951,23.9147323 196.736296,24.1018756 197.139444,24.2890188 L198.73284,14.6377727 L200.614198,26.0000431 C224.879877,38.0306822 248.243272,54.6864338 272.029012,69.1499356 L273.718395,58.9105249 L275.791728,71.3956549 C297.619321,84.4154799 319.850062,95.26979 343.520617,98.7453079 C349.915315,99.6917182 356.365685,100.084719 362.850611,100.084719 C365.712963,100.084719 368.579154,100.007188 371.453025,99.8681676 L373.948704,84.7897665 L376.38679,99.5740853 C376.809136,99.5473506 377.231481,99.493881 377.673025,99.4671463 L380.091914,84.7897665 L382.45321,99.0393902 C407.122037,96.6332624 431.98284,90.8050861 456.094938,89.8159002 L458.129877,77.5179135 L459.339321,84.8967055 L463.793148,58.0015433 L468.150988,84.3887452 L470.320309,71.3421854 L473.391914,89.949574 L471.740926,89.949574 C473.238333,90.0297782 474.735741,90.163452 476.233148,90.2971258 L478.172099,78.5873036 L480.18784,90.7516166 C489.249074,91.9814152 498.137531,94.3875431 506.814815,98.3710214 L509.060926,84.7897665 L511.710185,100.803884 C512.554877,101.258375 513.38037,101.7396 514.205864,102.220826 L515.223333,96.1253021 L516.450056,103.530829 C536.125605,115.668407 552.136346,136.141881 568.778685,154.93374 C568.780605,154.936413 568.782525,154.939087 568.784444,154.94176 C573.910185,160.743202 579.093519,166.3575 584.468827,171.544042 L584.871975,169.05771 L585.428704,172.479759 C587.48284,174.404661 589.556173,176.276094 591.648704,178.067322 L593.990802,163.897903 L595.968148,175.794868 L597.407963,167.025869 L600.345185,184.80448 C601.458642,185.579788 602.591296,186.328361 603.723951,187.050199 L605.163765,178.361405 L606.910741,188.975102 C608.465741,189.857349 610.020741,190.686126 611.633333,191.461434 L613.783457,178.361405 L616.298333,193.52001 C616.816667,193.733888 617.354198,193.947766 617.891728,194.161644 L618.947593,187.665099 L620.157037,194.939625 C628.500284,197.746774 636.943358,198.893695 645.461302,198.893695 C664.750981,198.893695 684.43037,193.006703 704.26142,187.183873 L706.737901,172.265881 L708.964815,185.790993 C710.135864,185.472849 711.304994,185.125297 712.477963,184.80448 L715.108025,168.790363 L717.526914,183.387538 C732.439556,179.27306 747.386753,175.936562 762.287877,175.936562 C763.27079,175.936562 764.251784,175.952603 765.232778,175.982011 C783.681605,176.543441 800.997778,182.264679 817.642037,191.194086 L818.909074,183.521212 L820.137716,190.926739 L821.980679,179.724877 L824.514753,195.070626 C830.312407,198.519409 836.033272,202.315744 841.677346,206.403488 L843.251543,196.968793 L845.228889,209.026167 C874.639506,231.002135 902.533519,260.22322 931.617778,284.819194 C892.166852,297.063711 849.049198,299.763921 808.36963,311.019252 C793.05,315.243344 778.075926,320.69456 763.773765,328.316638 C729.817173,346.442801 700.773228,376.270766 672.69108,408.189388" id="path-7"></path>
        <linearGradient x1="43.0732041%" y1="46.0095807%" x2="42.021552%" y2="55.6346832%" id="linearGradient-9">
            <stop stop-color="#DD8B4E" offset="0%"></stop>
            <stop stop-color="#F1A85F" offset="100%"></stop>
        </linearGradient>
        <path d="M195.312778,397.194111 C193.950427,396.819709 192.568889,396.472051 191.206538,396.177878 C185.924073,395.019908 180.570611,394.450283 175.215231,394.450283 C169.639188,394.450283 164.061226,395.068046 158.565774,396.287524 C156.094355,394.856776 153.621017,393.426028 151.147679,391.99528 C143.32088,387.467698 135.440355,382.94279 127.540641,378.428579 L124.140521,357.839178 L121.323718,374.887812 C120.297158,374.302141 119.272517,373.713796 118.24212,373.1308 L112.148,336.238894 L107.091953,366.846205 C103.455821,364.803044 99.8254444,362.757208 96.1758803,360.732766 L92.1291239,336.238894 L88.7539487,356.662488 C86.2383974,355.279877 83.7190085,353.897267 81.1957821,352.525353 L74.1518547,309.886386 L70.7920299,330.2351 L66.2367906,302.657765 L59.8836325,341.122157 C55.7121538,338.934583 51.5253248,336.795147 47.3404145,334.650362 L45.0685513,320.888437 L43.1516667,332.497554 C29.1405641,325.386602 15.0584658,318.532383 0.905371795,312.103377 C0.903452991,312.103377 0.897696581,312.100703 0.897696581,312.100703 C0.897696581,312.098028 0.897696581,312.098028 0.897696581,312.098028 C5.90769231,306.294807 10.9349573,300.4381 15.9814103,294.661622 C17.6123932,292.789615 19.2433761,290.917608 20.874359,289.072344 C20.8781966,289.06967 20.8801154,289.066996 20.883953,289.061647 C48.9522094,257.133233 77.9817863,227.296118 111.921581,209.164395 C126.216667,201.539979 141.183333,196.08709 156.495385,191.861703 C197.154829,180.602919 240.251154,177.901881 279.682564,165.653608 C307.850598,156.935404 334.138205,143.32324 356.338761,118.15812 C378.385812,93.2310115 393.582735,59.4305909 414.037179,32.2330058 C423.688761,19.3963875 435.41265,7.95040282 448,0.596090234 L448,100.454284 C445.108363,99.5316517 442.209051,99.0957415 439.323171,99.0957415 C420.457496,99.0957415 402.319047,117.75965 392.700085,141.210547 C386.579103,156.133116 383.451453,171.911459 381.53265,188.251404 C380.534872,196.80915 379.863291,205.50061 379.249274,214.325785 C378.903889,219.246489 378.59688,224.193936 378.270684,229.168125 C375.350265,227.373673 372.270585,226.555339 369.15253,226.555339 C356.415513,226.555339 343.068316,240.229011 337.611239,257.007541 C337.189103,258.237717 336.82453,259.494636 336.517521,260.751555 C334.099829,258.104002 331.45188,255.91108 328.650427,254.172788 C323.590543,251.051885 318.043282,249.439285 312.501778,249.439285 C307.936944,249.439285 303.375949,250.535746 299.100855,252.782154 C286.782137,259.253949 275.499573,272.973085 273.08188,291.02458 C269.094607,289.984279 265.04785,289.476163 260.997256,289.476163 C243.921825,289.476163 226.829124,298.517956 214.32812,314.772324 C213.272778,316.136214 212.255812,317.580334 211.29641,319.077939 C198.689872,338.439839 193.528291,367.081543 195.044145,393.369868 C195.120897,394.65353 195.216838,395.937192 195.312778,397.194111" id="path-10"></path>
        <path d="M1440,614.188981 L0,614.188981 L0,78.7764127 C5.35488,76.0285846 10.6272,73.5744991 15.82656,71.3420557 L27.52896,0.643563236 L37.65696,61.8274672 L42.66432,31.5773248 L47.46048,60.5643743 C54.81216,58.7191369 62.01024,57.3839435 69.06624,56.5240789 L70.41024,48.4061028 L71.7024,56.214314 C77.10912,55.6401809 82.4352,55.330416 87.68256,55.2876898 L92.39232,26.8347177 L97.13472,55.4933096 C99.99936,55.6401809 102.83904,55.8805157 105.65952,56.1742582 L111.8496,18.7754901 L117.81504,54.8123609 L119.77728,42.9558432 L122.40192,58.8152709 C130.77888,60.5777262 138.96768,62.9597113 146.98944,65.8784441 L149.68512,49.5917546 L152.74368,68.0601502 C164.84736,72.8882097 176.58432,78.9019209 188.05248,85.7674855 L189.68448,75.9057468 L191.68128,87.9652139 C249.44832,123.62556 300.48192,180.368611 356.72448,216.159806 L359.80416,197.555221 L362.38464,213.14761 L366.94464,185.597228 L373.65696,226.149723 C386.70336,233.244941 400.07424,239.055703 413.92128,243.058613 L416.29248,228.739999 L418.88256,244.385795 C419.40288,244.516644 419.91936,244.674197 420.43968,244.802376 C439.09248,249.371408 457.62816,251.352835 476.09664,251.352835 C557.85408,251.350164 638.16576,212.52808 720,187.760242 C730.98624,184.43561 741.7056,181.701134 752.23296,179.46602 L754.8864,163.443699 L757.3632,178.405877 C761.39904,177.612772 765.40416,176.907789 769.38816,176.272237 L779.41632,115.681159 L789.024,173.719348 C789.37536,173.684633 789.73056,173.636566 790.08384,173.607191 L794.55168,146.61225 L798.9024,172.891528 C805.54176,172.453584 812.12736,172.242624 818.68032,172.242624 C822.49728,172.242624 826.30272,172.314724 830.10048,172.453584 L836.35584,134.654258 L840.91584,162.191287 L844.27968,141.872314 L849.5616,173.780766 C859.91232,174.822217 870.23808,176.384394 880.60224,178.435251 L882.2976,168.183636 L884.11584,179.161596 C918.95424,186.430389 954.30528,199.210861 992.61888,216.59775 C992.62272,216.59775 992.62464,216.60042 992.62656,216.60042 C1006.78848,223.02003 1020.87936,229.864232 1034.8992,236.96479 L1036.81728,225.372641 L1039.09056,239.114452 C1043.27808,241.256102 1047.46752,243.392411 1051.6416,245.576788 L1057.99872,207.168614 L1062.5568,234.705643 L1065.91872,214.386669 L1072.96704,256.963318 C1075.49184,258.333226 1078.0128,259.713816 1080.52992,261.094406 L1083.9072,240.700661 L1087.95648,265.158735 C1091.60832,267.180218 1095.24096,269.223064 1098.87936,271.263239 L1103.93856,240.700661 L1110.03648,277.538648 C1111.06752,278.120793 1112.0928,278.708278 1113.12,279.293093 L1115.93856,262.269376 L1119.3408,282.828685 C1127.24544,287.336298 1135.13088,291.854592 1142.96256,296.375557 C1145.43744,297.804214 1147.91232,299.232871 1150.38528,300.661528 C1122.21696,306.899552 1096.17984,328.887518 1083.3216,364.267473 C1075.49568,354.710159 1065.30816,349.991585 1055.09568,349.991585 C1044.14016,349.991585 1033.15776,355.425822 1025.0496,366.136744 C1015.94304,346.43463 999.22368,334.230962 982.44864,334.230962 C980.12544,334.230962 977.80032,334.465956 975.4944,334.946625 C956.544,338.898798 938.4192,356.817094 933.216,382.479512 C931.20192,381.859982 929.27424,381.56891 927.42336,381.56891 C926.23872,381.56891 925.08672,381.689077 923.9616,381.91873 C915.072,383.761297 908.0448,392.68039 902.2464,404.750538 C895.03104,402.755759 887.56416,401.433918 880.17984,401.433918 C870.86016,401.433918 861.67296,403.538183 853.2864,409.049861 C838.6176,418.716662 826.0032,441.655285 828.768,463.739384 C828.8256,464.326869 828.9024,464.887651 828.99648,465.448432 C828.9024,464.887651 828.7872,464.353573 828.6336,463.819496 C826.04352,454.780236 814.89792,451.949626 806.71488,451.949626 C804.04224,451.949626 801.6864,452.25138 800.0448,452.73739 C789.3504,455.861743 779.6736,466.599369 778.2144,482.378685 C772.6656,476.760191 765.82848,474.167245 758.9376,474.167245 C755.14944,474.167245 751.34208,474.952339 747.7248,476.450426 C741.216,479.120813 735.2832,483.874101 729.984,489.80236 C726.9696,493.167047 724.1664,496.905589 721.5744,500.857762 C717.9456,506.412166 714.72,512.500648 711.9168,518.962985 C707.4624,529.297382 704.16,540.619822 702.2208,552.316117 L1440,552.316117 L1440,614.188981" id="path-12"></path>
        <linearGradient x1="50.1152%" y1="41.1174519%" x2="49.9654933%" y2="54.1587055%" id="linearGradient-14">
            <stop stop-color="#7F2835" offset="0%"></stop>
            <stop stop-color="#B04D45" offset="100%"></stop>
        </linearGradient>
        <path d="M1440,43.6145344 L1440,558.856801 L0,558.856801 L0,283.603194 C48.2304,240.80437 98.1504,201.879348 152.736,179.651744 C159.0912,177.060305 165.4272,174.949751 171.744,173.213219 L182.5344,107.919633 L192.6528,168.992112 C195.7056,168.591374 198.7584,168.270783 201.792,168.057056 L207.072,136.185024 L211.4112,162.446724 L219.3216,114.598601 L228.2496,168.48451 C248.0832,170.488201 267.5904,176.205397 286.656,184.888054 L289.5744,167.335728 L292.9728,187.853516 C317.184,199.768794 340.704,216.359349 363.2832,236.129093 C392.9472,262.096918 423.3024,293.140759 452.6976,322.127478 C480.7488,349.778403 509.184,384.028149 545.5104,382.85265 C551.8272,382.665639 558.1056,381.516857 564.3456,379.887189 C568.5312,378.791838 572.6784,377.509476 576.8448,376.120251 C595.7376,369.895453 614.4576,362.014272 633.5232,365.380471 C647.3472,367.811616 659.7696,375.772945 671.7312,385.737964 L673.4016,375.666081 L675.6288,389.050732 C679.0656,392.069625 682.4832,395.195382 685.8816,398.374571 L694.3104,347.427407 L705.792,416.755089 C711.6672,421.884536 717.6576,426.693393 723.8592,430.727489 C725.8752,432.036567 727.9296,433.265497 729.984,434.414279 C778.5792,461.504171 834.6048,441.97487 884.8704,419.186233 C910.7136,407.484682 936.3648,395.035087 961.824,381.837447 L972.7104,316.116407 L981.8304,371.284679 C983.8464,370.216044 985.824,369.120693 987.84,368.025343 L992.0256,342.698698 L995.52,363.857667 C1059.4368,328.859877 1122.048,289.240242 1183.008,245.105625 L1183.0464,245.078909 C1184.3328,244.143854 1185.6,243.208798 1186.8864,242.273743 C1213.44,222.984885 1239.648,202.814403 1265.5296,181.815729 L1268.0256,166.694547 L1269.504,157.771446 L1272.5376,176.098533 C1276.896,172.545323 1281.2544,168.93868 1285.5936,165.332038 C1290.0096,161.645248 1294.4064,157.958458 1298.8032,154.218236 C1302.6816,150.932184 1306.5984,147.619416 1310.5152,144.279932 C1311.7824,143.211297 1313.0496,142.115947 1314.3168,141.047312 L1324.8192,77.5436892 L1332.768,125.552107 C1338.3744,120.930262 1344.0192,116.335132 1349.7024,111.900298 L1352.928,92.4244287 L1355.4048,107.465463 C1374.7968,92.6381557 1394.6112,79.3069366 1414.944,69.769371 L1420.416,36.6149765 L1420.5312,35.9737956 L1420.6464,36.6149765 L1423.6992,55.1023584 L1432.8,0.12109819 L1440,36.3478178 L1440,43.6145344" id="path-15"></path>
        <linearGradient x1="49.9753333%" y1="49.787424%" x2="50.3351867%" y2="59.9871842%" id="linearGradient-17">
            <stop stop-color="#37191F" offset="0%"></stop>
            <stop stop-color="#7F2835" offset="100%"></stop>
        </linearGradient>
    </defs>
    <g id="Home" stroke="none" stroke-width="1" fill="none" fill-rule="evenodd" opacity="0.1">
        <g id="Desktop-HD" transform="translate(0.000000, -1067.000000)">
            <g id="milestone" transform="translate(0.000000, 1067.000000)">
                <g id="2817290">
                    <g id="Group-3">
                        <mask id="mask-2" fill="white">
                            <use xlink:href="#path-1"></use>
                        </mask>
                        <g id="Clip-2"></g>
                        <path d="M0,1335 L0,0 L1440,0 L1440,172.55943 C1429.632,174.08133 1419.4944,178.62033 1410.51072,186.01623 C1394.15232,199.41963 1374.35712,218.99073 1369.4784,244.51593 C1358.18304,234.65562 1344.84288,229.61466 1331.51232,229.61466 C1321.84704,229.61466 1312.1856,232.26864 1303.3152,237.65403 C1282.23552,250.44333 1260.3072,277.91763 1256.02752,309.37023 C1246.36992,302.10516 1235.00544,298.6929 1223.36832,298.6929 C1198.56384,298.6929 1172.5248,314.19492 1159.1808,340.92963 C1154.1696,335.04495 1146.2688,331.41108 1138.8672,331.41108 C1134.2784,331.41108 1129.87968,332.81016 1126.48512,335.93673 C1111.5936,316.65933 1091.21856,306.16356 1070.91264,306.16356 C1062.78528,306.16356 1054.66752,307.84566 1046.92032,311.31933 C1019.83296,323.45715 998.74752,357.47028 993.15648,396.27606 C993.12768,396.28674 993.10272,396.29742 993.07584,396.31077 C987.53664,390.04161 981.28704,387.21141 975.04128,387.21141 C963.29856,387.21141 951.58272,397.22925 944.6976,413.25993 C939.37536,409.35639 933.20064,407.49006 926.94336,407.49006 C916.24896,407.49006 905.31264,412.93953 897.984,422.97873 C884.63424,400.75899 863.83296,387.9243 843.07584,387.9243 C837.89568,387.9243 832.7136,388.7253 827.6544,390.37803 C802.33152,398.68173 779.424,431.28243 773.39712,466.47303 C770.40192,462.88722 766.44672,461.27187 762.33792,461.27187 C753.77472,461.27187 744.54144,468.29397 741.94752,479.15553 C732.95808,469.60761 721.7568,465.03123 710.49216,465.03123 C697.79136,465.03123 685.008,470.85183 675.2352,481.93767 C618.09024,453.60897 565.84128,401.28231 504.9984,400.5534 C504.57216,400.54806 504.14976,400.54539 503.72352,400.54539 C485.7312,400.54539 467.85792,405.08439 450.03456,409.62072 C439.98528,412.18125 429.95328,414.73911 419.91936,416.48529 C413.58336,400.42791 403.392,387.30219 391.29792,380.04513 C381.61536,374.2539 368.72256,369.80301 356.73408,369.80301 C349.82208,369.80301 343.2096,371.28486 337.69152,374.83863 C338.55552,364.26543 335.06112,353.21163 328.8768,346.93713 C325.12896,343.1217 320.47296,341.13255 315.82656,341.13255 C312.83328,341.13255 309.84384,341.95758 307.10592,343.65303 C299.69472,315.64473 281.70432,293.56383 260.81472,286.80873 C255.65952,285.14265 250.29312,284.30961 244.89408,284.30961 C228.41664,284.30961 211.67424,292.07397 199.98912,307.58133 C198.15168,297.11493 187.78752,287.51628 179.49696,287.51628 C178.24896,287.51628 177.04896,287.73255 175.93152,288.19713 C167.5584,267.93183 152.7552,253.00653 136.30272,248.20053 C131.04576,246.67596 125.41248,245.82423 119.73504,245.82423 C107.61984,245.82423 95.31072,249.70107 86.09472,259.17423 C77.39328,247.19928 65.72928,238.15332 53.9712,238.15332 C50.70912,238.15332 47.43552,238.85019 44.21952,240.37743 C36.23232,213.94443 19.4304,193.59903 0,184.25403 L0,1335" id="Fill-1" fill="url(#linearGradient-3)" mask="url(#mask-2)"></path>
                    </g>
                    <g id="Group-8" transform="translate(0.000000, 338.025622)">
                        <mask id="mask-5" fill="white">
                            <use xlink:href="#path-4"></use>
                        </mask>
                        <g id="Clip-7"></g>
                        <path d="M0,995.96835 L0,108.802094 C42.3744,68.6532754 84.096,26.1317844 134.6304,7.52363348 C147.71904,2.70897437 160.54464,0.632219418 173.15328,0.632219418 C244.11648,0.632219418 308.63424,66.3365873 379.6992,79.5569054 C385.34592,80.6099455 390.99072,81.0658185 396.62976,81.0658185 C404.39616,81.0658185 412.1568,80.2020591 419.91936,78.8557673 C429.95328,77.1122529 439.98528,74.5582975 450.03456,72.0016762 C467.85792,67.472271 485.7312,62.9401999 503.72352,62.9401999 C504.14976,62.9401999 504.57216,62.9428658 504.9984,62.9481976 C565.84128,63.6759949 618.09024,115.922777 675.2352,144.208233 C687.12,150.091928 699.21792,154.938578 711.648,158.068373 C723.71712,161.110193 735.7728,162.488475 747.79392,162.488475 C812.05632,162.488475 875.41632,123.160762 935.616,88.6210477 C955.64928,77.1282485 974.60736,66.7551374 993.07584,58.7120441 C993.10272,58.6987145 993.12768,58.6880508 993.15648,58.6773871 C1017.024,48.2882804 1040.08704,41.7914232 1063.6224,41.7914232 C1086.81984,41.7914232 1110.47424,48.0989998 1135.8336,63.21479 C1198.1376,100.377773 1264.7616,183.261357 1332.192,198.563762 C1335.47904,199.312886 1338.8352,199.654125 1342.24896,199.654125 C1372.80384,199.654125 1408.03392,172.315072 1440,164.066703 L1440,198.241185 C1438.176,198.059902 1436.34624,197.966595 1434.51648,197.966595 C1424.83008,197.966595 1415.136,200.528548 1406.19072,205.732432 C1397.4912,210.824347 1389.19872,218.742142 1382.07552,228.499425 C1370.72832,243.988444 1362.28032,264.089513 1359.5712,284.617129 C1357.19808,283.081557 1354.5696,282.380419 1351.82976,282.380419 C1338.54336,282.380419 1322.64384,298.845167 1320.65472,316.261649 C1311.91488,308.679761 1301.6064,304.763518 1291.30752,304.763518 C1285.45152,304.763518 1279.59744,306.029832 1274.0352,308.610447 C1258.71552,315.728464 1244.2944,330.630981 1238.49792,351.55582 C1231.44192,332.4758 1213.80672,321.532181 1197.08928,321.532181 C1189.28448,321.532181 1181.67744,323.918184 1175.44512,328.978108 C1168.07424,317.621271 1154.5536,308.27454 1142.7552,308.27454 C1138.8768,308.27454 1135.18272,309.287592 1131.95712,311.569623 C1120.9536,282.017853 1097.38752,262.524615 1073.49696,262.524615 C1071.99744,262.524615 1070.49792,262.599261 1069.00032,262.756551 C1043.61792,265.395816 1020.50112,286.69655 1012.3008,320.153899 C1008.31872,317.152068 1003.6992,315.752458 998.97792,315.752458 C987.63456,315.752458 975.71136,323.846204 970.6944,337.269132 C958.20672,325.832317 943.32096,320.252538 928.39488,320.252538 C921.76512,320.252538 915.12576,321.353565 908.69184,323.534291 C892.04736,304.795509 876.03456,284.379862 856.35648,272.276566 L855.1296,264.891956 L854.112,270.970263 C853.2864,270.490397 852.4608,270.01053 851.616,269.557323 L848.9664,253.588437 L846.72,267.131332 C838.0416,263.159105 829.152,260.759773 820.0896,259.533448 L818.0736,247.403493 L816.1344,259.080241 C814.6368,258.946945 813.1392,258.813649 811.6416,258.733671 L813.2928,258.733671 L810.2208,240.178839 L808.0512,253.188549 L803.6928,226.875877 L799.2384,253.695074 L798.0288,246.337123 L795.9936,258.600375 C771.8784,259.586767 747.0144,265.398481 722.3424,267.797813 L719.9808,253.588437 L717.5616,268.224361 C717.12,268.25102 716.6976,268.304339 716.2752,268.330998 L713.8368,253.588437 L711.3408,268.62425 C708.46656,268.762878 705.6,268.84019 702.73728,268.84019 C696.25152,268.84019 689.80032,268.448299 683.4048,267.504562 C659.7312,264.03886 637.4976,253.215208 615.6672,240.232157 L613.5936,227.782291 L611.904,237.992781 C588.1152,223.570131 564.7488,206.961423 540.48,194.964764 L538.5984,183.634586 L537.0048,193.258573 C536.6016,193.071958 536.1792,192.885343 535.776,192.698729 L532.0704,170.331624 L528.8832,189.632916 C517.9392,185.020867 506.8032,181.501847 495.3024,179.742337 C489.23712,178.790602 483.19872,178.35339 477.18528,178.35339 C475.94688,178.35339 474.70848,178.372052 473.472,178.409375 L471.9168,169.07864 L470.3424,178.56933 C425.088,181.021981 381.312,207.361312 339.9168,234.900309 C339.91296,234.902975 339.90912,234.90564 339.90528,234.908306 L337.70112,221.613342 L335.4336,235.284202 C331.9968,234.201836 328.56384,233.076816 325.11936,232.04777 C310.6368,227.715643 296.09088,223.87138 281.51424,220.530977 L279.58272,208.872891 L277.78752,219.693877 C276.90048,219.496599 276.01152,219.291322 275.12256,219.09671 L273.42912,208.872891 L271.85088,218.392906 C268.65792,217.713095 265.46496,217.057278 262.27008,216.42812 L260.544,206.020352 L258.92352,215.79363 C225.94368,209.510047 192.87552,206.044345 160.06656,206.044345 C128.49984,206.044345 97.17312,209.248786 66.3744,216.233507 L64.6368,205.756425 L62.76096,217.075939 C61.09248,217.470496 59.42208,217.859721 57.75552,218.278271 L56.25408,209.222127 L54.61824,219.099376 C52.1472,219.739198 49.67808,220.395015 47.21472,221.085489 L46.78656,218.502209 L46.31424,221.34675 C43.1904,222.231837 40.07424,223.154247 36.96384,224.121977 L34.83264,211.261559 L32.67456,224.273935 L28.31232,197.958597 L23.21664,228.694037 C15.43488,231.439939 7.68576,234.423108 0,237.715525 L0,995.96835" id="Fill-6" fill="url(#linearGradient-6)" mask="url(#mask-5)"></path>
                    </g>
                    <g id="Group-12" transform="translate(340.000000, 507.038433)">
                        <mask id="mask-8" fill="white">
                            <use xlink:href="#path-7"></use>
                        </mask>
                        <g id="Clip-11"></g>
                        <path d="M672.69108,408.189388 C671.05737,407.705489 669.42558,407.216243 667.79379,406.72165 C658.289093,403.869052 648.843907,400.783862 639.41792,397.516875 C558.198926,369.325077 480.583309,327.249921 403.8335,281.632411 L402.9005,275.986031 L402.134519,280.624511 C395.970191,276.956503 389.811623,273.26176 383.658815,269.556323 L381.644994,257.378643 L379.995926,267.342685 C379.761716,267.203665 379.527506,267.059297 379.293296,266.917603 L378.56763,262.535777 L377.974426,266.120907 C309.976772,225.026917 242.414901,182.080209 173.390179,144.451043 L172.29208,137.812804 L171.376358,143.346898 C170.715963,142.988652 170.057488,142.619712 169.397093,142.261467 L167.124105,128.509109 L165.21971,140.029115 C163.457377,139.080031 161.695043,138.141641 159.93271,137.203251 L158.494815,128.509109 L157.29113,135.791656 C156.022173,135.11794 154.758975,134.430857 153.491938,133.762488 L150.746691,117.160206 L149.297278,125.923859 L147.33337,114.045607 L144.820414,129.257682 C143.015846,128.321966 141.215117,127.372882 139.40863,126.44786 L138.210704,119.202741 L137.200914,125.311633 C114.113963,113.521606 90.5470741,102.525602 66.6595864,92.5374981 L64.6918395,80.6378592 L62.9832593,90.973515 C59.0400864,89.3426951 55.0738765,87.7947528 51.1153457,86.2254228 L48.3144259,69.2862828 L46.8669321,78.0526086 L44.9030247,66.1743575 L42.1731358,82.6910883 C37.4255864,80.8677781 32.662679,79.1113048 27.8940123,77.3762193 L26.8957407,71.334165 L26.0107346,76.6784422 C25.1084506,76.3522782 24.2061667,76.0154203 23.301963,75.6919298 L20.3762593,57.9908494 L17.7634753,73.7910888 C11.9792593,71.7726149 6.18544444,69.8129575 0.376271605,67.9388512 L0.0652716049,66.0567246 C0.0652716049,66.0540511 0.0652716049,66.0513776 0.0767901235,66.0487041 C41.4666667,38.4317036 85.237037,12.0177669 130.485617,9.55816954 L132.059815,0.0405972186 L133.614815,9.39776102 C134.851136,9.36033236 136.089377,9.34161804 137.327617,9.34161804 C143.340284,9.34161804 149.377907,9.780068 155.442407,10.7344987 C166.941728,12.4989925 178.076296,16.0279799 189.018889,20.6530923 L192.205679,1.29713064 L195.910802,23.727589 C196.313951,23.9147323 196.736296,24.1018756 197.139444,24.2890188 L198.73284,14.6377727 L200.614198,26.0000431 C224.879877,38.0306822 248.243272,54.6864338 272.029012,69.1499356 L273.718395,58.9105249 L275.791728,71.3956549 C297.619321,84.4154799 319.850062,95.26979 343.520617,98.7453079 C349.915315,99.6917182 356.365685,100.084719 362.850611,100.084719 C365.712963,100.084719 368.579154,100.007188 371.453025,99.8681676 L373.948704,84.7897665 L376.38679,99.5740853 C376.809136,99.5473506 377.231481,99.493881 377.673025,99.4671463 L380.091914,84.7897665 L382.45321,99.0393902 C407.122037,96.6332624 431.98284,90.8050861 456.094938,89.8159002 L458.129877,77.5179135 L459.339321,84.8967055 L463.793148,58.0015433 L468.150988,84.3887452 L470.320309,71.3421854 L473.391914,89.949574 L471.740926,89.949574 C473.238333,90.0297782 474.735741,90.163452 476.233148,90.2971258 L478.172099,78.5873036 L480.18784,90.7516166 C489.249074,91.9814152 498.137531,94.3875431 506.814815,98.3710214 L509.060926,84.7897665 L511.710185,100.803884 C512.554877,101.258375 513.38037,101.7396 514.205864,102.220826 L515.223333,96.1253021 L516.450056,103.530829 C536.125605,115.668407 552.136346,136.141881 568.778685,154.93374 C568.780605,154.936413 568.782525,154.939087 568.784444,154.94176 C573.910185,160.743202 579.093519,166.3575 584.468827,171.544042 L584.871975,169.05771 L585.428704,172.479759 C587.48284,174.404661 589.556173,176.276094 591.648704,178.067322 L593.990802,163.897903 L595.968148,175.794868 L597.407963,167.025869 L600.345185,184.80448 C601.458642,185.579788 602.591296,186.328361 603.723951,187.050199 L605.163765,178.361405 L606.910741,188.975102 C608.465741,189.857349 610.020741,190.686126 611.633333,191.461434 L613.783457,178.361405 L616.298333,193.52001 C616.816667,193.733888 617.354198,193.947766 617.891728,194.161644 L618.947593,187.665099 L620.157037,194.939625 C628.500284,197.746774 636.943358,198.893695 645.461302,198.893695 C664.750981,198.893695 684.43037,193.006703 704.26142,187.183873 L706.737901,172.265881 L708.964815,185.790993 C710.135864,185.472849 711.304994,185.125297 712.477963,184.80448 L715.108025,168.790363 L717.526914,183.387538 C732.439556,179.27306 747.386753,175.936562 762.287877,175.936562 C763.27079,175.936562 764.251784,175.952603 765.232778,175.982011 C783.681605,176.543441 800.997778,182.264679 817.642037,191.194086 L818.909074,183.521212 L820.137716,190.926739 L821.980679,179.724877 L824.514753,195.070626 C830.312407,198.519409 836.033272,202.315744 841.677346,206.403488 L843.251543,196.968793 L845.228889,209.026167 C874.639506,231.002135 902.533519,260.22322 931.617778,284.819194 C892.166852,297.063711 849.049198,299.763921 808.36963,311.019252 C793.05,315.243344 778.075926,320.69456 763.773765,328.316638 C729.817173,346.442801 700.773228,376.270766 672.69108,408.189388" id="Fill-10" fill="url(#linearGradient-9)" mask="url(#mask-8)"></path>
                    </g>
                    <path d="M1310.52096,938.260478 C1209.39456,950.839881 1106.77056,942.215224 1007.71968,912.226398 C998.21376,909.379087 988.76736,906.299615 979.34016,903.038684 C898.11072,874.899142 820.48512,832.901976 743.72544,787.369021 L742.79232,781.733107 L742.02624,786.362989 C735.86112,782.70178 729.70176,779.013885 723.54816,775.315317 L721.53408,763.160209 L719.8848,773.105782 C719.65056,772.967019 719.41632,772.822919 719.18208,772.681488 L718.45632,768.307783 L717.86304,771.886269 C649.85664,730.868449 582.28608,688.001346 513.25248,650.441929 L512.15424,643.815994 L511.2384,649.33983 C510.57792,648.982248 509.91936,648.613992 509.25888,648.256411 L506.9856,634.529545 L505.08096,646.028197 C503.3184,645.080872 501.55584,644.144222 499.79328,643.207571 L498.3552,634.529545 L497.15136,641.798593 C495.88224,641.126126 494.61888,640.440316 493.35168,639.773186 L490.60608,623.201678 L489.15648,631.949086 L487.19232,620.092852 L484.67904,635.27673 C482.87424,634.342748 481.07328,633.395424 479.26656,632.472116 L478.06848,625.240427 L477.05856,631.337995 C453.96864,619.569822 430.39872,608.5942 406.50816,598.624609 L404.54016,586.747027 L402.83136,597.063525 C398.88768,595.435728 394.92096,593.890655 390.96192,592.324234 L388.16064,575.416492 L386.71296,584.166569 L384.7488,572.310335 L382.01856,588.796451 C377.2704,586.97652 372.50688,585.223303 367.7376,583.491433 L366.7392,577.460578 L365.85408,582.794949 C364.95168,582.46939 364.04928,582.133157 363.14496,581.810266 L360.21888,564.141995 L357.60576,579.912948 C351.8208,577.898215 346.02624,575.94219 340.21632,574.071558 L337.70112,558.885011 L335.4336,572.569181 C331.9968,571.485762 328.56384,570.359647 325.11936,569.329598 C310.6368,564.993253 296.09088,561.145248 281.51424,557.801592 L279.58272,546.132155 L277.78752,556.963677 C276.90048,556.766207 276.01152,556.56073 275.12256,556.365929 L273.42912,546.132155 L271.85088,555.661439 C268.65792,554.980967 265.46496,554.324511 262.27008,553.69474 L260.544,543.276838 L258.92352,553.059632 C194.21184,540.715059 129.18336,539.244705 66.3744,553.499938 L64.6368,543.012655 L62.76096,554.34319 C61.09248,554.738131 59.42208,555.127735 57.75552,555.546693 L56.25408,546.481731 L54.61824,556.368597 C52.1472,557.009042 49.67808,557.665498 47.21472,558.356644 L46.78656,555.770849 L46.31424,558.618159 C43.1904,559.504108 40.07424,560.427416 36.96384,561.396089 L34.83264,548.523149 L32.67456,561.548194 L28.31232,535.207234 L23.21664,565.9726 C15.43488,568.721176 7.68576,571.707249 0,575.002871 L0,1333.99397 L1440,1333.99397 L1440,910.225008 C1397.3952,923.498226 1354.10496,932.843383 1310.52096,938.260478" id="Fill-13" fill="#CF7742"></path>
                    <g id="Group-17" transform="translate(992.000000, 625.749812)">
                        <mask id="mask-11" fill="white">
                            <use xlink:href="#path-10"></use>
                        </mask>
                        <g id="Clip-16"></g>
                        <path d="M195.312778,397.194111 C193.950427,396.819709 192.568889,396.472051 191.206538,396.177878 C185.924073,395.019908 180.570611,394.450283 175.215231,394.450283 C169.639188,394.450283 164.061226,395.068046 158.565774,396.287524 C156.094355,394.856776 153.621017,393.426028 151.147679,391.99528 C143.32088,387.467698 135.440355,382.94279 127.540641,378.428579 L124.140521,357.839178 L121.323718,374.887812 C120.297158,374.302141 119.272517,373.713796 118.24212,373.1308 L112.148,336.238894 L107.091953,366.846205 C103.455821,364.803044 99.8254444,362.757208 96.1758803,360.732766 L92.1291239,336.238894 L88.7539487,356.662488 C86.2383974,355.279877 83.7190085,353.897267 81.1957821,352.525353 L74.1518547,309.886386 L70.7920299,330.2351 L66.2367906,302.657765 L59.8836325,341.122157 C55.7121538,338.934583 51.5253248,336.795147 47.3404145,334.650362 L45.0685513,320.888437 L43.1516667,332.497554 C29.1405641,325.386602 15.0584658,318.532383 0.905371795,312.103377 C0.903452991,312.103377 0.897696581,312.100703 0.897696581,312.100703 C0.897696581,312.098028 0.897696581,312.098028 0.897696581,312.098028 C5.90769231,306.294807 10.9349573,300.4381 15.9814103,294.661622 C17.6123932,292.789615 19.2433761,290.917608 20.874359,289.072344 C20.8781966,289.06967 20.8801154,289.066996 20.883953,289.061647 C48.9522094,257.133233 77.9817863,227.296118 111.921581,209.164395 C126.216667,201.539979 141.183333,196.08709 156.495385,191.861703 C197.154829,180.602919 240.251154,177.901881 279.682564,165.653608 C307.850598,156.935404 334.138205,143.32324 356.338761,118.15812 C378.385812,93.2310115 393.582735,59.4305909 414.037179,32.2330058 C423.688761,19.3963875 435.41265,7.95040282 448,0.596090234 L448,100.454284 C445.108363,99.5316517 442.209051,99.0957415 439.323171,99.0957415 C420.457496,99.0957415 402.319047,117.75965 392.700085,141.210547 C386.579103,156.133116 383.451453,171.911459 381.53265,188.251404 C380.534872,196.80915 379.863291,205.50061 379.249274,214.325785 C378.903889,219.246489 378.59688,224.193936 378.270684,229.168125 C375.350265,227.373673 372.270585,226.555339 369.15253,226.555339 C356.415513,226.555339 343.068316,240.229011 337.611239,257.007541 C337.189103,258.237717 336.82453,259.494636 336.517521,260.751555 C334.099829,258.104002 331.45188,255.91108 328.650427,254.172788 C323.590543,251.051885 318.043282,249.439285 312.501778,249.439285 C307.936944,249.439285 303.375949,250.535746 299.100855,252.782154 C286.782137,259.253949 275.499573,272.973085 273.08188,291.02458 C269.094607,289.984279 265.04785,289.476163 260.997256,289.476163 C243.921825,289.476163 226.829124,298.517956 214.32812,314.772324 C213.272778,316.136214 212.255812,317.580334 211.29641,319.077939 C198.689872,338.439839 193.528291,367.081543 195.044145,393.369868 C195.120897,394.65353 195.216838,395.937192 195.312778,397.194111" id="Fill-15" mask="url(#mask-11)"></path>
                    </g>
                    <g id="Group-20" transform="translate(0.000000, 720.316503)">
                        <mask id="mask-13" fill="white">
                            <use xlink:href="#path-12"></use>
                        </mask>
                        <g id="Clip-19"></g>
                        <path d="M1440,614.188981 L0,614.188981 L0,78.7764127 C5.35488,76.0285846 10.6272,73.5744991 15.82656,71.3420557 L27.52896,0.643563236 L37.65696,61.8274672 L42.66432,31.5773248 L47.46048,60.5643743 C54.81216,58.7191369 62.01024,57.3839435 69.06624,56.5240789 L70.41024,48.4061028 L71.7024,56.214314 C77.10912,55.6401809 82.4352,55.330416 87.68256,55.2876898 L92.39232,26.8347177 L97.13472,55.4933096 C99.99936,55.6401809 102.83904,55.8805157 105.65952,56.1742582 L111.8496,18.7754901 L117.81504,54.8123609 L119.77728,42.9558432 L122.40192,58.8152709 C130.77888,60.5777262 138.96768,62.9597113 146.98944,65.8784441 L149.68512,49.5917546 L152.74368,68.0601502 C164.84736,72.8882097 176.58432,78.9019209 188.05248,85.7674855 L189.68448,75.9057468 L191.68128,87.9652139 C249.44832,123.62556 300.48192,180.368611 356.72448,216.159806 L359.80416,197.555221 L362.38464,213.14761 L366.94464,185.597228 L373.65696,226.149723 C386.70336,233.244941 400.07424,239.055703 413.92128,243.058613 L416.29248,228.739999 L418.88256,244.385795 C419.40288,244.516644 419.91936,244.674197 420.43968,244.802376 C439.09248,249.371408 457.62816,251.352835 476.09664,251.352835 C557.85408,251.350164 638.16576,212.52808 720,187.760242 C730.98624,184.43561 741.7056,181.701134 752.23296,179.46602 L754.8864,163.443699 L757.3632,178.405877 C761.39904,177.612772 765.40416,176.907789 769.38816,176.272237 L779.41632,115.681159 L789.024,173.719348 C789.37536,173.684633 789.73056,173.636566 790.08384,173.607191 L794.55168,146.61225 L798.9024,172.891528 C805.54176,172.453584 812.12736,172.242624 818.68032,172.242624 C822.49728,172.242624 826.30272,172.314724 830.10048,172.453584 L836.35584,134.654258 L840.91584,162.191287 L844.27968,141.872314 L849.5616,173.780766 C859.91232,174.822217 870.23808,176.384394 880.60224,178.435251 L882.2976,168.183636 L884.11584,179.161596 C918.95424,186.430389 954.30528,199.210861 992.61888,216.59775 C992.62272,216.59775 992.62464,216.60042 992.62656,216.60042 C1006.78848,223.02003 1020.87936,229.864232 1034.8992,236.96479 L1036.81728,225.372641 L1039.09056,239.114452 C1043.27808,241.256102 1047.46752,243.392411 1051.6416,245.576788 L1057.99872,207.168614 L1062.5568,234.705643 L1065.91872,214.386669 L1072.96704,256.963318 C1075.49184,258.333226 1078.0128,259.713816 1080.52992,261.094406 L1083.9072,240.700661 L1087.95648,265.158735 C1091.60832,267.180218 1095.24096,269.223064 1098.87936,271.263239 L1103.93856,240.700661 L1110.03648,277.538648 C1111.06752,278.120793 1112.0928,278.708278 1113.12,279.293093 L1115.93856,262.269376 L1119.3408,282.828685 C1127.24544,287.336298 1135.13088,291.854592 1142.96256,296.375557 C1145.43744,297.804214 1147.91232,299.232871 1150.38528,300.661528 C1122.21696,306.899552 1096.17984,328.887518 1083.3216,364.267473 C1075.49568,354.710159 1065.30816,349.991585 1055.09568,349.991585 C1044.14016,349.991585 1033.15776,355.425822 1025.0496,366.136744 C1015.94304,346.43463 999.22368,334.230962 982.44864,334.230962 C980.12544,334.230962 977.80032,334.465956 975.4944,334.946625 C956.544,338.898798 938.4192,356.817094 933.216,382.479512 C931.20192,381.859982 929.27424,381.56891 927.42336,381.56891 C926.23872,381.56891 925.08672,381.689077 923.9616,381.91873 C915.072,383.761297 908.0448,392.68039 902.2464,404.750538 C895.03104,402.755759 887.56416,401.433918 880.17984,401.433918 C870.86016,401.433918 861.67296,403.538183 853.2864,409.049861 C838.6176,418.716662 826.0032,441.655285 828.768,463.739384 C828.8256,464.326869 828.9024,464.887651 828.99648,465.448432 C828.9024,464.887651 828.7872,464.353573 828.6336,463.819496 C826.04352,454.780236 814.89792,451.949626 806.71488,451.949626 C804.04224,451.949626 801.6864,452.25138 800.0448,452.73739 C789.3504,455.861743 779.6736,466.599369 778.2144,482.378685 C772.6656,476.760191 765.82848,474.167245 758.9376,474.167245 C755.14944,474.167245 751.34208,474.952339 747.7248,476.450426 C741.216,479.120813 735.2832,483.874101 729.984,489.80236 C726.9696,493.167047 724.1664,496.905589 721.5744,500.857762 C717.9456,506.412166 714.72,512.500648 711.9168,518.962985 C707.4624,529.297382 704.16,540.619822 702.2208,552.316117 L1440,552.316117 L1440,614.188981" id="Fill-18" fill="url(#linearGradient-14)" mask="url(#mask-13)"></path>
                    </g>
                    <g id="Group-25" transform="translate(0.000000, 775.648078)">
                        <mask id="mask-16" fill="white">
                            <use xlink:href="#path-15"></use>
                        </mask>
                        <g id="Clip-24"></g>
                        <path d="M1440,43.6145344 L1440,558.856801 L0,558.856801 L0,283.603194 C48.2304,240.80437 98.1504,201.879348 152.736,179.651744 C159.0912,177.060305 165.4272,174.949751 171.744,173.213219 L182.5344,107.919633 L192.6528,168.992112 C195.7056,168.591374 198.7584,168.270783 201.792,168.057056 L207.072,136.185024 L211.4112,162.446724 L219.3216,114.598601 L228.2496,168.48451 C248.0832,170.488201 267.5904,176.205397 286.656,184.888054 L289.5744,167.335728 L292.9728,187.853516 C317.184,199.768794 340.704,216.359349 363.2832,236.129093 C392.9472,262.096918 423.3024,293.140759 452.6976,322.127478 C480.7488,349.778403 509.184,384.028149 545.5104,382.85265 C551.8272,382.665639 558.1056,381.516857 564.3456,379.887189 C568.5312,378.791838 572.6784,377.509476 576.8448,376.120251 C595.7376,369.895453 614.4576,362.014272 633.5232,365.380471 C647.3472,367.811616 659.7696,375.772945 671.7312,385.737964 L673.4016,375.666081 L675.6288,389.050732 C679.0656,392.069625 682.4832,395.195382 685.8816,398.374571 L694.3104,347.427407 L705.792,416.755089 C711.6672,421.884536 717.6576,426.693393 723.8592,430.727489 C725.8752,432.036567 727.9296,433.265497 729.984,434.414279 C778.5792,461.504171 834.6048,441.97487 884.8704,419.186233 C910.7136,407.484682 936.3648,395.035087 961.824,381.837447 L972.7104,316.116407 L981.8304,371.284679 C983.8464,370.216044 985.824,369.120693 987.84,368.025343 L992.0256,342.698698 L995.52,363.857667 C1059.4368,328.859877 1122.048,289.240242 1183.008,245.105625 L1183.0464,245.078909 C1184.3328,244.143854 1185.6,243.208798 1186.8864,242.273743 C1213.44,222.984885 1239.648,202.814403 1265.5296,181.815729 L1268.0256,166.694547 L1269.504,157.771446 L1272.5376,176.098533 C1276.896,172.545323 1281.2544,168.93868 1285.5936,165.332038 C1290.0096,161.645248 1294.4064,157.958458 1298.8032,154.218236 C1302.6816,150.932184 1306.5984,147.619416 1310.5152,144.279932 C1311.7824,143.211297 1313.0496,142.115947 1314.3168,141.047312 L1324.8192,77.5436892 L1332.768,125.552107 C1338.3744,120.930262 1344.0192,116.335132 1349.7024,111.900298 L1352.928,92.4244287 L1355.4048,107.465463 C1374.7968,92.6381557 1394.6112,79.3069366 1414.944,69.769371 L1420.416,36.6149765 L1420.5312,35.9737956 L1420.6464,36.6149765 L1423.6992,55.1023584 L1432.8,0.12109819 L1440,36.3478178 L1440,43.6145344" id="Fill-23" fill="url(#linearGradient-17)" mask="url(#mask-16)"></path>
                    </g>
                    <rect id="Rectangle" fill="#FFFFFF" style="mix-blend-mode: color;" x="0" y="0" width="1440" height="1333.99397"></rect>
                </g>
            </g>
        </g>
    </g>
</svg>