<?xml version="1.0" encoding="UTF-8"?>
<svg width="64px" height="64px" viewBox="0 0 64 64" version="1.1" xmlns="http://www.w3.org/2000/svg" xmlns:xlink="http://www.w3.org/1999/xlink">
    <!-- Generator: Sketch 58 (84663) - https://sketch.com -->
    <title>026-networking</title>
    <desc>Created with Sketch.</desc>
    <g id="Home" stroke="none" stroke-width="1" fill="none" fill-rule="evenodd">
        <g id="Desktop-HD-Copy-2" transform="translate(-261.000000, -3923.000000)" fill-rule="nonzero">
            <g id="026-networking" transform="translate(261.000000, 3923.000000)">
                <path d="M64,32 C64,49.6733399 49.6733399,64 32,64 C14.3266601,64 0,49.6733399 0,32 C0,14.3266601 14.3266601,0 32,0 C49.6733399,0 64,14.3266601 64,32 Z" id="Path" fill="#80DBFF"></path>
                <path d="M64,32 C64,30.9575195 63.9482423,29.9267577 63.8510743,28.909668 L49.9345703,14.993164 L46.0874024,19.5732422 L35.2631836,8.7490235 L16.6738281,17.527832 L8.47265625,35.0053711 L18.8637695,45.3969726 L14.4941406,49.5058594 L28.8320313,63.8442383 C29.8745118,63.946289 30.9311524,64 32,64 C49.6733399,64 64,49.6733399 64,32 L64,32 Z" id="Path" fill="#4AB8F7"></path>
                <path d="M48.4960938,14.875 L31.5551758,8.2265625 L14.875,15.5039062 L8.22607425,32.4448242 L15.5039062,49.125 L32.444336,55.7734375 L49.1245117,48.4960938 L55.7734375,31.5551758 L48.4960938,14.875 Z M51.9858399,31.6259765 L51.9248047,31.7822265 L51.9248047,31.4858399 L51.9858399,31.6259765 Z M51.3852539,30.25 L36.2250976,30.25 L46.7802735,19.6948242 L51.3852539,30.25 Z M45.9345702,17.756836 L45.7250976,17.5473633 L45.8676757,17.6030274 L45.9345702,17.756836 Z M33.75,27.7749024 L33.75,12.8476562 L44.4702149,17.0546875 L33.75,27.7749024 Z M31.6259765,12.0141601 L31.7822265,12.0751953 L31.4853515,12.0751953 L31.6259765,12.0141601 Z M30.25,27.7749024 L19.694336,17.2197265 L30.25,12.6142578 L30.25,27.7749024 Z M17.7573242,18.0649414 L17.5473632,18.2753906 L17.6030274,18.1323242 L17.7573242,18.0649414 Z M17.0546875,19.5297851 L27.7749024,30.25 L12.8476562,30.25 L17.0546875,19.5297851 Z M12.0751952,32.2172851 L12.0751952,32.5146485 L12.0136719,32.3740235 L12.0751952,32.2172851 Z M12.6142577,33.75 L27.7749024,33.75 L17.2197265,44.305664 L12.6142577,33.75 Z M18.0649414,46.2426758 L18.2749024,46.4526368 L18.131836,46.3964844 L18.0649414,46.2426758 Z M30.25,36.2250976 L30.25,51.1523438 L19.5297851,46.9453125 L30.25,36.2250976 Z M32.3735351,51.9858399 L32.2172851,51.9248048 L32.5141601,51.9248048 L32.3735351,51.9858399 Z M33.75,36.2250976 L44.3051757,46.7802735 L33.75,51.3852539 L33.75,36.2250976 Z M46.2426757,45.9350586 L46.4521485,45.725586 L46.3964844,45.8676758 L46.2426757,45.9350586 Z M46.9448242,44.4702149 L36.2250976,33.75 L51.1523437,33.75 L46.9448242,44.4702149 Z" id="Shape" fill="#2864F0"></path>
                <path d="M48.4960938,14.875 L31.9492188,8.38134763 L31.9492188,55.5795899 L32.444336,55.7739258 L49.1245117,48.4960938 L55.7734375,31.5551758 L48.4960938,14.875 Z M45.8676758,17.6035156 L45.9345703,17.756836 L45.7250976,17.5473633 L45.8676758,17.6035156 Z M33.75,12.8476563 L44.4702149,17.0546875 L33.75,27.7749024 L33.75,12.8476563 Z M32.3735351,51.9858399 L32.2172851,51.9248048 L32.5141601,51.9248048 L32.3735351,51.9858399 Z M33.75,51.3852539 L33.75,36.2250976 L44.3051758,46.7802735 L33.75,51.3852539 Z M46.3964844,45.8676758 L46.2426757,45.9345703 L46.4521485,45.7250976 L46.3964844,45.8676758 Z M46.9448243,44.4702149 L36.2250976,33.75 L51.1523438,33.75 L46.9448243,44.4702149 Z M36.2250976,30.25 L46.7802735,19.6948243 L51.3852539,30.25 L36.2250976,30.25 Z M51.9248048,31.4858399 L51.9858399,31.6259765 L51.9248048,31.7822265 L51.9248048,31.4858399 Z" id="Shape" fill="#27488F"></path>
                <path d="M41.7104492,32 C41.7104492,37.362793 37.362793,41.7104492 32,41.7104492 C26.637207,41.7104492 22.2895507,37.362793 22.2895507,32 C22.2895507,26.637207 26.637207,22.2895507 32,22.2895507 C37.362793,22.2895507 41.7104492,26.637207 41.7104492,32 L41.7104492,32 Z" id="Path" fill="#FFFFFF"></path>
                <path d="M32,22.2895507 C31.9829101,22.2895507 31.9663086,22.2910156 31.9492188,22.2910156 L31.9492188,41.7089844 C31.9663086,41.7094726 31.9829101,41.7104492 32,41.7104492 C37.362793,41.7104492 41.7104492,37.362793 41.7104492,32 C41.7104492,26.637207 37.362793,22.2895507 32,22.2895507 L32,22.2895507 Z" id="Path" fill="#DCE1EB"></path>
                <path d="M36.2177735,29.9682617 C36.2177735,32.2978515 34.3295899,34.1865235 32,34.1865235 C29.6704101,34.1865235 27.7822265,32.2978515 27.7822265,29.9682617 C27.7822265,27.6391601 29.6704101,25.7504882 32,25.7504882 C34.3295899,25.7504882 36.2177735,27.6391601 36.2177735,29.9682617 Z" id="Path" fill="#FFBEAA"></path>
                <path d="M32,25.7504882 C31.9829101,25.7504882 31.9663086,25.7514649 31.9492187,25.7519531 L31.9492187,34.1850586 C31.9663086,34.1855469 31.9829101,34.1865235 32,34.1865235 C34.3295899,34.1865235 36.2177735,32.2983399 36.2177735,29.9682617 C36.2177735,27.6391601 34.3295899,25.7504882 32,25.7504882 Z" id="Path" fill="#E09380"></path>
                <path d="M25.2929688,39.0219726 C27.0361328,40.6875 29.3984375,41.7104492 32,41.7104492 C34.6010742,41.7104492 36.9638672,40.6875 38.7070312,39.0219726 C37.6386719,36.3637695 35.0395508,34.4863281 32,34.4863281 C28.9604492,34.4863281 26.3608399,36.3637695 25.2929688,39.0219726 L25.2929688,39.0219726 Z" id="Path" fill="#FFCE00"></path>
                <path d="M38.7070312,39.0219726 C37.6391601,36.3637695 35.040039,34.4863281 32,34.4863281 C31.9829101,34.4863281 31.9663086,34.4873047 31.949707,34.4873047 L31.949707,41.7089844 C31.9663086,41.7089844 31.9829101,41.7104493 32,41.7104493 C34.6015625,41.7104493 36.9638672,40.6875 38.7070312,39.0219726 L38.7070312,39.0219726 Z" id="Path" fill="#FFB600"></path>
                <path d="M36.2905274,11.5332031 C36.2905274,13.902832 34.3696289,15.8237305 32,15.8237305 C29.6303711,15.8237305 27.7094726,13.902832 27.7094726,11.5332031 C27.7094726,9.16357425 29.6303711,7.24267575 32,7.24267575 C34.3696289,7.24267575 36.2905274,9.16357425 36.2905274,11.5332031 L36.2905274,11.5332031 Z" id="Path" fill="#4A7AFF"></path>
                <path d="M32,7.24267575 C31.9829101,7.24267575 31.9663086,7.24414062 31.9492188,7.24414062 L31.9492188,15.8222656 C31.9663086,15.8227539 31.9829101,15.8237305 32,15.8237305 C34.3696289,15.8237305 36.2905274,13.902832 36.2905274,11.5332031 C36.2905274,9.1640625 34.3696289,7.24267575 32,7.24267575 L32,7.24267575 Z" id="Path" fill="#0053BF"></path>
                <path d="M36.2905274,52.4667969 C36.2905274,54.8364258 34.3696289,56.7573242 32,56.7573242 C29.6303711,56.7573242 27.7094726,54.8364257 27.7094726,52.4667969 C27.7094726,50.097168 29.6303711,48.1762695 32,48.1762695 C34.3696289,48.1762695 36.2905274,50.097168 36.2905274,52.4667969 L36.2905274,52.4667969 Z" id="Path" fill="#4A7AFF"></path>
                <path d="M32,48.1762695 C31.9829101,48.1762695 31.9663086,48.1772461 31.9492188,48.1772461 L31.9492188,56.7558594 C31.9663086,56.7558594 31.9829101,56.756836 32,56.756836 C34.3696289,56.756836 36.2905274,54.8359375 36.2905274,52.4663086 C36.2905274,50.0966797 34.3696289,48.1762695 32,48.1762695 L32,48.1762695 Z" id="Path" fill="#0053BF"></path>
                <path d="M56.7573243,32 C56.7573243,34.3696289 54.8364258,36.2905274 52.4667969,36.2905274 C50.097168,36.2905274 48.1762695,34.3696289 48.1762695,32 C48.1762695,29.6303711 50.097168,27.7094726 52.4667969,27.7094726 C54.8364257,27.7094726 56.7573243,29.6303711 56.7573243,32 L56.7573243,32 Z" id="Path" fill="#0053BF"></path>
                <path d="M15.8237305,32 C15.8237305,34.3696289 13.902832,36.2905274 11.5332031,36.2905274 C9.16357425,36.2905274 7.24267575,34.3696289 7.24267575,32 C7.24267575,29.6303711 9.16357425,27.7094726 11.5332031,27.7094726 C13.902832,27.7094726 15.8237305,29.6303711 15.8237305,32 L15.8237305,32 Z" id="Path" fill="#4A7AFF"></path>
                <path d="M49.5053711,14.4941406 C47.8300781,12.8188476 45.1132812,12.8188476 43.4379883,14.4941406 C41.762207,16.1699219 41.762207,18.8862305 43.4379883,20.5620117 C45.1132812,22.2373047 47.8300781,22.2373047 49.5053711,20.5620117 C51.1811523,18.8862305 51.1811523,16.1699219 49.5053711,14.4941406 Z" id="Path" fill="#0053BF"></path>
                <path d="M20.5615235,43.4379882 C18.8857422,41.7626952 16.1694336,41.7626952 14.4936524,43.4379882 C12.8183594,45.1137695 12.8183594,47.8300781 14.4936524,49.5058594 C16.1694336,51.1811524 18.8857422,51.1811524 20.5615235,49.5058594 C22.2368164,47.8300781 22.2368164,45.1137695 20.5615235,43.4379883 L20.5615235,43.4379882 Z" id="Path" fill="#4A7AFF"></path>
                <path d="M20.5615235,14.4941406 C18.8857422,12.8183594 16.1694336,12.8183594 14.4936524,14.4941406 C12.8183594,16.1694336 12.8183594,18.8862305 14.4936524,20.5615235 C16.1694336,22.2373047 18.8857422,22.2373047 20.5615235,20.5615235 C22.2368164,18.8862305 22.2368164,16.1694336 20.5615235,14.4941406 Z" id="Path" fill="#4A7AFF"></path>
                <path d="M49.5053711,43.4379882 C47.8295899,41.7626952 45.1132812,41.7626952 43.4375,43.4379882 C41.762207,45.1137695 41.762207,47.8300781 43.4375,49.5058594 C45.1132812,51.1811524 47.8295899,51.1811524 49.5053711,49.5058594 C51.180664,47.8300781 51.180664,45.1137695 49.5053711,43.4379883 L49.5053711,43.4379882 Z" id="Path" fill="#0053BF"></path>
            </g>
        </g>
    </g>
</svg>