<?xml version="1.0" encoding="UTF-8"?>
<svg width="64px" height="64px" viewBox="0 0 64 64" version="1.1" xmlns="http://www.w3.org/2000/svg" xmlns:xlink="http://www.w3.org/1999/xlink">
    <!-- Generator: Sketch 58 (84663) - https://sketch.com -->
    <title>009-conversation</title>
    <desc>Created with Sketch.</desc>
    <g id="Home" stroke="none" stroke-width="1" fill="none" fill-rule="evenodd">
        <g id="Desktop-HD-Copy-2" transform="translate(-963.000000, -3503.000000)" fill-rule="nonzero">
            <g id="contact" transform="translate(109.000000, 3342.000000)">
                <g id="009-conversation" transform="translate(854.000000, 161.000000)">
                    <path d="M64,32 C64,49.6733399 49.6733399,64 32,64 C14.3266601,64 0,49.6733399 0,32 C0,14.3266601 14.3266601,0 32,0 C49.6733399,0 64,14.3266601 64,32 Z" id="Path" fill="#06CCAB"></path>
                    <path d="M63.1796875,24.7695313 L52.4853515,14.0751953 L10.8364258,25.3579101 L16.0463868,30.5683594 L14.149414,32.2963868 L20.3544923,38.5014649 L10.7392578,46.7280274 L27.7265625,63.715332 C29.125,63.9018555 30.5507813,64 32,64 C49.6733399,64 64,49.6733399 64,32 C64,29.5131836 63.7163086,27.0927735 63.1796875,24.7695313 Z" id="Path" fill="#11A892"></path>
                    <path d="M55.2270508,41.1606445 C55.2270508,46.0566406 51.2583007,50.0253906 46.362793,50.0253906 C41.4667969,50.0253906 37.4980469,46.0566406 37.4980469,41.1606445 C37.4980469,36.2651368 41.4667969,32.2963868 46.362793,32.2963868 C51.2583007,32.2963868 55.2270508,36.2651368 55.2270508,41.1606445 L55.2270508,41.1606445 Z" id="Path" fill="#DCE1EB"></path>
                    <path d="M50.2128906,39.3061524 C50.2128906,41.4331055 48.4892577,43.1567383 46.362793,43.1567383 C44.2358399,43.1567383 42.512207,41.4331055 42.512207,39.3061524 C42.512207,37.1796875 44.2358399,35.4560548 46.362793,35.4560548 C48.4892577,35.4560548 50.2128906,37.1796875 50.2128906,39.3061524 L50.2128906,39.3061524 Z" id="Path" fill="#E09380"></path>
                    <path d="M40.2397461,47.5708007 C41.8310548,49.0913086 43.987793,50.0253906 46.362793,50.0253906 C48.7373048,50.0253906 50.894043,49.0913086 52.4853515,47.5708008 C51.5102539,45.1445312 49.1376953,43.430664 46.362793,43.430664 C43.5874024,43.430664 41.2148438,45.1445313 40.2397461,47.5708008 L40.2397461,47.5708007 Z" id="Path" fill="#FFB600"></path>
                    <path d="M26.5019531,41.1606445 C26.5019531,46.0566406 22.5332031,50.0253906 17.637207,50.0253906 C12.7416992,50.0253906 8.77294925,46.0566406 8.77294925,41.1606445 C8.77294925,36.2651368 12.7416992,32.2963868 17.637207,32.2963868 C22.5332031,32.2963868 26.5019531,36.2651368 26.5019531,41.1606445 L26.5019531,41.1606445 Z" id="Path" fill="#FFFFFF"></path>
                    <path d="M21.487793,39.3061524 C21.487793,41.4331055 19.7641601,43.1567383 17.637207,43.1567383 C15.5107422,43.1567383 13.7871094,41.4331055 13.7871094,39.3061524 C13.7871094,37.1796875 15.5107422,35.4560548 17.637207,35.4560548 C19.7641601,35.4560548 21.487793,37.1796875 21.487793,39.3061524 L21.487793,39.3061524 Z" id="Path" fill="#FFBEAA"></path>
                    <path d="M11.5146485,47.5708007 C13.105957,49.0913086 15.2626953,50.0253906 17.637207,50.0253906 C20.012207,50.0253906 22.1689453,49.0913086 23.7602539,47.5708008 C22.7851562,45.1445312 20.4125976,43.430664 17.637207,43.430664 C14.8623047,43.430664 12.4897461,45.1445313 11.5146485,47.5708008 L11.5146485,47.5708007 Z" id="Path" fill="#FFCE00"></path>
                    <path d="M47.352539,12.1723633 L16.647461,12.1723633 C12.2988281,12.1723633 8.77294925,15.6977539 8.77294925,20.046875 C8.77294925,23.522461 11.0253906,26.4697265 14.149414,27.5141601 L14.149414,32.2963868 L21.434082,27.9213868 L42.565918,27.9213868 L49.850586,32.2963868 L49.850586,27.5141601 C52.9746094,26.4697265 55.2270507,23.5219726 55.2270507,20.046875 C55.2270507,15.6977539 51.7011719,12.1723633 47.352539,12.1723633 Z" id="Path" fill="#555A66"></path>
                    <path d="M47.352539,12.1723633 L31.9492188,12.1723633 L31.9492188,27.9213868 L42.565918,27.9213868 L49.850586,32.2963868 L49.850586,27.5141601 C52.9746094,26.4697265 55.2270507,23.5219726 55.2270507,20.046875 C55.2270507,15.6977539 51.7011719,12.1723633 47.352539,12.1723633 L47.352539,12.1723633 Z" id="Path" fill="#333940"></path>
                    <path d="M34.2783202,20.2783203 C34.2783202,21.5361328 33.2583008,22.5561524 32,22.5561524 C30.7416992,22.5561524 29.7216797,21.5361328 29.7216797,20.2783203 C29.7216797,19.0200195 30.7416992,18 32,18 C33.2583008,18 34.2783202,19.0200195 34.2783202,20.2783203 Z" id="Path" fill="#7E8596"></path>
                    <path d="M32,18 C31.9829101,18 31.9663086,18.0024414 31.9492188,18.0024414 L31.9492188,22.553711 C31.9663086,22.5541992 31.9829101,22.5561524 32,22.5561524 C33.2583008,22.5561524 34.2783203,21.5361328 34.2783203,20.2783203 C34.2783203,19.0200195 33.2583008,18 32,18 Z" id="Path" fill="#636978"></path>
                    <path d="M22.1938476,20.2783203 C22.1938476,21.5361328 21.1738281,22.5561524 19.9155274,22.5561524 C18.6572265,22.5561524 17.637207,21.5361328 17.637207,20.2783203 C17.637207,19.0200195 18.6572265,18 19.9155274,18 C21.1738281,18 22.1938476,19.0200195 22.1938476,20.2783203 Z" id="Path" fill="#7E8596"></path>
                    <path d="M46.362793,20.2783203 C46.362793,21.5361328 45.3427735,22.5561524 44.0844726,22.5561524 C42.8261719,22.5561524 41.8061524,21.5361328 41.8061524,20.2783203 C41.8061524,19.0200195 42.8261719,18 44.0844726,18 C45.3427735,18 46.362793,19.0200195 46.362793,20.2783203 Z" id="Path" fill="#636978"></path>
                </g>
            </g>
        </g>
    </g>
</svg>