<?xml version="1.0" encoding="UTF-8"?>
<svg width="64px" height="64px" viewBox="0 0 64 64" version="1.1" xmlns="http://www.w3.org/2000/svg" xmlns:xlink="http://www.w3.org/1999/xlink">
    <!-- Generator: Sketch 58 (84663) - https://sketch.com -->
    <title>collaboration</title>
    <desc>Created with Sketch.</desc>
    <g id="Home" stroke="none" stroke-width="1" fill="none" fill-rule="evenodd">
        <g id="Desktop-HD-Copy-2" transform="translate(-536.000000, -3503.000000)" fill-rule="nonzero">
            <g id="contact" transform="translate(109.000000, 3342.000000)">
                <g id="collaboration" transform="translate(427.000000, 161.000000)">
                    <g id="003-id-card">
                        <path d="M64,32 C64,49.6733399 49.6733399,64 32,64 C14.3271485,64 0,49.6733399 0,32 C0,14.3266601 14.3271485,0 32,0 C49.6733399,0 64,14.3266601 64,32 Z" id="Path" fill="#4A7AFF"></path>
                        <path d="M64,32 C64,30.9477539 63.9477539,29.9077149 63.8486328,28.8813476 L45.9682618,11.0009765 L44.4863281,15.6835938 L37.5952149,8.7924805 L18.0322265,52.9990235 L28.8813476,63.8486328 C29.9077149,63.9477539 30.9477539,64 32,64 C49.6733399,64 64,49.6733399 64,32 L64,32 Z" id="Path" fill="#0053BF"></path>
                        <polygon id="Path" fill="#FFFFFF" points="18.0322265 11.0009765 45.9682618 11.0009765 45.9682618 52.9990235 18.0322265 52.9990235"></polygon>
                        <polygon id="Path" fill="#DCE1EB" points="31.9492188 11.0009765 45.9682618 11.0009765 45.9682618 52.9990235 31.9492188 52.9990235"></polygon>
                        <path d="M40.8642577,26.0644531 C40.8642577,30.959961 36.8955077,34.928711 32,34.928711 C27.1044922,34.928711 23.1357422,30.959961 23.1357422,26.0644531 C23.1357422,21.1689453 27.1044922,17.2001953 32,17.2001953 C36.8955077,17.2001953 40.8642577,21.1689453 40.8642577,26.0644531 Z" id="Path" fill="#555A66"></path>
                        <path d="M32,17.2001953 C31.9829101,17.2001953 31.9663086,17.2011719 31.9492188,17.2011719 L31.9492188,34.9277344 C31.9663086,34.9277344 31.9829101,34.928711 32,34.928711 C36.8955078,34.928711 40.8642578,30.959961 40.8642578,26.0644531 C40.8642578,21.1689453 36.8955078,17.2001953 32,17.2001953 Z" id="Path" fill="#333940"></path>
                        <path d="M35.850586,24.209961 C35.850586,26.3364258 34.1264649,28.0605469 32,28.0605469 C29.8735351,28.0605469 28.149414,26.3364258 28.149414,24.209961 C28.149414,22.0834961 29.8735351,20.359375 32,20.359375 C34.1264649,20.359375 35.850586,22.0834961 35.850586,24.209961 Z" id="Path" fill="#FFBEAA"></path>
                        <path d="M32,20.359375 C31.9829101,20.359375 31.9663086,20.3608399 31.9492187,20.3608399 L31.9492187,28.059082 C31.9663086,28.0595703 31.9829101,28.0605469 32,28.0605469 C34.1264649,28.0605469 35.850586,26.3364258 35.850586,24.209961 C35.850586,22.0834961 34.1264649,20.359375 32,20.359375 Z" id="Path" fill="#E09380"></path>
                        <path d="M25.8774414,32.4746094 C27.46875,33.9951173 29.6254883,34.928711 32,34.928711 C34.375,34.928711 36.53125,33.9951173 38.1230469,32.4746094 C37.1479493,30.0483399 34.7749024,28.3344725 32,28.3344725 C29.2250976,28.3339844 26.852539,30.0483399 25.8774414,32.4746094 Z" id="Path" fill="#FFCE00"></path>
                        <path d="M38.1230469,32.4746094 C37.1479493,30.0483399 34.7749024,28.3339844 32,28.3339844 C31.9829101,28.3339844 31.9663086,28.334961 31.9492188,28.334961 L31.9492188,34.9277344 C31.9663086,34.9277344 31.9829101,34.928711 32,34.928711 C34.375,34.928711 36.53125,33.9951172 38.1230469,32.4746094 Z" id="Path" fill="#FFB600"></path>
                        <polygon id="Path" fill="#FFCE00" points="18.0322265 38.6010742 45.9682618 38.6010742 45.9682618 52.9990235 18.0322265 52.9990235"></polygon>
                        <polygon id="Path" fill="#FFB600" points="31.9492188 38.6010742 45.9682618 38.6010742 45.9682618 52.9990235 31.9492188 52.9990235"></polygon>
                        <polygon id="Path" fill="#FFCE00" points="26.4047851 8.7924805 37.5952149 8.7924805 37.5952149 13.2924805 26.4047851 13.2924805"></polygon>
                        <polygon id="Path" fill="#FFB600" points="31.9492188 8.7924805 37.5952149 8.7924805 37.5952149 13.2924805 31.9492188 13.2924805"></polygon>
                    </g>
                </g>
            </g>
        </g>
    </g>
</svg>