<?xml version="1.0" encoding="UTF-8"?>
<svg width="49px" height="36px" viewBox="0 0 49 36" version="1.1" xmlns="http://www.w3.org/2000/svg" xmlns:xlink="http://www.w3.org/1999/xlink">
    <!-- Generator: Sketch 58 (84663) - https://sketch.com -->
    <title>window</title>
    <desc>Created with Sketch.</desc>
    <g id="Home" stroke="none" stroke-width="1" fill="none" fill-rule="evenodd">
        <g id="Desktop-HD" transform="translate(-837.000000, -2323.000000)">
            <g id="window" transform="translate(837.000000, 2323.000000)">
                <path d="M7.27659574,0 C3.25761702,0 0,3.25761702 0,7.27659574 L0,28.7234043 C0,32.742383 3.25761702,36 7.27659574,36 L40.9787234,36 C44.9969362,36 48.2553191,32.742383 48.2553191,28.7234043 L48.2553191,7.27659574 C48.2553191,3.25761702 44.9969362,0 40.9787234,0 L7.27659574,0 Z" id="Path" fill="#4A1E96"></path>
                <path d="M7.27659574,2.29787234 L40.9787234,2.29787234 C43.7285106,2.29787234 45.9574468,4.52680851 45.9574468,7.27659574 L45.9574468,10.7234043 L2.29787234,10.7234043 L2.29787234,7.27659574 C2.29787234,4.52680851 4.52680851,2.29787234 7.27659574,2.29787234 Z" id="Path" fill="#4A1E96"></path>
                <path d="M9.81382979,5.31382979 C8.6166383,5.31382979 7.65957447,6.27089362 7.65957447,7.46808511 C7.65957447,8.6652766 8.6166383,9.6462766 9.81382979,9.6462766 C11.0110213,9.6462766 11.9920213,8.6652766 11.9920213,7.46808511 C11.9920213,6.27089362 11.0110213,5.31382979 9.81382979,5.31382979 Z" id="Path" fill="#FFFFFF"></path>
                <path d="M17.6170213,5.31382979 C16.4198298,5.31382979 15.462766,6.27089362 15.462766,7.46808511 C15.462766,8.6652766 16.4198298,9.6462766 17.6170213,9.6462766 C18.8142128,9.6462766 19.7952128,8.6652766 19.7952128,7.46808511 C19.7952128,6.27089362 18.8142128,5.31382979 17.6170213,5.31382979 Z" id="Path" fill="#FFFFFF"></path>
                <path d="M24.5585106,5.31382979 C23.3613191,5.31382979 22.4042553,6.27089362 22.4042553,7.46808511 C22.4042553,8.6652766 23.3613191,9.6462766 24.5585106,9.6462766 C25.7557021,9.6462766 26.7367021,8.6652766 26.7367021,7.46808511 C26.7367021,6.27089362 25.7557021,5.31382979 24.5585106,5.31382979 Z" id="Path" fill="#FFFFFF"></path>
                <path d="M2.29787234,13.0212766 L45.9574468,13.0212766 L45.9574468,28.7234043 C45.9574468,31.4731915 43.7285106,33.7021277 40.9787234,33.7021277 L7.27659574,33.7021277 C4.52680851,33.7021277 2.29787234,31.4731915 2.29787234,28.7234043 L2.29787234,13.0212766 Z" id="Path" fill="#FFFFFF"></path>
                <path d="M10.3404255,16.4680851 C8.85982979,16.4680851 7.65957447,17.6683404 7.65957447,19.1489362 L7.65957447,29.106383 C7.65957447,30.5869787 8.85982979,31.787234 10.3404255,31.787234 L24.1276596,31.787234 C25.6082553,31.787234 26.8085106,30.5869787 26.8085106,29.106383 L26.8085106,19.1489362 C26.8085106,17.6683404 25.6082553,16.4680851 24.1276596,16.4680851 L10.3404255,16.4680851 Z" id="Path" fill="#4A1E96"></path>
                <path d="M34.2287234,16.4680851 C32.7481277,16.4680851 31.5478723,17.6683404 31.5478723,19.1489362 L31.5478723,29.106383 C31.5478723,30.5869787 32.7481277,31.787234 34.2287234,31.787234 L40.356383,31.787234 C41.8369787,31.787234 43.037234,30.5869787 43.037234,29.106383 L43.037234,19.1489362 C43.037234,17.6683404 41.8369787,16.4680851 40.356383,16.4680851 L34.2287234,16.4680851 Z" id="Path" fill="#4A1E96"></path>
                <path d="M10.3404255,18.7659574 L24.1276596,18.7659574 C24.3390638,18.7659574 24.5106383,18.9375319 24.5106383,19.1489362 L24.5106383,29.106383 C24.5106383,29.3177872 24.3390638,29.4893617 24.1276596,29.4893617 L10.3404255,29.4893617 C10.1290213,29.4893617 9.95744681,29.3177872 9.95744681,29.106383 L9.95744681,19.1489362 C9.95744681,18.9375319 10.1290213,18.7659574 10.3404255,18.7659574 Z" id="Path" fill="#4A1E96"></path>
                <path d="M34.2287234,18.7659574 L40.356383,18.7659574 C40.5677872,18.7659574 40.7393617,18.9375319 40.7393617,19.1489362 L40.7393617,29.106383 C40.7393617,29.3177872 40.5677872,29.4893617 40.356383,29.4893617 L34.2287234,29.4893617 C34.0173191,29.4893617 33.8457447,29.3177872 33.8457447,29.106383 L33.8457447,19.1489362 C33.8457447,18.9375319 34.0173191,18.7659574 34.2287234,18.7659574 Z" id="Path" fill="#4A1E96"></path>
            </g>
        </g>
    </g>
</svg>